<?xml version="1.0" encoding="UTF-8" standalone="no"?>
<!-- Created with Inkscape (http://www.inkscape.org/) -->
<svg
   xmlns:svg="http://www.w3.org/2000/svg"
   xmlns="http://www.w3.org/2000/svg"
   xmlns:xlink="http://www.w3.org/1999/xlink"
   version="1.0"
   width="600"
   height="660"
   id="svg2">
  <desc
     id="desc4">Flag of Canton of Valais (Wallis)</desc>
  <defs
     id="defs6">
    <linearGradient
       id="linearGradient2893">
      <stop
         id="stop2895"
         style="stop-color:#ffffff;stop-opacity:0.3137255"
         offset="0" />
      <stop
         id="stop2897"
         style="stop-color:#ffffff;stop-opacity:0.25098041"
         offset="0.19" />
      <stop
         id="stop2901"
         style="stop-color:#6b6b6b;stop-opacity:0.1254902"
         offset="0.60000002" />
      <stop
         id="stop2899"
         style="stop-color:#000000;stop-opacity:0.1254902"
         offset="1" />
    </linearGradient>
    <linearGradient
       id="linearGradient2885">
      <stop
         id="stop2887"
         style="stop-color:#ffffff;stop-opacity:1"
         offset="0" />
      <stop
         id="stop2891"
         style="stop-color:#ffffff;stop-opacity:1"
         offset="0.22857143" />
      <stop
         id="stop2889"
         style="stop-color:#000000;stop-opacity:1"
         offset="1" />
    </linearGradient>
    <linearGradient
       id="linearGradient2955">
      <stop
         id="stop2867"
         style="stop-color:#fd0000;stop-opacity:1"
         offset="0" />
      <stop
         id="stop2873"
         style="stop-color:#e77275;stop-opacity:0.65882355"
         offset="0.5" />
      <stop
         id="stop2959"
         style="stop-color:#000000;stop-opacity:0.32291666"
         offset="1" />
    </linearGradient>
    <radialGradient
       cx="225.52438"
       cy="218.90099"
       r="300"
       fx="225.52438"
       fy="218.90099"
       id="radialGradient2961"
       xlink:href="#linearGradient2955"
       gradientUnits="userSpaceOnUse"
       gradientTransform="matrix(-4.167939e-4,2.182867,-1.884232,-3.599562e-4,615.5972,-289.1214)" />
    <polygon
       points="0,-1 0.58778525,0.80901699 -0.95105652,-0.30901699 0.95105652,-0.30901699 -0.58778525,0.80901699 0,-1 "
       transform="scale(53,53)"
       id="star" />
    <clipPath
       id="clip">
      <path
         d="M 0,-200 L 0,600 L 300,600 L 300,-200 L 0,-200 z"
         id="path10" />
    </clipPath>
    <radialGradient
       cx="225.52438"
       cy="218.90099"
       r="300"
       fx="225.52438"
       fy="218.90099"
       id="radialGradient1911"
       xlink:href="#linearGradient2955"
       gradientUnits="userSpaceOnUse"
       gradientTransform="matrix(-4.167939e-4,2.182867,-1.884232,-3.599562e-4,615.5972,-289.1214)" />
    <radialGradient
       cx="225.52438"
       cy="218.90099"
       r="300"
       fx="225.52438"
       fy="218.90099"
       id="radialGradient2865"
       xlink:href="#linearGradient2955"
       gradientUnits="userSpaceOnUse"
       gradientTransform="matrix(0,1.748721,-1.593162,-1.049767e-7,551.7876,-191.2898)" />
    <radialGradient
       cx="225.52438"
       cy="218.90099"
       r="300"
       fx="225.52438"
       fy="218.90099"
       id="radialGradient2871"
       xlink:href="#linearGradient2955"
       gradientUnits="userSpaceOnUse"
       gradientTransform="matrix(0,1.386237,-1.323286,-5.741131e-8,-158.0823,-109.5408)" />
    <radialGradient
       cx="221.44487"
       cy="226.33101"
       r="300"
       fx="221.44487"
       fy="226.33101"
       id="radialGradient3163"
       xlink:href="#linearGradient2893"
       gradientUnits="userSpaceOnUse"
       gradientTransform="matrix(1.353218,0,0,1.348928,-77.62935,-85.74693)" />
  </defs>
  <g
     id="layer3"
     style="display:inline">
    <path
       d="M 297.77371,658.5 C 297.77371,658.5 596.27372,546.17969 596.27372,260.72817 C 596.27372,-24.723354 596.27372,2.1764765 596.27372,2.1764765 L -0.72628878,2.1764765 L -0.72628878,260.72817 C -0.72628878,546.17969 297.77371,658.5 297.77371,658.5 z"
       id="path2855"
       style="fill:#2b5df2;fill-opacity:1;fill-rule:evenodd;stroke:none;stroke-width:1px;stroke-linecap:butt;stroke-linejoin:miter;stroke-opacity:1" />
    <g
       transform="matrix(0.3326804,0,0,0.3326804,178.82861,149.9286)"
       id="g20356"
       style="opacity:1;display:inline">
      <g
         id="g20358">
        <path
           d="M 233.93921,227.5321 L 224.34276,220.96611 C 219.79708,223.23895 159.18792,216.9255 143.27802,211.36966 C 127.36812,205.81382 95.713418,182.99872 92.517854,180.05493 C 79.696606,168.24384 58.898753,140.52465 56.884596,137.12345 C 48.868976,123.58791 36.605028,95.411328 34.495359,80.006501 C 32.377299,64.540408 30.227592,39.618346 30.732669,38.355656 C 31.237745,37.092965 32.625283,32.503736 37.46454,31.057431 C 42.908558,29.430381 66.233038,22.380349 69.493555,19.00431 C 72.101837,16.303616 99.343768,-5.1975346 103.50698,-19.728116 C 107.07275,-32.173489 107.20839,-40.915938 107.20839,-50.007311 C 107.20839,-59.098684 107.16507,-72.952386 103.62953,-83.811526 C 100.094,-94.670666 90.035801,-104.34634 76.398742,-114.44786 C 62.761683,-124.54939 41.252613,-126.52637 41.252613,-126.52637 L -74.200644,-124.56734 C -74.317782,-124.54406 -150.83988,-126.01204 -208.80347,-150.09907 C -169.7828,-39.965783 -80.627095,-61.629084 -66.581172,-55.310614 C -188.6945,-17.366063 -245.58739,-14.683456 -257.5,-17.93497 C -257.31358,-14.61703 -242.5868,2.3152156 -225.74249,15.165694 C -212.11638,25.561014 -193.23468,32.636958 -184.26394,34.087887 C -165.45156,37.130605 -144.75207,35.976 -122.41312,34.546864 C -109.91474,33.747279 -70.388846,21.524159 -73.65224,26.511742 C -76.212846,30.425225 -93.771503,42.634931 -115.25771,60.705039 C -134.13534,76.581311 -156.00938,98.712135 -177.58706,116.45787 C -216.17844,148.19587 -256.21684,167.28033 -253.96447,169.44832 C -241.22637,181.70919 -205.7944,190.42557 -176.37483,181.76022 C -163.74558,178.04035 -155.88543,173.57557 -142.0865,164.03907 C -131.4239,156.67009 -116.5901,142.32297 -107.79491,134.38566 C -91.103548,119.32238 -75.423696,106.85823 -65.571018,98.232573 C -65.602439,105.00866 -70.819707,112.27354 -77.187774,123.99146 C -156.98983,272.98896 -247.90355,424.00677 -247.90355,424.00677 C -171.48969,428.21989 -128.32017,350.51653 -91.569842,302.61892 C -44.795436,241.65667 -55.478358,254.4149 -45.367968,240.66408 C -35.257578,226.91326 -47.784258,249.34268 -69.106553,301.27324 C -94.936102,357.62469 -94.273264,400.79874 -103.56044,460.13273 C -110.72094,504.41281 -121.35781,556.9172 -121.63449,550.78091 C -122.63297,565.5633 -159.30307,660.95883 -189.81978,741.19467 C -153.76307,738.28844 -127.88529,717.34326 -108.5025,697.75811 C -94.107916,676.43676 -82.157482,654.76407 -73.147164,632.0982 C -56.727048,593.86108 -44.836419,557.25498 -32.867672,522.29061 C -7.7930652,449.04002 9.709765,384.38351 27.363016,338.64888 L 26.801943,433.75067 C 28.929503,456.47083 21.460137,560.49684 16.831929,592.33548 C 5.5785803,669.75019 2.8610615,715.70675 -6.4770953,757.86218 C 112.19521,739.39901 142.73321,502.35295 139.99502,404.81387 C 149.75983,477.76568 159.52464,548.61396 169.28945,610.88499 C 193.00586,597.6466 206.40204,584.02731 212.22093,557.3469 C 217.44005,483.57079 223.66933,420.13447 228.88845,357.84177 L 277.88085,262.88744 L 233.93921,227.5321 z"
           id="path20360"
           style="fill:none;fill-opacity:1;fill-rule:nonzero;stroke:#dcd6d6;stroke-width:5;stroke-linecap:butt;stroke-linejoin:round;marker:none;marker-start:none;marker-mid:none;marker-end:none;stroke-miterlimit:4;stroke-dashoffset:0;stroke-opacity:1;visibility:visible;display:inline;overflow:visible" />
        <path
           d="M 481.13209,227.5321 L 490.72854,220.96611 C 495.27422,223.23895 555.88338,216.9255 571.79328,211.36966 C 587.70318,205.81382 619.35788,182.99872 622.55345,180.05493 C 635.37469,168.24384 656.17255,140.52465 658.18671,137.12345 C 666.20233,123.58791 678.46628,95.411328 680.57595,80.006501 C 682.69401,64.540408 684.84371,39.618346 684.33864,38.355656 C 683.83356,37.092965 682.44602,32.503736 677.60676,31.057431 C 672.16275,29.430381 648.83827,22.380349 645.57775,19.00431 C 642.96946,16.303616 615.72753,-5.1975344 611.56432,-19.728116 C 607.99855,-32.173489 607.86291,-40.915938 607.86291,-50.007311 C 607.86291,-59.098684 607.90623,-72.952386 611.44177,-83.811526 C 614.9773,-94.670666 625.0355,-104.34634 638.67256,-114.44786 C 652.30962,-124.54939 673.81869,-126.52637 673.81869,-126.52637 L 789.27194,-124.56734 C 789.38908,-124.54406 865.91118,-126.01204 923.87477,-150.09907 C 884.8541,-39.965783 795.6984,-61.629084 781.65247,-55.310614 C 903.7658,-17.366063 960.65869,-14.683456 972.5713,-17.93497 C 972.38488,-14.61703 957.6581,2.3152158 940.81379,15.165694 C 927.18768,25.561014 908.30598,32.636958 899.33524,34.087887 C 880.52286,37.130605 859.82337,35.976 837.48442,34.546864 C 824.98604,33.747279 785.46015,21.524159 788.72354,26.511742 C 791.28415,30.425225 808.8428,42.634931 830.32901,60.705039 C 849.20664,76.581311 871.08068,98.712133 892.65836,116.45787 C 931.24974,148.19587 971.28814,167.28033 969.03577,169.44832 C 956.29767,181.70919 920.8657,190.42557 891.44613,181.76022 C 878.81688,178.04035 870.95673,173.57557 857.1578,164.03907 C 846.4952,156.67009 831.6614,142.32297 822.86621,134.38566 C 806.17485,119.32238 790.495,106.85823 780.64232,98.232573 C 780.67374,105.00866 785.89101,112.27354 792.25907,123.99146 C 872.06113,272.98896 962.97485,424.00677 962.97485,424.00677 C 886.56099,428.21989 843.39147,350.51653 806.64114,302.61892 C 759.86674,241.65667 770.54966,254.4149 760.43927,240.66408 C 750.32888,226.91326 762.85556,249.34268 784.17785,301.27324 C 810.0074,357.62469 809.34456,400.79874 818.63174,460.13273 C 825.79224,504.41281 836.42911,556.9172 836.70579,550.78091 C 837.70427,565.5633 874.37437,660.95883 904.89108,741.19467 C 868.83437,738.28844 842.95659,717.34326 823.5738,697.75811 C 809.17922,676.43676 797.22878,654.76407 788.21846,632.0982 C 771.79835,593.86108 759.90772,557.25498 747.93897,522.29061 C 722.86437,449.04002 705.36154,384.38351 687.70829,338.64888 L 688.26936,433.75067 C 686.1418,456.47083 693.61117,560.49684 698.23938,592.33548 C 709.49272,669.75019 712.21024,715.70675 721.5484,757.86218 C 602.87609,739.39901 572.33809,502.35295 575.07628,404.81387 C 565.31147,477.76568 555.54666,548.61396 545.78185,610.88499 C 522.06544,597.6466 508.66926,584.02731 502.85037,557.3469 C 497.63125,483.57079 491.40197,420.13447 486.18285,357.84177 L 437.19045,262.88744 L 481.13209,227.5321 z"
           id="path20362"
           style="fill:none;fill-opacity:1;fill-rule:nonzero;stroke:#dcd6d6;stroke-width:5;stroke-linecap:butt;stroke-linejoin:round;marker:none;marker-start:none;marker-mid:none;marker-end:none;stroke-miterlimit:4;stroke-dashoffset:0;stroke-opacity:1;visibility:visible;display:inline;overflow:visible" />
      </g>
      <g
         id="g20364"
         style="fill:#fcef3c;fill-opacity:1;stroke:#000000;stroke-width:6;stroke-linecap:round;stroke-linejoin:round;stroke-miterlimit:4;stroke-dasharray:none;stroke-opacity:1">
        <g
           id="g20366"
           style="fill:#fcef3c;fill-opacity:1;stroke:#000000;stroke-width:6;stroke-linecap:round;stroke-linejoin:round;stroke-miterlimit:4;stroke-dasharray:none;stroke-opacity:1">
          <g
             id="g20368"
             style="fill:#fcef3c;fill-opacity:1;stroke:#000000;stroke-width:6;stroke-linecap:round;stroke-linejoin:round;stroke-miterlimit:4;stroke-dasharray:none;stroke-opacity:1">
            <path
               d="M -54.394146,887.55938 C -54.300237,886.98393 -53.49643,863.97911 -53.5109,864.17795 C -53.52537,864.37678 -83.42635,863.38675 -88.580084,864.48824 C -97.384081,866.36987 -102.4149,875.39377 -101.01525,891.24285 C -100.21008,896.4986 -99.675194,902.02462 -94.95434,903.36468 C -90.172402,881.35537 -84.363472,886.2716 -79.289977,886.34904 C -73.159213,886.44261 -54.488055,888.13483 -54.394146,887.55938 z"
               id="path20370"
               style="opacity:1;fill:#fcef3c;fill-opacity:1;fill-rule:nonzero;stroke:#000000;stroke-width:6;stroke-linecap:round;stroke-linejoin:round;marker:none;marker-start:none;marker-mid:none;marker-end:none;stroke-miterlimit:4;stroke-dasharray:none;stroke-dashoffset:0;stroke-opacity:1;visibility:visible;display:inline;overflow:visible" />
            <path
               d="M 10,792.00504 L -5.7142857,807.71932 L -21.785714,797.00504 C -27.043162,791.93823 -36.202744,790.72221 -48.214286,793.43361 C -35.924243,769.58429 -10.155701,770.84553 -3.9285715,779.50504 L 10,792.00504 z"
               id="path20372"
               style="opacity:1;fill:#fcef3c;fill-opacity:1;fill-rule:nonzero;stroke:#000000;stroke-width:6;stroke-linecap:round;stroke-linejoin:round;marker:none;marker-start:none;marker-mid:none;marker-end:none;stroke-miterlimit:4;stroke-dasharray:none;stroke-dashoffset:0;stroke-opacity:1;visibility:visible;display:inline;overflow:visible" />
            <path
               d="M 5.7142857,959.1479 C 18.717513,955.99352 10.534175,920.59187 -6.7857143,933.43361 C -24.105604,946.27535 -43.119976,955.38129 -22.5,985.21933 C -21.456816,963.66489 -7.2889414,962.30228 5.7142857,959.1479 z"
               id="path20374"
               style="opacity:1;fill:#fcef3c;fill-opacity:1;fill-rule:nonzero;stroke:#000000;stroke-width:6;stroke-linecap:round;stroke-linejoin:round;marker:none;marker-start:none;marker-mid:none;marker-end:none;stroke-miterlimit:4;stroke-dasharray:none;stroke-dashoffset:0;stroke-opacity:1;visibility:visible;display:inline;overflow:visible" />
            <path
               d="M 162.85714,879.50504 C 193.26442,862.0453 210.18788,865.77442 213.92857,890.21932 C 197.76847,882.4429 187.25206,887.20801 179.64286,898.43361"
               id="path20376"
               style="opacity:1;fill:#fcef3c;fill-opacity:1;fill-rule:nonzero;stroke:#000000;stroke-width:6;stroke-linecap:round;stroke-linejoin:round;marker:none;marker-start:none;marker-mid:none;marker-end:none;stroke-miterlimit:4;stroke-dasharray:none;stroke-dashoffset:0;stroke-opacity:1;visibility:visible;display:inline;overflow:visible" />
          </g>
          <path
             d="M 245.71429,696.6479 L 211.42857,679.50504 L 87.142857,850.21932 C 78.674948,838.004 72.269324,819.60182 65,803.79075 L 5.418419,782.7806 C -3.6423032,789.01387 -12.562027,799.75477 -20.295867,812.7806 C -14.876325,818.58313 -8.165156,820.51078 -1.4285714,822.36218 C 7.6190477,817.44014 16.666667,815.55138 25.714286,817.36218 C 36.78037,832.06189 40.250067,842.9634 46.428572,855.21932 C 29.661619,850.83723 8.9437713,842.37463 -18.239667,831.47458 C -33.226656,840.30978 -49.469411,851.76608 -68.239667,854.29583 C -66.578433,857.60916 -65.531128,860.84575 -64.942568,864.025 C -62.988482,874.58048 -66.091228,884.50385 -68.571429,894.50504 C -64.309446,903.54559 -57.775457,900.42648 -53.398114,902.06632 C -27.623274,881.02397 -26.083493,876.86796 -12.683828,876.35203 C 14.237298,877.05088 23.226962,879.74212 39.285714,881.6479 C 24.507726,897.5842 7.3937209,915.74383 -12.857143,921.6479 C -15.727932,926.32589 -15.422671,932.06256 -14.285714,938.07647 C 2.9329011,949.58389 -4.9513524,956.13427 -5.2958668,965.13267 C -3.3252068,967.78715 2.3358063,967.9814 8.2755618,967.98981 C 22.298983,946.24681 30.306303,946.56286 40.714286,938.07647 C 48.123829,929.7146 50.368554,919.41564 57.894232,913.76587 C 83.467165,894.56745 106.18954,888.19269 126.72444,890.93361 C 151.4535,900.89998 165.89596,905.96486 183.57143,906.6479 C 184.17257,903.08827 187.64356,904.2582 185.80095,895.81106 C 178.65809,894.704 171.51523,880.50776 164.37237,870.81106 C 147.16745,870.68017 128.64266,873.18901 117.85714,860.21932 L 245.71429,696.6479 z"
             id="path20378"
             style="opacity:1;fill:#fcef3c;fill-opacity:1;fill-rule:nonzero;stroke:#000000;stroke-width:6;stroke-linecap:round;stroke-linejoin:round;marker:none;marker-start:none;marker-mid:none;marker-end:none;stroke-miterlimit:4;stroke-dasharray:none;stroke-dashoffset:0;stroke-opacity:1;visibility:visible;display:inline;overflow:visible" />
        </g>
        <g
           transform="matrix(-1,0,0,1,714.467,0)"
           id="g20380"
           style="fill:#fcef3c;fill-opacity:1;stroke:#000000;stroke-width:6;stroke-linecap:round;stroke-linejoin:round;stroke-miterlimit:4;stroke-dasharray:none;stroke-opacity:1">
          <g
             id="g20382"
             style="fill:#fcef3c;fill-opacity:1;stroke:#000000;stroke-width:6;stroke-linecap:round;stroke-linejoin:round;stroke-miterlimit:4;stroke-dasharray:none;stroke-opacity:1">
            <path
               d="M -54.394146,887.55938 C -54.300237,886.98393 -53.49643,863.97911 -53.5109,864.17795 C -53.52537,864.37678 -83.42635,863.38675 -88.580084,864.48824 C -97.384081,866.36987 -102.4149,875.39377 -101.01525,891.24285 C -100.21008,896.4986 -99.675194,902.02462 -94.95434,903.36468 C -90.172402,881.35537 -84.363472,886.2716 -79.289977,886.34904 C -73.159213,886.44261 -54.488055,888.13483 -54.394146,887.55938 z"
               id="path20384"
               style="opacity:1;fill:#fcef3c;fill-opacity:1;fill-rule:nonzero;stroke:#000000;stroke-width:6;stroke-linecap:round;stroke-linejoin:round;marker:none;marker-start:none;marker-mid:none;marker-end:none;stroke-miterlimit:4;stroke-dasharray:none;stroke-dashoffset:0;stroke-opacity:1;visibility:visible;display:inline;overflow:visible" />
            <path
               d="M 10,792.00504 L -5.7142857,807.71932 L -21.785714,797.00504 C -27.043162,791.93823 -36.202744,790.72221 -48.214286,793.43361 C -35.924243,769.58429 -10.155701,770.84553 -3.9285715,779.50504 L 10,792.00504 z"
               id="path20386"
               style="opacity:1;fill:#fcef3c;fill-opacity:1;fill-rule:nonzero;stroke:#000000;stroke-width:6;stroke-linecap:round;stroke-linejoin:round;marker:none;marker-start:none;marker-mid:none;marker-end:none;stroke-miterlimit:4;stroke-dasharray:none;stroke-dashoffset:0;stroke-opacity:1;visibility:visible;display:inline;overflow:visible" />
            <path
               d="M 5.7142857,959.1479 C 18.717513,955.99352 10.534175,920.59187 -6.7857143,933.43361 C -24.105604,946.27535 -43.119976,955.38129 -22.5,985.21933 C -21.456816,963.66489 -7.2889414,962.30228 5.7142857,959.1479 z"
               id="path20388"
               style="opacity:1;fill:#fcef3c;fill-opacity:1;fill-rule:nonzero;stroke:#000000;stroke-width:6;stroke-linecap:round;stroke-linejoin:round;marker:none;marker-start:none;marker-mid:none;marker-end:none;stroke-miterlimit:4;stroke-dasharray:none;stroke-dashoffset:0;stroke-opacity:1;visibility:visible;display:inline;overflow:visible" />
            <path
               d="M 162.85714,879.50504 C 193.26442,862.0453 210.18788,865.77442 213.92857,890.21932 C 197.76847,882.4429 187.25206,887.20801 179.64286,898.43361"
               id="path20390"
               style="opacity:1;fill:#fcef3c;fill-opacity:1;fill-rule:nonzero;stroke:#000000;stroke-width:6;stroke-linecap:round;stroke-linejoin:round;marker:none;marker-start:none;marker-mid:none;marker-end:none;stroke-miterlimit:4;stroke-dasharray:none;stroke-dashoffset:0;stroke-opacity:1;visibility:visible;display:inline;overflow:visible" />
          </g>
          <path
             d="M 245.71429,696.6479 L 211.42857,679.50504 L 87.142857,850.21932 C 78.674948,838.004 72.269324,819.60182 65,803.79075 L 5.418419,782.7806 C -3.6423032,789.01387 -12.562027,799.75477 -20.295867,812.7806 C -14.876325,818.58313 -8.165156,820.51078 -1.4285714,822.36218 C 7.6190477,817.44014 16.666667,815.55138 25.714286,817.36218 C 36.78037,832.06189 40.250067,842.9634 46.428572,855.21932 C 29.661619,850.83723 8.9437713,842.37463 -18.239667,831.47458 C -33.226656,840.30978 -49.469411,851.76608 -68.239667,854.29583 C -66.578433,857.60916 -65.531128,860.84575 -64.942568,864.025 C -62.988482,874.58048 -66.091228,884.50385 -68.571429,894.50504 C -64.309446,903.54559 -57.775457,900.42648 -53.398114,902.06632 C -27.623274,881.02397 -26.083493,876.86796 -12.683828,876.35203 C 14.237298,877.05088 23.226962,879.74212 39.285714,881.6479 C 24.507726,897.5842 7.3937209,915.74383 -12.857143,921.6479 C -15.727932,926.32589 -15.422671,932.06256 -14.285714,938.07647 C 2.9329011,949.58389 -4.9513524,956.13427 -5.2958668,965.13267 C -3.3252068,967.78715 2.3358063,967.9814 8.2755618,967.98981 C 22.298983,946.24681 30.306303,946.56286 40.714286,938.07647 C 48.123829,929.7146 50.368554,919.41564 57.894232,913.76587 C 83.467165,894.56745 106.18954,888.19269 126.72444,890.93361 C 151.4535,900.89998 165.89596,905.96486 183.57143,906.6479 C 184.17257,903.08827 187.64356,904.2582 185.80095,895.81106 C 178.65809,894.704 171.51523,880.50776 164.37237,870.81106 C 147.16745,870.68017 128.64266,873.18901 117.85714,860.21932 L 245.71429,696.6479 z"
             id="path20392"
             style="opacity:1;fill:#fcef3c;fill-opacity:1;fill-rule:nonzero;stroke:#000000;stroke-width:6;stroke-linecap:round;stroke-linejoin:round;marker:none;marker-start:none;marker-mid:none;marker-end:none;stroke-miterlimit:4;stroke-dasharray:none;stroke-dashoffset:0;stroke-opacity:1;visibility:visible;display:inline;overflow:visible" />
        </g>
      </g>
      <g
         transform="matrix(-1,0,0,1,715.0713,0)"
         id="g20394"
         style="fill:#fcef3c;fill-opacity:1;stroke:#000000;stroke-width:6;stroke-miterlimit:4;stroke-dasharray:none;stroke-opacity:1">
        <path
           d="M 233.93921,227.5321 L 224.34276,220.96611 C 219.79708,223.23895 159.18792,216.9255 143.27802,211.36966 C 127.36812,205.81382 95.713418,182.99872 92.517854,180.05493 C 79.696606,168.24384 58.898753,140.52465 56.884596,137.12345 C 48.868976,123.58791 36.605028,95.411328 34.495359,80.006501 C 32.377299,64.540408 30.227592,39.618346 30.732669,38.355656 C 31.237745,37.092965 32.625283,32.503736 37.46454,31.057431 C 42.908558,29.430381 66.233038,22.380349 69.493555,19.00431 C 72.101837,16.303616 99.343768,-5.1975346 103.50698,-19.728116 C 107.07275,-32.173489 107.20839,-40.915938 107.20839,-50.007311 C 107.20839,-59.098684 107.16507,-72.952386 103.62953,-83.811526 C 100.094,-94.670666 90.035801,-104.34634 76.398742,-114.44786 C 62.761683,-124.54939 41.252613,-126.52637 41.252613,-126.52637 L -74.200644,-124.56734 C -74.317782,-124.54406 -150.83988,-126.01204 -208.80347,-150.09907 C -169.7828,-39.965783 -80.627095,-61.629084 -66.581172,-55.310614 C -188.6945,-17.366063 -245.58739,-14.683456 -257.5,-17.93497 C -257.31358,-14.61703 -242.5868,2.3152156 -225.74249,15.165694 C -212.11638,25.561014 -193.23468,32.636958 -184.26394,34.087887 C -165.45156,37.130605 -144.75207,35.976 -122.41312,34.546864 C -109.91474,33.747279 -70.388846,21.524159 -73.65224,26.511742 C -76.212846,30.425225 -93.771503,42.634931 -115.25771,60.705039 C -134.13534,76.581311 -156.00938,98.712135 -177.58706,116.45787 C -216.17844,148.19587 -256.21684,167.28033 -253.96447,169.44832 C -241.22637,181.70919 -205.7944,190.42557 -176.37483,181.76022 C -163.74558,178.04035 -155.88543,173.57557 -142.0865,164.03907 C -131.4239,156.67009 -116.5901,142.32297 -107.79491,134.38566 C -91.103548,119.32238 -75.423696,106.85823 -65.571018,98.232573 C -65.602439,105.00866 -70.819707,112.27354 -77.187774,123.99146 C -156.98983,272.98896 -247.90355,424.00677 -247.90355,424.00677 C -171.48969,428.21989 -128.32017,350.51653 -91.569842,302.61892 C -44.795436,241.65667 -55.478358,254.4149 -45.367968,240.66408 C -35.257578,226.91326 -47.784258,249.34268 -69.106553,301.27324 C -94.936102,357.62469 -94.273264,400.79874 -103.56044,460.13273 C -110.72094,504.41281 -121.35781,556.9172 -121.63449,550.78091 C -122.63297,565.5633 -159.30307,660.95883 -189.81978,741.19467 C -153.76307,738.28844 -127.88529,717.34326 -108.5025,697.75811 C -94.107916,676.43676 -82.157482,654.76407 -73.147164,632.0982 C -56.727048,593.86108 -44.836419,557.25498 -32.867672,522.29061 C -7.7930652,449.04002 9.709765,384.38351 27.363016,338.64888 L 26.801943,433.75067 C 28.929503,456.47083 21.460137,560.49684 16.831929,592.33548 C 5.5785803,669.75019 2.8610615,715.70675 -6.4770953,757.86218 C 112.19521,739.39901 142.73321,502.35295 139.99502,404.81387 C 149.75983,477.76568 159.52464,548.61396 169.28945,610.88499 C 193.00586,597.6466 206.40204,584.02731 212.22093,557.3469 C 217.44005,483.57079 223.66933,420.13447 228.88845,357.84177 L 277.88085,262.88744 L 233.93921,227.5321 z"
           id="path20396"
           style="fill:#e6e6e6;fill-opacity:1;fill-rule:nonzero;stroke:#000000;stroke-width:6;stroke-linecap:butt;stroke-linejoin:round;marker:none;marker-start:none;marker-mid:none;marker-end:none;stroke-miterlimit:4;stroke-dasharray:none;stroke-dashoffset:0;stroke-opacity:1;visibility:visible;display:inline;overflow:visible" />
        <path
           d="M 481.13209,227.5321 L 490.72854,220.96611 C 495.27422,223.23895 555.88338,216.9255 571.79328,211.36966 C 587.70318,205.81382 619.35788,182.99872 622.55345,180.05493 C 635.37469,168.24384 656.17255,140.52465 658.18671,137.12345 C 666.20233,123.58791 678.46628,95.411328 680.57595,80.006501 C 682.69401,64.540408 684.84371,39.618346 684.33864,38.355656 C 683.83356,37.092965 682.44602,32.503736 677.60676,31.057431 C 672.16275,29.430381 648.83827,22.380349 645.57775,19.00431 C 642.96946,16.303616 615.72753,-5.1975344 611.56432,-19.728116 C 607.99855,-32.173489 607.86291,-40.915938 607.86291,-50.007311 C 607.86291,-59.098684 607.90623,-72.952386 611.44177,-83.811526 C 614.9773,-94.670666 625.0355,-104.34634 638.67256,-114.44786 C 652.30962,-124.54939 673.81869,-126.52637 673.81869,-126.52637 L 789.27194,-124.56734 C 789.38908,-124.54406 865.91118,-126.01204 923.87477,-150.09907 C 884.8541,-39.965783 795.6984,-61.629084 781.65247,-55.310614 C 903.7658,-17.366063 960.65869,-14.683456 972.5713,-17.93497 C 972.38488,-14.61703 957.6581,2.3152158 940.81379,15.165694 C 927.18768,25.561014 908.30598,32.636958 899.33524,34.087887 C 880.52286,37.130605 859.82337,35.976 837.48442,34.546864 C 824.98604,33.747279 785.46015,21.524159 788.72354,26.511742 C 791.28415,30.425225 808.8428,42.634931 830.32901,60.705039 C 849.20664,76.581311 871.08068,98.712133 892.65836,116.45787 C 931.24974,148.19587 971.28814,167.28033 969.03577,169.44832 C 956.29767,181.70919 920.8657,190.42557 891.44613,181.76022 C 878.81688,178.04035 870.95673,173.57557 857.1578,164.03907 C 846.4952,156.67009 831.6614,142.32297 822.86621,134.38566 C 806.17485,119.32238 790.495,106.85823 780.64232,98.232573 C 780.67374,105.00866 785.89101,112.27354 792.25907,123.99146 C 872.06113,272.98896 962.97485,424.00677 962.97485,424.00677 C 886.56099,428.21989 843.39147,350.51653 806.64114,302.61892 C 759.86674,241.65667 770.54966,254.4149 760.43927,240.66408 C 750.32888,226.91326 762.85556,249.34268 784.17785,301.27324 C 810.0074,357.62469 809.34456,400.79874 818.63174,460.13273 C 825.79224,504.41281 836.42911,556.9172 836.70579,550.78091 C 837.70427,565.5633 874.37437,660.95883 904.89108,741.19467 C 868.83437,738.28844 842.95659,717.34326 823.5738,697.75811 C 809.17922,676.43676 797.22878,654.76407 788.21846,632.0982 C 771.79835,593.86108 759.90772,557.25498 747.93897,522.29061 C 722.86437,449.04002 705.36154,384.38351 687.70829,338.64888 L 688.26936,433.75067 C 686.1418,456.47083 693.61117,560.49684 698.23938,592.33548 C 709.49272,669.75019 712.21024,715.70675 721.5484,757.86218 C 602.87609,739.39901 572.33809,502.35295 575.07628,404.81387 C 565.31147,477.76568 555.54666,548.61396 545.78185,610.88499 C 522.06544,597.6466 508.66926,584.02731 502.85037,557.3469 C 497.63125,483.57079 491.40197,420.13447 486.18285,357.84177 L 437.19045,262.88744 L 481.13209,227.5321 z"
           id="path20398"
           style="fill:#e6e6e6;fill-opacity:1;fill-rule:nonzero;stroke:#000000;stroke-width:6;stroke-linecap:butt;stroke-linejoin:round;marker:none;marker-start:none;marker-mid:none;marker-end:none;stroke-miterlimit:4;stroke-dasharray:none;stroke-dashoffset:0;stroke-opacity:1;visibility:visible;display:inline;overflow:visible" />
        <g
           id="g20400"
           style="fill:#fcef3c;fill-opacity:1">
          <g
             id="g20402"
             style="fill:#fcef3c;fill-opacity:1;stroke:#000000;stroke-linecap:round;stroke-linejoin:round;stroke-opacity:1">
            <path
               d="M -190.71429,7.3621785 C -148.17927,11.430804 -102.74765,2.464709 -56.428572,-10.494964"
               transform="matrix(-1,0,0,1,715.0713,0)"
               id="path20404"
               style="opacity:1;fill:#fcef3c;fill-opacity:1;fill-rule:nonzero;stroke:#000000;stroke-width:6;stroke-linecap:round;stroke-linejoin:round;marker:none;marker-start:none;marker-mid:none;marker-end:none;stroke-miterlimit:4;stroke-dasharray:none;stroke-dashoffset:0;stroke-opacity:1;visibility:visible;display:inline;overflow:visible" />
            <path
               d="M -67.857143,58.79075 C -158.71649,150.45107 -174.57811,156.64886 -185,156.64789"
               transform="matrix(-1,0,0,1,715.0713,0)"
               id="path20406"
               style="opacity:1;fill:#fcef3c;fill-opacity:1;fill-rule:nonzero;stroke:#000000;stroke-width:6;stroke-linecap:round;stroke-linejoin:round;marker:none;marker-start:none;marker-mid:none;marker-end:none;stroke-miterlimit:4;stroke-dasharray:none;stroke-dashoffset:0;stroke-opacity:1;visibility:visible;display:inline;overflow:visible" />
            <path
               d="M -189.28572,376.64789 C -154.9708,325.54306 -136.44046,307.02573 -46.428572,140.93361"
               transform="matrix(-1,0,0,1,715.0713,0)"
               id="path20408"
               style="opacity:1;fill:#fcef3c;fill-opacity:1;fill-rule:nonzero;stroke:#000000;stroke-width:6;stroke-linecap:round;stroke-linejoin:round;marker:none;marker-start:none;marker-mid:none;marker-end:none;stroke-miterlimit:4;stroke-dasharray:none;stroke-dashoffset:0;stroke-opacity:1;visibility:visible;display:inline;overflow:visible" />
            <path
               d="M -112.85714,629.50504 C -76.540512,538.33051 -43.197415,392.6589 -8.5714286,269.36218"
               transform="matrix(-1,0,0,1,715.0713,0)"
               id="path20410"
               style="opacity:1;fill:#fcef3c;fill-opacity:1;fill-rule:nonzero;stroke:#000000;stroke-width:6;stroke-linecap:round;stroke-linejoin:round;marker:none;marker-start:none;marker-mid:none;marker-end:none;stroke-miterlimit:4;stroke-dasharray:none;stroke-dashoffset:0;stroke-opacity:1;visibility:visible;display:inline;overflow:visible" />
            <path
               d="M 50,649.50504 C 59.352802,607.60818 72.672253,468.5951 85.714286,328.93361"
               transform="matrix(-1,0,0,1,715.0713,0)"
               id="path20412"
               style="opacity:1;fill:#fcef3c;fill-opacity:1;fill-rule:nonzero;stroke:#000000;stroke-width:6;stroke-linecap:round;stroke-linejoin:round;marker:none;marker-start:none;marker-mid:none;marker-end:none;stroke-miterlimit:4;stroke-dasharray:none;stroke-dashoffset:0;stroke-opacity:1;visibility:visible;display:inline;overflow:visible" />
            <path
               d="M 177.85714,541.64789 L 177.85714,371.64789"
               transform="matrix(-1,0,0,1,715.0713,0)"
               id="path20414"
               style="opacity:1;fill:#fcef3c;fill-opacity:1;fill-rule:nonzero;stroke:#000000;stroke-width:6;stroke-linecap:round;stroke-linejoin:round;marker:none;marker-start:none;marker-mid:none;marker-end:none;stroke-miterlimit:4;stroke-dasharray:none;stroke-dashoffset:0;stroke-opacity:1;visibility:visible;display:inline;overflow:visible" />
            <path
               d="M 232.85714,253.07647 C 235.01678,267.13269 235.39088,265.12169 237.14286,278.07647 C 95.798353,266.70317 -8.9186586,208.50231 -0.71428572,5.933607 C -15.16068,13.159729 -29.836653,20.845007 -25.714286,-9.066393 C -44.174064,-30.856546 -30.617259,-33.436749 -11.428571,-32.637822 C -21.962937,-45.397215 -10.728497,-75.449852 8.5714286,-49.066393 C 31.56835,-63.729571 52.178435,-48.221162 29.285714,-27.637822 C 52.105236,-27.484646 64.900073,-21.762201 53.571429,-2.6378216 L 42.857143,-1.9235358 C 49.165433,17.884508 39.67366,18.732476 27.142857,15.933607 L 20,9.5050356 C 7.477443,176.25732 93.304802,242.20095 232.85714,253.07647 z"
               transform="matrix(-1,0,0,1,715.0713,0)"
               id="path20416"
               style="opacity:1;fill:#e6e6e6;fill-opacity:1;fill-rule:nonzero;stroke:#000000;stroke-width:6;stroke-linecap:round;stroke-linejoin:round;marker:none;marker-start:none;marker-mid:none;marker-end:none;stroke-miterlimit:4;stroke-dasharray:none;stroke-dashoffset:0;stroke-opacity:1;visibility:visible;display:inline;overflow:visible" />
            <path
               d="M -22.857143,62.362179 C -48.731824,74.595148 -82.895578,86.451342 -27.857143,102.36218 C -63.896888,121.8471 -67.544474,138.09281 -8.5714286,148.07646 C -18.271345,146.12545 -111.8105,190.85448 4.2857143,181.64789 C -66.847289,244.47298 -15.69542,238.10397 16.428571,221.64789 C -45.659203,267.27799 5.4053492,291.5113 47.142857,257.36218 C -7.6480499,342.8087 73.212279,335.08828 87.142857,285.21932 C 68.243789,339.58841 119.42359,393.71521 142.85714,299.50504 C 137.98222,403.23296 195.73064,373.09157 205.71429,313.07647"
               transform="matrix(-1,0,0,1,715.0713,0)"
               id="path20418"
               style="opacity:1;fill:none;fill-opacity:1;fill-rule:nonzero;stroke:#000000;stroke-width:6;stroke-linecap:round;stroke-linejoin:round;marker:none;marker-start:none;marker-mid:none;marker-end:none;stroke-miterlimit:4;stroke-dasharray:none;stroke-dashoffset:0;stroke-opacity:1;visibility:visible;display:inline;overflow:visible" />
            <path
               d="M -24.285714,84.505036 L -34.285714,84.505036"
               transform="matrix(-1,0,0,1,715.0713,0)"
               id="path20420"
               style="opacity:1;fill:#fcef3c;fill-opacity:1;fill-rule:nonzero;stroke:#000000;stroke-width:6;stroke-linecap:round;stroke-linejoin:round;marker:none;marker-start:none;marker-mid:none;marker-end:none;stroke-miterlimit:4;stroke-dasharray:none;stroke-dashoffset:0;stroke-opacity:1;visibility:visible;display:inline;overflow:visible" />
            <path
               d="M -18.571429,120.93361 L -38.571429,126.64789"
               transform="matrix(-1,0,0,1,715.0713,0)"
               id="path20422"
               style="opacity:1;fill:#fcef3c;fill-opacity:1;fill-rule:nonzero;stroke:#000000;stroke-width:6;stroke-linecap:round;stroke-linejoin:round;marker:none;marker-start:none;marker-mid:none;marker-end:none;stroke-miterlimit:4;stroke-dasharray:none;stroke-dashoffset:0;stroke-opacity:1;visibility:visible;display:inline;overflow:visible" />
            <path
               d="M -3.5714286,161.64789 L -26.428572,167.36218"
               transform="matrix(-1,0,0,1,715.0713,0)"
               id="path20424"
               style="opacity:1;fill:#fcef3c;fill-opacity:1;fill-rule:nonzero;stroke:#000000;stroke-width:6;stroke-linecap:round;stroke-linejoin:round;marker:none;marker-start:none;marker-mid:none;marker-end:none;stroke-miterlimit:4;stroke-dasharray:none;stroke-dashoffset:0;stroke-opacity:1;visibility:visible;display:inline;overflow:visible" />
            <path
               d="M 11.428571,198.79075 L -7.8571429,210.93361"
               transform="matrix(-1,0,0,1,715.0713,0)"
               id="path20426"
               style="opacity:1;fill:#fcef3c;fill-opacity:1;fill-rule:nonzero;stroke:#000000;stroke-width:6;stroke-linecap:round;stroke-linejoin:round;marker:none;marker-start:none;marker-mid:none;marker-end:none;stroke-miterlimit:4;stroke-dasharray:none;stroke-dashoffset:0;stroke-opacity:1;visibility:visible;display:inline;overflow:visible" />
            <path
               d="M 32.142857,231.64789 L 10,255.93361"
               transform="matrix(-1,0,0,1,715.0713,0)"
               id="path20428"
               style="opacity:1;fill:#fcef3c;fill-opacity:1;fill-rule:nonzero;stroke:#000000;stroke-width:6;stroke-linecap:round;stroke-linejoin:round;marker:none;marker-start:none;marker-mid:none;marker-end:none;stroke-miterlimit:4;stroke-dasharray:none;stroke-dashoffset:0;stroke-opacity:1;visibility:visible;display:inline;overflow:visible" />
            <path
               d="M 67.857143,263.79075 L 50.714286,294.50504"
               transform="matrix(-1,0,0,1,715.0713,0)"
               id="path20430"
               style="opacity:1;fill:#fcef3c;fill-opacity:1;fill-rule:nonzero;stroke:#000000;stroke-width:6;stroke-linecap:round;stroke-linejoin:round;marker:none;marker-start:none;marker-mid:none;marker-end:none;stroke-miterlimit:4;stroke-dasharray:none;stroke-dashoffset:0;stroke-opacity:1;visibility:visible;display:inline;overflow:visible" />
            <path
               d="M 119.28571,286.64789 L 105.71429,327.36218"
               transform="matrix(-1,0,0,1,715.0713,0)"
               id="path20432"
               style="opacity:1;fill:#fcef3c;fill-opacity:1;fill-rule:nonzero;stroke:#000000;stroke-width:6;stroke-linecap:round;stroke-linejoin:round;marker:none;marker-start:none;marker-mid:none;marker-end:none;stroke-miterlimit:4;stroke-dasharray:none;stroke-dashoffset:0;stroke-opacity:1;visibility:visible;display:inline;overflow:visible" />
            <path
               d="M 175,308.07647 L 167.85714,340.93361"
               transform="matrix(-1,0,0,1,715.0713,0)"
               id="path20434"
               style="opacity:1;fill:#fcef3c;fill-opacity:1;fill-rule:nonzero;stroke:#000000;stroke-width:6;stroke-linecap:round;stroke-linejoin:round;marker:none;marker-start:none;marker-mid:none;marker-end:none;stroke-miterlimit:4;stroke-dasharray:none;stroke-dashoffset:0;stroke-opacity:1;visibility:visible;display:inline;overflow:visible" />
            <path
               d="M -18.571429,-83.352108 C -64.781421,-89.951118 -121.15767,-92.31419 -146.42857,-107.63782"
               transform="matrix(-1,0,0,1,715.0713,0)"
               id="path20436"
               style="opacity:1;fill:#fcef3c;fill-opacity:1;fill-rule:nonzero;stroke:#000000;stroke-width:6;stroke-linecap:round;stroke-linejoin:round;marker:none;marker-start:none;marker-mid:none;marker-end:none;stroke-miterlimit:4;stroke-dasharray:none;stroke-dashoffset:0;stroke-opacity:1;visibility:visible;display:inline;overflow:visible" />
          </g>
          <g
             transform="matrix(-1,0,0,1,713.714,0)"
             id="g20438"
             style="fill:#fcef3c;fill-opacity:1;stroke:#000000;stroke-linecap:round;stroke-linejoin:round;stroke-opacity:1">
            <path
               d="M -190.71429,7.3621785 C -148.17927,11.430804 -102.74765,2.464709 -56.428572,-10.494964"
               transform="matrix(-1,0,0,1,715.0713,0)"
               id="path20440"
               style="opacity:1;fill:#fcef3c;fill-opacity:1;fill-rule:nonzero;stroke:#000000;stroke-width:6;stroke-linecap:round;stroke-linejoin:round;marker:none;marker-start:none;marker-mid:none;marker-end:none;stroke-miterlimit:4;stroke-dasharray:none;stroke-dashoffset:0;stroke-opacity:1;visibility:visible;display:inline;overflow:visible" />
            <path
               d="M -67.857143,58.79075 C -158.71649,150.45107 -174.57811,156.64886 -185,156.64789"
               transform="matrix(-1,0,0,1,715.0713,0)"
               id="path20442"
               style="opacity:1;fill:#fcef3c;fill-opacity:1;fill-rule:nonzero;stroke:#000000;stroke-width:6;stroke-linecap:round;stroke-linejoin:round;marker:none;marker-start:none;marker-mid:none;marker-end:none;stroke-miterlimit:4;stroke-dasharray:none;stroke-dashoffset:0;stroke-opacity:1;visibility:visible;display:inline;overflow:visible" />
            <path
               d="M -189.28572,376.64789 C -154.9708,325.54306 -136.44046,307.02573 -46.428572,140.93361"
               transform="matrix(-1,0,0,1,715.0713,0)"
               id="path20444"
               style="opacity:1;fill:#fcef3c;fill-opacity:1;fill-rule:nonzero;stroke:#000000;stroke-width:6;stroke-linecap:round;stroke-linejoin:round;marker:none;marker-start:none;marker-mid:none;marker-end:none;stroke-miterlimit:4;stroke-dasharray:none;stroke-dashoffset:0;stroke-opacity:1;visibility:visible;display:inline;overflow:visible" />
            <path
               d="M -112.85714,629.50504 C -76.540512,538.33051 -43.197415,392.6589 -8.5714286,269.36218"
               transform="matrix(-1,0,0,1,715.0713,0)"
               id="path20446"
               style="opacity:1;fill:#fcef3c;fill-opacity:1;fill-rule:nonzero;stroke:#000000;stroke-width:6;stroke-linecap:round;stroke-linejoin:round;marker:none;marker-start:none;marker-mid:none;marker-end:none;stroke-miterlimit:4;stroke-dasharray:none;stroke-dashoffset:0;stroke-opacity:1;visibility:visible;display:inline;overflow:visible" />
            <path
               d="M 50,649.50504 C 59.352802,607.60818 72.672253,468.5951 85.714286,328.93361"
               transform="matrix(-1,0,0,1,715.0713,0)"
               id="path20448"
               style="opacity:1;fill:#fcef3c;fill-opacity:1;fill-rule:nonzero;stroke:#000000;stroke-width:6;stroke-linecap:round;stroke-linejoin:round;marker:none;marker-start:none;marker-mid:none;marker-end:none;stroke-miterlimit:4;stroke-dasharray:none;stroke-dashoffset:0;stroke-opacity:1;visibility:visible;display:inline;overflow:visible" />
            <path
               d="M 177.85714,541.64789 L 177.85714,371.64789"
               transform="matrix(-1,0,0,1,715.0713,0)"
               id="path20450"
               style="opacity:1;fill:#fcef3c;fill-opacity:1;fill-rule:nonzero;stroke:#000000;stroke-width:6;stroke-linecap:round;stroke-linejoin:round;marker:none;marker-start:none;marker-mid:none;marker-end:none;stroke-miterlimit:4;stroke-dasharray:none;stroke-dashoffset:0;stroke-opacity:1;visibility:visible;display:inline;overflow:visible" />
            <path
               d="M 232.85714,253.07647 C 235.01678,267.13269 235.39088,265.12169 237.14286,278.07647 C 95.798353,266.70317 -8.9186586,208.50231 -0.71428572,5.933607 C -15.16068,13.159729 -29.836653,20.845007 -25.714286,-9.066393 C -44.174064,-30.856546 -30.617259,-33.436749 -11.428571,-32.637822 C -21.962937,-45.397215 -10.728497,-75.449852 8.5714286,-49.066393 C 31.56835,-63.729571 52.178435,-48.221162 29.285714,-27.637822 C 52.105236,-27.484646 64.900073,-21.762201 53.571429,-2.6378216 L 42.857143,-1.9235358 C 49.165433,17.884508 39.67366,18.732476 27.142857,15.933607 L 20,9.5050356 C 7.477443,176.25732 93.304802,242.20095 232.85714,253.07647 z"
               transform="matrix(-1,0,0,1,715.0713,0)"
               id="path20452"
               style="opacity:1;fill:#e6e6e6;fill-opacity:1;fill-rule:nonzero;stroke:#000000;stroke-width:6;stroke-linecap:round;stroke-linejoin:round;marker:none;marker-start:none;marker-mid:none;marker-end:none;stroke-miterlimit:4;stroke-dasharray:none;stroke-dashoffset:0;stroke-opacity:1;visibility:visible;display:inline;overflow:visible" />
            <path
               d="M -22.857143,62.362179 C -48.731824,74.595148 -82.895578,86.451342 -27.857143,102.36218 C -63.896888,121.8471 -67.544474,138.09281 -8.5714286,148.07646 C -18.271345,146.12545 -111.8105,190.85448 4.2857143,181.64789 C -66.847289,244.47298 -15.69542,238.10397 16.428571,221.64789 C -45.659203,267.27799 5.4053492,291.5113 47.142857,257.36218 C -7.6480499,342.8087 73.212279,335.08828 87.142857,285.21932 C 68.243789,339.58841 119.42359,393.71521 142.85714,299.50504 C 137.98222,403.23296 195.73064,373.09157 205.71429,313.07647"
               transform="matrix(-1,0,0,1,715.0713,0)"
               id="path20454"
               style="opacity:1;fill:none;fill-opacity:1;fill-rule:nonzero;stroke:#000000;stroke-width:6;stroke-linecap:round;stroke-linejoin:round;marker:none;marker-start:none;marker-mid:none;marker-end:none;stroke-miterlimit:4;stroke-dasharray:none;stroke-dashoffset:0;stroke-opacity:1;visibility:visible;display:inline;overflow:visible" />
            <path
               d="M -24.285714,84.505036 L -34.285714,84.505036"
               transform="matrix(-1,0,0,1,715.0713,0)"
               id="path20456"
               style="opacity:1;fill:#fcef3c;fill-opacity:1;fill-rule:nonzero;stroke:#000000;stroke-width:6;stroke-linecap:round;stroke-linejoin:round;marker:none;marker-start:none;marker-mid:none;marker-end:none;stroke-miterlimit:4;stroke-dasharray:none;stroke-dashoffset:0;stroke-opacity:1;visibility:visible;display:inline;overflow:visible" />
            <path
               d="M -18.571429,120.93361 L -38.571429,126.64789"
               transform="matrix(-1,0,0,1,715.0713,0)"
               id="path20458"
               style="opacity:1;fill:#fcef3c;fill-opacity:1;fill-rule:nonzero;stroke:#000000;stroke-width:6;stroke-linecap:round;stroke-linejoin:round;marker:none;marker-start:none;marker-mid:none;marker-end:none;stroke-miterlimit:4;stroke-dasharray:none;stroke-dashoffset:0;stroke-opacity:1;visibility:visible;display:inline;overflow:visible" />
            <path
               d="M -3.5714286,161.64789 L -26.428572,167.36218"
               transform="matrix(-1,0,0,1,715.0713,0)"
               id="path20460"
               style="opacity:1;fill:#fcef3c;fill-opacity:1;fill-rule:nonzero;stroke:#000000;stroke-width:6;stroke-linecap:round;stroke-linejoin:round;marker:none;marker-start:none;marker-mid:none;marker-end:none;stroke-miterlimit:4;stroke-dasharray:none;stroke-dashoffset:0;stroke-opacity:1;visibility:visible;display:inline;overflow:visible" />
            <path
               d="M 11.428571,198.79075 L -7.8571429,210.93361"
               transform="matrix(-1,0,0,1,715.0713,0)"
               id="path20462"
               style="opacity:1;fill:#fcef3c;fill-opacity:1;fill-rule:nonzero;stroke:#000000;stroke-width:6;stroke-linecap:round;stroke-linejoin:round;marker:none;marker-start:none;marker-mid:none;marker-end:none;stroke-miterlimit:4;stroke-dasharray:none;stroke-dashoffset:0;stroke-opacity:1;visibility:visible;display:inline;overflow:visible" />
            <path
               d="M 32.142857,231.64789 L 10,255.93361"
               transform="matrix(-1,0,0,1,715.0713,0)"
               id="path20464"
               style="opacity:1;fill:#fcef3c;fill-opacity:1;fill-rule:nonzero;stroke:#000000;stroke-width:6;stroke-linecap:round;stroke-linejoin:round;marker:none;marker-start:none;marker-mid:none;marker-end:none;stroke-miterlimit:4;stroke-dasharray:none;stroke-dashoffset:0;stroke-opacity:1;visibility:visible;display:inline;overflow:visible" />
            <path
               d="M 67.857143,263.79075 L 50.714286,294.50504"
               transform="matrix(-1,0,0,1,715.0713,0)"
               id="path20466"
               style="opacity:1;fill:#fcef3c;fill-opacity:1;fill-rule:nonzero;stroke:#000000;stroke-width:6;stroke-linecap:round;stroke-linejoin:round;marker:none;marker-start:none;marker-mid:none;marker-end:none;stroke-miterlimit:4;stroke-dasharray:none;stroke-dashoffset:0;stroke-opacity:1;visibility:visible;display:inline;overflow:visible" />
            <path
               d="M 119.28571,286.64789 L 105.71429,327.36218"
               transform="matrix(-1,0,0,1,715.0713,0)"
               id="path20468"
               style="opacity:1;fill:#fcef3c;fill-opacity:1;fill-rule:nonzero;stroke:#000000;stroke-width:6;stroke-linecap:round;stroke-linejoin:round;marker:none;marker-start:none;marker-mid:none;marker-end:none;stroke-miterlimit:4;stroke-dasharray:none;stroke-dashoffset:0;stroke-opacity:1;visibility:visible;display:inline;overflow:visible" />
            <path
               d="M 175,308.07647 L 167.85714,340.93361"
               transform="matrix(-1,0,0,1,715.0713,0)"
               id="path20470"
               style="opacity:1;fill:#fcef3c;fill-opacity:1;fill-rule:nonzero;stroke:#000000;stroke-width:6;stroke-linecap:round;stroke-linejoin:round;marker:none;marker-start:none;marker-mid:none;marker-end:none;stroke-miterlimit:4;stroke-dasharray:none;stroke-dashoffset:0;stroke-opacity:1;visibility:visible;display:inline;overflow:visible" />
            <path
               d="M 732.21413,-83.352108 C 778.42412,-89.951118 834.80037,-92.31419 860.07127,-107.63782"
               id="path20472"
               style="opacity:1;fill:#fcef3c;fill-opacity:1;fill-rule:nonzero;stroke:#000000;stroke-width:6;stroke-linecap:round;stroke-linejoin:round;marker:none;marker-start:none;marker-mid:none;marker-end:none;stroke-miterlimit:4;stroke-dasharray:none;stroke-dashoffset:0;stroke-opacity:1;visibility:visible;display:inline;overflow:visible" />
          </g>
        </g>
      </g>
      <g
         id="g20474">
        <g
           id="g20476"
           style="fill:#fcef3c;fill-opacity:1;display:inline">
          <path
             d="M 363.65492,-39.107647 C 373.15482,-35.998769 377.97992,-70.072359 353.04832,-63.351308 C 281.31571,-39.664926 234.19909,-27.702227 227.7894,-72.947757 C 224.36468,-85.319199 202.17378,-92.424503 208.09143,-67.896994 C 240.4259,8.4771732 297.61129,-55.230971 363.65492,-39.107647 z"
             id="path20478"
             style="opacity:1;fill:#fcef3c;fill-opacity:1;fill-rule:nonzero;stroke:#000000;stroke-width:6;stroke-linecap:butt;stroke-linejoin:round;marker:none;marker-start:none;marker-mid:none;marker-end:none;stroke-miterlimit:4;stroke-dasharray:none;stroke-dashoffset:0;stroke-opacity:1;visibility:visible;display:inline;overflow:visible" />
          <path
             d="M 419.71838,-92.645731 L 380.82751,16.450744 C 320.54656,-11.793896 283.3614,-19.107977 266.1752,-8.2979936 C 276.88758,-22.114947 290.67739,-48.29773 365.17015,-17.894443 C 353.87958,-51.342487 268.41922,-86.966752 252.53814,-50.219324 C 230.4668,-102.25242 253.56463,-125.97052 321.73359,-121.43508 L 419.71838,-92.645731 z"
             id="path20480"
             style="opacity:1;fill:#fcef3c;fill-opacity:1;fill-rule:nonzero;stroke:#000000;stroke-width:6;stroke-linecap:round;stroke-linejoin:round;marker:none;marker-start:none;marker-mid:none;marker-end:none;stroke-miterlimit:4;stroke-dasharray:none;stroke-dashoffset:0;stroke-opacity:1;visibility:visible;display:inline;overflow:visible" />
        </g>
        <path
           d="M 259.10413,190.70206 C 194.46038,211.34605 245.5946,201.43752 242.14286,205.93361 C 201.76611,218.86482 227.85225,365.6546 256.42857,568.07647 C 250.95238,591.03229 245.47619,602.68814 240,614.50504 C 230.62803,626.82988 211.89124,651.44535 184.28571,673.07647 L 195,678.79075 L 180,694.50504 C 204.22528,710.92938 241.94369,701.71678 249.28571,750.21932 C 250.52438,710.48512 257.9778,733.41474 266.42857,742.36218 C 267.79103,684.86223 291.80956,664.1432 311.42857,639.50504 C 312.95904,668.80083 327.63794,722.14498 284.28572,770.21932 C 250.39016,786.46775 215.71198,781.58558 183.57143,845.21932 C 205.71968,839.50655 202.68922,826.74374 267.85714,833.07647 L 309.28572,808.79075 C 300.73687,838.94341 319.17751,865.95403 210.71429,915.93361 C 134.02995,933.46153 80.269592,966.27209 55,1018.0765 C 96.873832,997.27134 141.14578,983.97988 197.85714,973.07647 C 257.80293,939.81817 271.08355,918.69372 301.42857,888.07647 C 292.80628,911.30764 288.10966,931.39827 270.71429,961.6479 C 234.22392,998.13936 183.96936,1016.4424 197.85714,1119.505 C 243.81058,1045.8094 278.08477,1056.4652 327.14286,882.36218 C 335.72031,920.44238 344.81494,957.22961 338.57143,1032.3622 C 327.38249,1068.1711 328.80619,1098.9349 291.42857,1145.2193 L 325.71429,1136.6479 L 357.53565,1232.6479 L 389.35701,1136.6479 L 423.64273,1145.2193 C 386.26511,1098.9349 387.68881,1068.1711 376.49987,1032.3622 C 370.25636,957.22961 379.35099,920.44238 387.92844,882.36218 C 436.98653,1056.4652 471.26072,1045.8094 517.21416,1119.505 C 531.10194,1016.4424 480.84738,998.13936 444.35701,961.6479 C 426.96164,931.39827 422.26502,911.30764 413.64273,888.07647 C 443.98775,918.69372 457.26837,939.81817 517.21416,973.07647 C 573.92552,983.97988 618.19747,997.27134 660.0713,1018.0765 C 634.80171,966.27209 581.04135,933.46153 504.35701,915.93361 C 395.89379,865.95403 414.33443,838.94341 405.78558,808.79075 L 447.21416,833.07647 C 512.38208,826.74374 509.35162,839.50655 531.49987,845.21932 C 499.35932,781.58558 464.68114,786.46775 430.78558,770.21932 C 387.43336,722.14498 402.11226,668.80083 403.64273,639.50504 C 423.26174,664.1432 447.28027,684.86223 448.64273,742.36218 C 457.0935,733.41474 464.54692,710.48512 465.78559,750.21932 C 473.12761,701.71678 510.84602,710.92938 535.0713,694.50504 L 520.0713,678.79075 L 530.78559,673.07647 C 503.18006,651.44535 484.44327,626.82988 475.0713,614.50504 C 469.59511,602.68814 464.11892,591.03229 458.64273,568.07647 C 487.21905,365.6546 513.30519,218.86482 472.92844,205.93361 C 464.08588,201.20129 481.69852,209.2373 460.71622,199.58422 C 507.26014,208.91643 486.29111,204.34108 471.74124,193.22744 C 428.60256,150.82479 463.20475,174.42884 475.48599,176.02947 C 444.39585,121.82785 460.3596,91.39045 466.69048,70.493905 L 476.28693,96.757871 L 487.69447,46.127692 L 509.11688,65.443142 C 504.7913,42.980136 500.9414,19.701682 490.15858,8.3082474 C 508.14316,12.392592 520.90925,12.138008 523.11348,11.06064 C 527.79438,8.7727415 504.17877,-1.1680484 503.29056,-17.450643 C 518.62957,-15.718872 526.00561,-18.266758 537.69151,-31.259336 C 541.26078,-35.227711 521.0225,-27.011493 521.89173,-29.597855 C 477.26413,-71.105637 518.44165,-51.264937 520.11652,-59.519907 C 456.87236,-94.097171 505.86701,-82.830414 502.73473,-92.854941 C 455.73241,-113.63581 473.29127,-102.65439 492.48526,-129.0725 C 481.71629,-126.00521 466.35548,-121.7146 446.48743,-124.97061 C 446.6374,-128.95561 411.13076,-138.63738 355.71289,-139.7496 C 336.35456,-140.13812 323.52276,-138.6325 322.23866,-119.41477 C 393.37547,-35.909593 392.78069,-3.1878423 356.58385,4.3289132 C 365.16921,21.467992 371.24034,31.477498 368.65582,36.848686 C 364.30537,45.889855 341.02787,53.764243 290.26041,82.467802 C 314.1616,90.768128 366.21377,63.967769 290.48014,113.6346 C 240.97801,137.03595 279.55191,127.79402 295.9747,127.06245 C 283.82518,145.10493 269.99875,162.99497 247.48737,180.09546 L 259.10413,190.70206 z"
           id="path20482"
           style="fill:#e6e6e6;fill-opacity:1;fill-rule:nonzero;stroke:#000000;stroke-width:6;stroke-linecap:butt;stroke-linejoin:round;marker:none;marker-start:none;marker-mid:none;marker-end:none;stroke-miterlimit:4;stroke-dasharray:none;stroke-dashoffset:0;stroke-opacity:1;visibility:visible;display:inline;overflow:visible" />
        <g
           id="g20484">
          <path
             d="M 382.32141,-97.459259 L 405.26538,-95.76283 L 405.35716,-74.602108 L 382.32141,-74.602108 L 382.32141,-97.459259 z"
             id="path20486"
             style="fill:#ffffff;fill-opacity:1;fill-rule:nonzero;stroke:none;stroke-width:8;stroke-linejoin:round;stroke-miterlimit:4;stroke-opacity:1" />
          <path
             d="M 374.56431,-121.62601 C 373.40952,-121.27867 371.90326,-122.90695 371.24107,-125.33482 C 370.74706,-120.17312 370.47514,-114.70051 371.16059,-107.88757 C 372.44771,-104.15761 374.12554,-101.40446 375.88393,-98.852679 C 375.28105,-95.290109 373.88488,-90.100182 373.86346,-87.280896 C 373.80889,-80.098555 376.79439,-77.027601 381.09375,-72.15625 C 387.2114,-65.224694 394.97784,-66.046832 408.35866,-68.038281 C 409.13935,-68.154471 410.73599,-64.899245 411.15625,-64.763393 C 412.15671,-64.43998 414.31214,-62.362908 414.76513,-64.594451 C 414.93635,-65.437872 414.71094,-67.122935 415.34702,-68.247634 C 416.61615,-70.491638 416.75493,-75.307424 416.77232,-75.651786 C 416.99118,-80.271496 417.77294,-77.263838 415.9277,-80.270843 C 413.84804,-83.659861 408.93819,-92.927569 405.75,-95.90625 C 400.62918,-100.69056 386.34004,-107.88986 378.27005,-108.68453 C 377.28404,-108.78162 377.39444,-111.0542 376.54992,-111.40805 C 373.66752,-112.61576 375.0579,-118.96831 374.56431,-121.62601 z M 385.08929,-96.830357 C 390.66244,-95.181981 394.40136,-93.862004 397.70001,-91.688477 C 398.53494,-91.138328 399.5088,-90.784192 400.28125,-90.0625 C 400.52191,-89.837653 400.15304,-89.379169 399.89169,-89.225593 C 399.27735,-88.864586 398.03509,-87.80424 395.28844,-88.818922 C 394.20881,-89.217764 396.17705,-92.03807 395.92952,-92.595357 C 394.99162,-94.706878 390.45165,-97.507888 389.13174,-95.191665 C 383.33822,-85.025012 389.56747,-80.078758 395.31254,-80.753465 C 397.38152,-80.996448 402.26728,-83.5168 403.74336,-82.702634 C 406.33267,-81.274438 404.67806,-78.188426 404.80804,-78.196429 C 395.5454,-75.21121 393.31211,-73.926428 388.12054,-78.049107 C 384.54018,-80.892298 380.73988,-81.97701 385.08929,-96.830357 z"
             id="path20488"
             style="fill:#000000;fill-opacity:1;fill-rule:nonzero;stroke:none;stroke-width:8;stroke-linecap:butt;stroke-linejoin:round;marker:none;stroke-miterlimit:4;stroke-dashoffset:0;stroke-opacity:1;visibility:visible;display:inline;overflow:visible" />
        </g>
      </g>
    </g>
  </g>
  <g
     id="layer4" />
  <g
     id="layer2">
    <path
       d="M 300.00001,658.5 C 300.00001,658.5 598.50001,546.17969 598.50001,260.72817 C 598.50001,-24.723334 598.50001,2.1764865 598.50001,2.1764865 L 1.5,2.1764865 L 1.5,260.72817 C 1.5,546.17969 300.00001,658.5 300.00001,658.5 z"
       id="path2875"
       style="opacity:1;fill:url(#radialGradient3163);fill-opacity:1;fill-rule:evenodd;stroke:none;stroke-width:1px;stroke-linecap:butt;stroke-linejoin:miter;stroke-opacity:1" />
  </g>
  <g
     id="layer1">
    <path
       d="M 299.99999,658.50028 C 299.99999,658.50028 1.5,546.17992 1.5,260.72828 C 1.5,-24.723336 1.5,2.1764957 1.5,2.1764957 L 598.49999,2.1764957 L 598.49999,260.72828 C 598.49999,546.17992 299.99999,658.50028 299.99999,658.50028 z"
       id="path1411"
       style="opacity:1;fill:none;fill-opacity:1;fill-rule:evenodd;stroke:#000000;stroke-width:3.00000048;stroke-linecap:butt;stroke-linejoin:miter;stroke-miterlimit:4;stroke-dasharray:none;stroke-opacity:1" />
  </g>
</svg>
