<?xml version="1.0" encoding="UTF-8" standalone="no"?>
<!-- Created with Sodipodi ("http://www.sodipodi.com/") -->
<svg
   xmlns:dc="http://purl.org/dc/elements/1.1/"
   xmlns:cc="http://web.resource.org/cc/"
   xmlns:rdf="http://www.w3.org/1999/02/22-rdf-syntax-ns#"
   xmlns:svg="http://www.w3.org/2000/svg"
   xmlns="http://www.w3.org/2000/svg"
   xmlns:sodipodi="http://inkscape.sourceforge.net/DTD/sodipodi-0.dtd"
   xmlns:inkscape="http://www.inkscape.org/namespaces/inkscape"
   height="200"
   id="svg1350"
   sodipodi:docbase="C:\Documents and Settings\empresa\Escritorio"
   sodipodi:docname="Midi-Pyrénées_flag.svg"
   sodipodi:version="0.32"
   width="200"
   inkscape:version="0.43"
   version="1.0">
  <metadata
     id="metadata3">
    <rdf:RDF>
      <cc:Work
         rdf:about="">
        <dc:title>France - Midi Pyrenee</dc:title>
        <dc:description />
        <dc:subject>
          <rdf:Bag>
            <rdf:li />
            <rdf:li>europe</rdf:li>
            <rdf:li>france</rdf:li>
            <rdf:li>flag</rdf:li>
            <rdf:li>sign</rdf:li>
            <rdf:li>subnational</rdf:li>
          </rdf:Bag>
        </dc:subject>
        <dc:publisher>
          <cc:Agent
             rdf:about="http://www.openclipart.org">
            <dc:title>Patricia Fidi</dc:title>
          </cc:Agent>
        </dc:publisher>
        <dc:creator>
          <cc:Agent>
            <dc:title>Patricia Fidi</dc:title>
          </cc:Agent>
        </dc:creator>
        <dc:rights>
          <cc:Agent>
            <dc:title>Patricia Fidi</dc:title>
          </cc:Agent>
        </dc:rights>
        <dc:date />
        <dc:format>image/svg+xml</dc:format>
        <dc:type
           rdf:resource="http://purl.org/dc/dcmitype/StillImage" />
        <cc:license
           rdf:resource="http://web.resource.org/cc/PublicDomain" />
        <dc:language>en</dc:language>
      </cc:Work>
      <cc:License
         rdf:about="http://web.resource.org/cc/PublicDomain">
        <cc:permits
           rdf:resource="http://web.resource.org/cc/Reproduction" />
        <cc:permits
           rdf:resource="http://web.resource.org/cc/Distribution" />
        <cc:permits
           rdf:resource="http://web.resource.org/cc/DerivativeWorks" />
      </cc:License>
    </rdf:RDF>
  </metadata>
  <defs
     id="defs1352">
    <defs
       id="defs5117" />
    <sodipodi:namedview
       id="namedview5116" />
  </defs>
  <sodipodi:namedview
     bordercolor="#000000"
     borderlayer="top"
     borderopacity="1"
     id="base"
     showgrid="false"
     inkscape:zoom="1.4142136"
     inkscape:cx="-72.712113"
     inkscape:cy="133.16658"
     inkscape:window-width="1280"
     inkscape:window-height="964"
     inkscape:window-x="-4"
     inkscape:window-y="-4"
     inkscape:current-layer="svg1350" />
  <g
     id="g4094"
     transform="translate(0,-16.14172)">
    <path
       style="font-size:12px;fill:none;fill-opacity:1;fill-rule:evenodd;stroke:#000000;stroke-width:8.91590691;stroke-opacity:1"
       sodipodi:nodetypes="ccccc"
       id="path2640"
       d="M 90.866444,120.71376 C 92.420972,139.97035 82.545225,162.99398 70.25029,178.96257 C 82.014125,182.61417 91.818718,188.11963 100.02986,196.67662 C 108.81569,186.97871 119.31198,181.84901 129.61783,178.70744 C 115.97736,161.49444 108.7285,138.49127 109.13345,120.59957" />
    <path
       style="font-size:12px;fill:none;fill-opacity:1;fill-rule:evenodd;stroke:#000000;stroke-width:8.91590691;stroke-opacity:1"
       sodipodi:nodetypes="ccccc"
       id="path3131"
       d="M 90.866444,111.56954 C 92.420972,92.31295 82.545225,69.28932 70.25029,53.32073 C 82.014125,49.66913 91.818718,44.16367 100.02986,35.60668 C 108.81569,45.30459 119.31198,50.43429 129.61783,53.57586 C 115.97736,70.78886 108.7285,93.79203 109.13345,111.68373" />
    <path
       style="font-size:12px;fill:none;fill-opacity:1;fill-rule:evenodd;stroke:#000000;stroke-width:8.91590691;stroke-opacity:1"
       sodipodi:nodetypes="ccccc"
       id="path3141"
       d="M 104.57217,125.27526 C 123.82876,123.72073 146.85239,133.59648 162.82098,145.89141 C 166.47258,134.12757 171.97804,124.32298 180.53503,116.11184 C 170.83712,107.32601 165.70742,96.82972 162.56585,86.52387 C 145.35285,100.16434 122.34968,107.4132 104.45798,107.00825" />
    <path
       style="font-size:12px;fill:none;fill-opacity:1;fill-rule:evenodd;stroke:#000000;stroke-width:8.91590691;stroke-opacity:1"
       sodipodi:nodetypes="ccccc"
       id="path3151"
       d="M 95.42794,125.27526 C 76.17135,123.72073 53.14772,133.59648 37.17913,145.89141 C 33.52753,134.12757 28.02207,124.32298 19.46508,116.11184 C 29.16299,107.32601 34.29269,96.82972 37.43426,86.52387 C 54.64726,100.16434 77.65043,107.4132 95.54213,107.00825" />
    <g
       style="fill:#000000;fill-opacity:1"
       id="g4080">
      <path
         d="M 259.01823 67.001144 A 7.5205154 7.5205135 0 1 1  243.9772,67.001144 A 7.5205154 7.5205135 0 1 1  259.01823 67.001144 z"
         id="path3115"
         sodipodi:cx="251.49771"
         sodipodi:cy="67.001144"
         sodipodi:rx="7.5205154"
         sodipodi:ry="7.5205135"
         sodipodi:type="arc"
         style="font-size:12px;fill:#000000;fill-opacity:1;fill-rule:evenodd;stroke-width:1"
         transform="matrix(6.106332e-17,-0.990065,0.997272,6.062195e-17,33.18163,457.695)" />
      <path
         d="M 259.01823 67.001144 A 7.5205154 7.5205135 0 1 1  243.9772,67.001144 A 7.5205154 7.5205135 0 1 1  259.01823 67.001144 z"
         id="path3119"
         sodipodi:cx="251.49771"
         sodipodi:cy="67.001144"
         sodipodi:rx="7.5205154"
         sodipodi:ry="7.5205135"
         sodipodi:type="arc"
         style="font-size:12px;fill:#000000;fill-opacity:1;fill-rule:evenodd;stroke-width:1"
         transform="matrix(6.106332e-17,-0.997272,0.997272,6.106324e-17,-9.318368,434.4533)" />
      <path
         d="M 259.01823 67.001144 A 7.5205154 7.5205135 0 1 1  243.9772,67.001144 A 7.5205154 7.5205135 0 1 1  259.01823 67.001144 z"
         id="path3121"
         sodipodi:cx="251.49771"
         sodipodi:cy="67.001144"
         sodipodi:rx="7.5205154"
         sodipodi:ry="7.5205135"
         sodipodi:type="arc"
         style="font-size:12px;fill:#000000;fill-opacity:1;fill-rule:evenodd;stroke-width:1"
         transform="matrix(6.106332e-17,-0.997272,0.997272,6.106324e-17,75.68163,434.4533)" />
      <path
         d="M 259.01823 67.001144 A 7.5205154 7.5205135 0 1 1  243.9772,67.001144 A 7.5205154 7.5205135 0 1 1  259.01823 67.001144 z"
         id="path3133"
         sodipodi:cx="251.49771"
         sodipodi:cy="67.001144"
         sodipodi:rx="7.5205154"
         sodipodi:ry="7.5205135"
         sodipodi:type="arc"
         style="font-size:12px;fill:#000000;fill-opacity:1;fill-rule:evenodd;stroke-width:1"
         transform="matrix(6.106332e-17,0.990065,0.997272,-6.062195e-17,33.18163,-225.4117)" />
      <path
         d="M 259.01823 67.001144 A 7.5205154 7.5205135 0 1 1  243.9772,67.001144 A 7.5205154 7.5205135 0 1 1  259.01823 67.001144 z"
         id="path3135"
         sodipodi:cx="251.49771"
         sodipodi:cy="67.001144"
         sodipodi:rx="7.5205154"
         sodipodi:ry="7.5205135"
         sodipodi:type="arc"
         style="font-size:12px;fill:#000000;fill-opacity:1;fill-rule:evenodd;stroke-width:1"
         transform="matrix(6.106332e-17,0.997272,0.997272,-6.106324e-17,-9.318368,-202.17)" />
      <path
         d="M 259.01823 67.001144 A 7.5205154 7.5205135 0 1 1  243.9772,67.001144 A 7.5205154 7.5205135 0 1 1  259.01823 67.001144 z"
         id="path3137"
         sodipodi:cx="251.49771"
         sodipodi:cy="67.001144"
         sodipodi:rx="7.5205154"
         sodipodi:ry="7.5205135"
         sodipodi:type="arc"
         style="font-size:12px;fill:#000000;fill-opacity:1;fill-rule:evenodd;stroke-width:1"
         transform="matrix(6.106332e-17,0.997272,0.997272,-6.106324e-17,75.68163,-202.17)" />
      <path
         d="M 259.01823 67.001144 A 7.5205154 7.5205135 0 1 1  243.9772,67.001144 A 7.5205154 7.5205135 0 1 1  259.01823 67.001144 z"
         id="path3143"
         sodipodi:cx="251.49771"
         sodipodi:cy="67.001144"
         sodipodi:rx="7.5205154"
         sodipodi:ry="7.5205135"
         sodipodi:type="arc"
         style="font-size:12px;fill:#000000;fill-opacity:1;fill-rule:evenodd;stroke-width:1"
         transform="matrix(-0.990065,-6.106332e-17,6.062195e-17,-0.997272,441.5534,182.9601)" />
      <path
         d="M 259.01823 67.001144 A 7.5205154 7.5205135 0 1 1  243.9772,67.001144 A 7.5205154 7.5205135 0 1 1  259.01823 67.001144 z"
         id="path3145"
         sodipodi:cx="251.49771"
         sodipodi:cy="67.001144"
         sodipodi:rx="7.5205154"
         sodipodi:ry="7.5205135"
         sodipodi:type="arc"
         style="font-size:12px;fill:#000000;fill-opacity:1;fill-rule:evenodd;stroke-width:1"
         transform="matrix(-0.997272,-6.106332e-17,6.106324e-17,-0.997272,418.3117,225.4601)" />
      <path
         d="M 259.01823 67.001144 A 7.5205154 7.5205135 0 1 1  243.9772,67.001144 A 7.5205154 7.5205135 0 1 1  259.01823 67.001144 z"
         id="path3147"
         sodipodi:cx="251.49771"
         sodipodi:cy="67.001144"
         sodipodi:rx="7.5205154"
         sodipodi:ry="7.5205135"
         sodipodi:type="arc"
         style="font-size:12px;fill:#000000;fill-opacity:1;fill-rule:evenodd;stroke-width:1"
         transform="matrix(-0.997272,-6.106332e-17,6.106324e-17,-0.997272,418.3117,140.4601)" />
      <path
         d="M 259.01823 67.001144 A 7.5205154 7.5205135 0 1 1  243.9772,67.001144 A 7.5205154 7.5205135 0 1 1  259.01823 67.001144 z"
         id="path3153"
         sodipodi:cx="251.49771"
         sodipodi:cy="67.001144"
         sodipodi:rx="7.5205154"
         sodipodi:ry="7.5205135"
         sodipodi:type="arc"
         style="font-size:12px;fill:#000000;fill-opacity:1;fill-rule:evenodd;stroke-width:1"
         transform="matrix(0.990065,-6.106332e-17,-6.062195e-17,-0.997272,-241.5533,182.9601)" />
      <path
         d="M 259.01823 67.001144 A 7.5205154 7.5205135 0 1 1  243.9772,67.001144 A 7.5205154 7.5205135 0 1 1  259.01823 67.001144 z"
         id="path3155"
         sodipodi:cx="251.49771"
         sodipodi:cy="67.001144"
         sodipodi:rx="7.5205154"
         sodipodi:ry="7.5205135"
         sodipodi:type="arc"
         style="font-size:12px;fill:#000000;fill-opacity:1;fill-rule:evenodd;stroke-width:1"
         transform="matrix(0.997272,-6.106332e-17,-6.106324e-17,-0.997272,-218.3116,225.4601)" />
      <path
         d="M 259.01823 67.001144 A 7.5205154 7.5205135 0 1 1  243.9772,67.001144 A 7.5205154 7.5205135 0 1 1  259.01823 67.001144 z"
         id="path3157"
         sodipodi:cx="251.49771"
         sodipodi:cy="67.001144"
         sodipodi:rx="7.5205154"
         sodipodi:ry="7.5205135"
         sodipodi:type="arc"
         style="font-size:12px;fill:#000000;fill-opacity:1;fill-rule:evenodd;stroke-width:1"
         transform="matrix(0.997272,-6.106332e-17,-6.106324e-17,-0.997272,-218.3116,140.4601)" />
    </g>
  </g>
</svg>
