<?xml version="1.0" encoding="UTF-8" standalone="no"?>
<svg
   xmlns:dc="http://purl.org/dc/elements/1.1/"
   xmlns:cc="http://creativecommons.org/ns#"
   xmlns:rdf="http://www.w3.org/1999/02/22-rdf-syntax-ns#"
   xmlns:svg="http://www.w3.org/2000/svg"
   xmlns="http://www.w3.org/2000/svg"
   xmlns:xlink="http://www.w3.org/1999/xlink"
   xmlns:sodipodi="http://sodipodi.sourceforge.net/DTD/sodipodi-0.dtd"
   xmlns:inkscape="http://www.inkscape.org/namespaces/inkscape"
   height="660"
   width="600"
   version="1.0"
   id="svg2"
   sodipodi:version="0.32"
   inkscape:version="0.47 r22583"
   sodipodi:docname="COA_fr_BRE.svg"
   inkscape:export-filename="/Users/olivier/Desktop/Blason Rouge/Blason_Vide_3D.png"
   inkscape:export-xdpi="144"
   inkscape:export-ydpi="144"
   inkscape:output_extension="org.inkscape.output.svg.inkscape">
  <metadata
     id="metadata49">
    <rdf:RDF>
      <cc:Work
         rdf:about="">
        <dc:format>image/svg+xml</dc:format>
        <dc:type
           rdf:resource="http://purl.org/dc/dcmitype/StillImage" />
        <dc:title>Gabarit d'un blason en pointe pour le projet Blasons de Wikipédia</dc:title>
        <dc:date>03-AUG-2006</dc:date>
        <dc:creator>
          <cc:Agent>
            <dc:title>Jérôme BLUM (wagner51)</dc:title>
          </cc:Agent>
        </dc:creator>
        <cc:license
           rdf:resource="http://web.resource.org/cc/PublicDomain" />
        <dc:language>fr</dc:language>
        <dc:subject>
          <rdf:Bag>
            <rdf:li>gabarit modèle blason projet wikipédia</rdf:li>
          </rdf:Bag>
        </dc:subject>
      </cc:Work>
      <cc:License
         rdf:about="http://web.resource.org/cc/PublicDomain">
        <cc:permits
           rdf:resource="http://web.resource.org/cc/Reproduction" />
        <cc:permits
           rdf:resource="http://web.resource.org/cc/Distribution" />
        <cc:permits
           rdf:resource="http://web.resource.org/cc/DerivativeWorks" />
      </cc:License>
    </rdf:RDF>
  </metadata>
  <sodipodi:namedview
     inkscape:window-height="742"
     inkscape:window-width="1024"
     inkscape:pageshadow="2"
     inkscape:pageopacity="0.0"
     guidetolerance="10.0"
     gridtolerance="10.0"
     objecttolerance="10.0"
     borderopacity="1.0"
     bordercolor="#666666"
     pagecolor="#ffffff"
     id="base"
     showgrid="false"
     height="660px"
     inkscape:zoom="1.1575757"
     inkscape:cx="62.072149"
     inkscape:cy="136.84259"
     inkscape:window-x="-4"
     inkscape:window-y="-4"
     inkscape:current-layer="layer2"
     inkscape:window-maximized="1" />
  <desc
     id="desc4">Flag of Canton of Valais (Wallis)</desc>
  <defs
     id="defs6">
    <inkscape:perspective
       sodipodi:type="inkscape:persp3d"
       inkscape:vp_x="0 : 330 : 1"
       inkscape:vp_y="0 : 1000 : 0"
       inkscape:vp_z="600 : 330 : 1"
       inkscape:persp3d-origin="300 : 220 : 1"
       id="perspective78" />
    <linearGradient
       id="linearGradient2893">
      <stop
         style="stop-color:white;stop-opacity:0.3137255;"
         offset="0"
         id="stop2895" />
      <stop
         id="stop2897"
         offset="0.19"
         style="stop-color:white;stop-opacity:0.25098041;" />
      <stop
         style="stop-color:#6b6b6b;stop-opacity:0.1254902;"
         offset="0.60000002"
         id="stop2901" />
      <stop
         style="stop-color:black;stop-opacity:0.1254902;"
         offset="1"
         id="stop2899" />
    </linearGradient>
    <linearGradient
       id="linearGradient2885">
      <stop
         id="stop2887"
         offset="0"
         style="stop-color:white;stop-opacity:1;" />
      <stop
         style="stop-color:white;stop-opacity:1;"
         offset="0.22857143"
         id="stop2891" />
      <stop
         id="stop2889"
         offset="1"
         style="stop-color:black;stop-opacity:1;" />
    </linearGradient>
    <linearGradient
       id="linearGradient2955">
      <stop
         id="stop2867"
         offset="0"
         style="stop-color:#fd0000;stop-opacity:1;" />
      <stop
         style="stop-color:#e77275;stop-opacity:0.65882355;"
         offset="0.5"
         id="stop2873" />
      <stop
         style="stop-color:black;stop-opacity:0.32291666;"
         offset="1"
         id="stop2959" />
    </linearGradient>
    <radialGradient
       inkscape:collect="always"
       xlink:href="#linearGradient2955"
       id="radialGradient2961"
       cx="225.52438"
       cy="218.90099"
       fx="225.52438"
       fy="218.90099"
       r="300"
       gradientTransform="matrix(-4.167939e-4,2.182867,-1.884232,-3.599562e-4,615.5972,-289.1214)"
       gradientUnits="userSpaceOnUse" />
    <polygon
       id="star"
       transform="scale(53,53)"
       points="0,-1 0.58778525,0.80901699 -0.95105652,-0.30901699 0.95105652,-0.30901699 -0.58778525,0.80901699 0,-1 " />
    <clipPath
       id="clip">
      <path
         d="M 0,-200 L 0,600 L 300,600 L 300,-200 L 0,-200 z "
         id="path10" />
    </clipPath>
    <radialGradient
       inkscape:collect="always"
       xlink:href="#linearGradient2955"
       id="radialGradient1911"
       gradientUnits="userSpaceOnUse"
       gradientTransform="matrix(-4.167939e-4,2.182867,-1.884232,-3.599562e-4,615.5972,-289.1214)"
       cx="225.52438"
       cy="218.90099"
       fx="225.52438"
       fy="218.90099"
       r="300" />
    <radialGradient
       inkscape:collect="always"
       xlink:href="#linearGradient2955"
       id="radialGradient2865"
       gradientUnits="userSpaceOnUse"
       gradientTransform="matrix(0,1.748721,-1.593162,-1.049767e-7,551.7876,-191.2898)"
       cx="225.52438"
       cy="218.90099"
       fx="225.52438"
       fy="218.90099"
       r="300" />
    <radialGradient
       inkscape:collect="always"
       xlink:href="#linearGradient2955"
       id="radialGradient2871"
       gradientUnits="userSpaceOnUse"
       gradientTransform="matrix(0,1.386237,-1.323286,-5.741131e-8,-158.0823,-109.5408)"
       cx="225.52438"
       cy="218.90099"
       fx="225.52438"
       fy="218.90099"
       r="300" />
    <radialGradient
       inkscape:collect="always"
       xlink:href="#linearGradient2893"
       id="radialGradient3163"
       gradientUnits="userSpaceOnUse"
       gradientTransform="matrix(1.353218,0,0,1.348928,-77.62935,-85.74693)"
       cx="221.44487"
       cy="226.33101"
       fx="221.44487"
       fy="226.33101"
       r="300" />
    <linearGradient
       id="linearGradient2569">
      <stop
         style="stop-color:white;stop-opacity:0.3137255"
         offset="0"
         id="stop2571" />
      <stop
         style="stop-color:white;stop-opacity:0.25098041"
         offset="0.19"
         id="stop2573" />
      <stop
         style="stop-color:#6b6b6b;stop-opacity:0.1254902"
         offset="0.60000002"
         id="stop2575" />
      <stop
         style="stop-color:black;stop-opacity:0.1254902"
         offset="1"
         id="stop2577" />
    </linearGradient>
    <linearGradient
       id="linearGradient2561">
      <stop
         style="stop-color:white;stop-opacity:1"
         offset="0"
         id="stop2563" />
      <stop
         style="stop-color:white;stop-opacity:1"
         offset="0.22857143"
         id="stop2565" />
      <stop
         style="stop-color:black;stop-opacity:1"
         offset="1"
         id="stop2567" />
    </linearGradient>
    <linearGradient
       id="linearGradient2553">
      <stop
         style="stop-color:#fd0000;stop-opacity:1"
         offset="0"
         id="stop2555" />
      <stop
         style="stop-color:#e77275;stop-opacity:0.65882355"
         offset="0.5"
         id="stop2557" />
      <stop
         style="stop-color:black;stop-opacity:0.32291666"
         offset="1"
         id="stop2559" />
    </linearGradient>
    <radialGradient
       cx="225.52438"
       cy="218.90099"
       r="300"
       fx="225.52438"
       fy="218.90099"
       id="radialGradient2551"
       xlink:href="#linearGradient2955"
       gradientUnits="userSpaceOnUse"
       gradientTransform="matrix(-4.167939e-4,2.182867,-1.884232,-3.599562e-4,615.5972,-289.1214)" />
    <polygon
       points="0,-1 0.58778525,0.80901699 -0.95105652,-0.30901699 0.95105652,-0.30901699 -0.58778525,0.80901699 0,-1 "
       transform="scale(53,53)"
       id="polygon2549" />
    <clipPath
       id="clipPath2545">
      <path
         d="M 0,-200 L 0,600 L 300,600 L 300,-200 L 0,-200 z "
         id="path2547" />
    </clipPath>
    <radialGradient
       cx="225.52438"
       cy="218.90099"
       r="300"
       fx="225.52438"
       fy="218.90099"
       id="radialGradient2543"
       xlink:href="#linearGradient2955"
       gradientUnits="userSpaceOnUse"
       gradientTransform="matrix(-4.167939e-4,2.182867,-1.884232,-3.599562e-4,615.5972,-289.1214)" />
    <radialGradient
       cx="225.52438"
       cy="218.90099"
       r="300"
       fx="225.52438"
       fy="218.90099"
       id="radialGradient2541"
       xlink:href="#linearGradient2955"
       gradientUnits="userSpaceOnUse"
       gradientTransform="matrix(0,1.748721,-1.593162,-1.049767e-7,551.7876,-191.2898)" />
    <radialGradient
       cx="225.52438"
       cy="218.90099"
       r="300"
       fx="225.52438"
       fy="218.90099"
       id="radialGradient2539"
       xlink:href="#linearGradient2955"
       gradientUnits="userSpaceOnUse"
       gradientTransform="matrix(0,1.386237,-1.323286,-5.741131e-8,-158.0823,-109.5408)" />
    <inkscape:perspective
       id="perspective2977"
       inkscape:persp3d-origin="0.5 : 0.33333333 : 1"
       inkscape:vp_z="1 : 0.5 : 1"
       inkscape:vp_y="0 : 1000 : 0"
       inkscape:vp_x="0 : 0.5 : 1"
       sodipodi:type="inkscape:persp3d" />
    <radialGradient
       inkscape:collect="always"
       xlink:href="#linearGradient2893-3"
       id="radialGradient3163-2"
       gradientUnits="userSpaceOnUse"
       gradientTransform="matrix(1.353218,0,0,1.348928,-77.62935,-85.74693)"
       cx="221.44487"
       cy="226.33101"
       fx="221.44487"
       fy="226.33101"
       r="300" />
    <linearGradient
       id="linearGradient2893-3">
      <stop
         style="stop-color:white;stop-opacity:0.3137255;"
         offset="0"
         id="stop2895-2" />
      <stop
         id="stop2897-2"
         offset="0.19"
         style="stop-color:white;stop-opacity:0.25098041;" />
      <stop
         style="stop-color:#6b6b6b;stop-opacity:0.1254902;"
         offset="0.60000002"
         id="stop2901-1" />
      <stop
         style="stop-color:black;stop-opacity:0.1254902;"
         offset="1"
         id="stop2899-6" />
    </linearGradient>
    <inkscape:perspective
       id="perspective3044"
       inkscape:persp3d-origin="0.5 : 0.33333333 : 1"
       inkscape:vp_z="1 : 0.5 : 1"
       inkscape:vp_y="0 : 1000 : 0"
       inkscape:vp_x="0 : 0.5 : 1"
       sodipodi:type="inkscape:persp3d" />
    <radialGradient
       inkscape:collect="always"
       xlink:href="#linearGradient2893-4"
       id="radialGradient3163-5"
       gradientUnits="userSpaceOnUse"
       gradientTransform="matrix(1.353218,0,0,1.348928,-77.62935,-85.74693)"
       cx="221.44487"
       cy="226.33101"
       fx="221.44487"
       fy="226.33101"
       r="300" />
    <linearGradient
       id="linearGradient2893-4">
      <stop
         style="stop-color:white;stop-opacity:0.3137255;"
         offset="0"
         id="stop2895-3" />
      <stop
         id="stop2897-1"
         offset="0.19"
         style="stop-color:white;stop-opacity:0.25098041;" />
      <stop
         style="stop-color:#6b6b6b;stop-opacity:0.1254902;"
         offset="0.60000002"
         id="stop2901-2" />
      <stop
         style="stop-color:black;stop-opacity:0.1254902;"
         offset="1"
         id="stop2899-3" />
    </linearGradient>
    <inkscape:perspective
       id="perspective3088"
       inkscape:persp3d-origin="0.5 : 0.33333333 : 1"
       inkscape:vp_z="1 : 0.5 : 1"
       inkscape:vp_y="0 : 1000 : 0"
       inkscape:vp_x="0 : 0.5 : 1"
       sodipodi:type="inkscape:persp3d" />
  </defs>
  <g
     inkscape:groupmode="layer"
     id="layer3"
     inkscape:label="Fond écu"
     style="display:inline"
     sodipodi:insensitive="true">
    <path
       id="path2855"
       style="fill:#ffffff;fill-opacity:1;fill-rule:evenodd;stroke:none"
       d="m 300,658.5 c 0,0 298.50001,-112.32031 298.50001,-397.77183 0,-285.451524 0,-258.5516935 0,-258.5516935 l -597.00001,0 0,258.5516935 C 1.5,546.17969 300,658.5 300,658.5 z"
       sodipodi:nodetypes="cccccc" />
    <g
       transform="translate(-752.72487,-197.1233)"
       style="fill:#ffffff;fill-opacity:1;stroke:none;display:inline"
       id="g2329">
      <g
         id="layer5"
         style="stroke:none;display:inline"
         transform="translate(752.64415,198.02252)">
        <rect
           id="rect2230"
           style="fill:#ffffff;fill-opacity:1;fill-rule:nonzero;stroke:none"
           y="2.1139324"
           x="1.5319287"
           height="179.00894"
           width="596.46588" />
      </g>
      <g
         id="g46381"
         transform="matrix(1.0002198,0,0,0.9143426,652.15223,-135.3859)"
         style="stroke:none">
        <path
           sodipodi:nodetypes="ccccccccccccccccccccccccccccccccccccccccccccccccccccccccccccccccccccccccccccccccccccccccccccccccccccscccccscccccscccccscccccscccccccccccccccccccccccccccccccccccccccccccccccccccccccccccccccccccccccccccccccccccccccccccccccccccccccccccccscccccscccccscccccscccccscccccccccccccccccccccccccccccccccccccccscccccccccccccccccccc"
           id="path8822"
           style="fill:#000000;fill-opacity:1;fill-rule:evenodd;stroke:none;display:inline"
           d="m 106.03125,365.29075 c -1.40168,3.71541 -2.92477,7.18706 -4.53125,10.4375 l 0,11.75 c 0.22083,-0.15287 0.43626,-0.31772 0.65625,-0.46875 -0.2167,0.50477 -0.43956,0.97489 -0.65625,1.46875 l 0,8.125 c 1.77317,-1.98176 3.70033,-4.19758 5.9375,-6.84375 1.03388,10.72369 2.44287,15.79119 4.53125,23.0625 1.6626,-7.25968 2.868,-12.24864 4.1875,-23.28125 3.9758,4.93357 7.80813,9.89296 13.1875,14.125 L 121.8125,386.697 c 3.89969,2.72681 8.23959,6.32225 12.375,7.84375 -6.37895,-7.91469 -12.11395,-17.35454 -16.4375,-29.25 l -11.71875,0 z m 115.34375,0 c -4.5217,11.9856 -10.23663,21.47954 -16.28125,29.03125 3.85548,-1.15661 8.18441,-4.43559 12.375,-7.3125 -2.56279,5.96955 -5.12474,11.13876 -7.6875,16.40625 1.53015,-0.5674 6.37399,-5.85583 12.96875,-13.65625 1.03389,10.72369 2.44288,15.79119 4.53125,23.0625 1.6626,-7.25968 2.868,-12.24864 4.1875,-23.28125 3.9758,4.93357 7.83938,9.89296 13.21875,14.125 L 237.15625,386.697 c 3.89968,2.72681 8.20835,6.32225 12.34375,7.84375 -6.37822,-7.91378 -12.09211,-17.35646 -16.40625,-29.25 l -11.71875,0 z m 115.3125,0 c -4.5217,11.9856 -10.23663,21.47954 -16.28125,29.03125 3.85548,-1.15661 8.21566,-4.43559 12.40625,-7.3125 -2.56278,5.96955 -5.15599,11.13876 -7.71875,16.40625 1.53014,-0.5674 6.40524,-5.85583 13,-13.65625 1.03389,10.72369 2.44288,15.79119 4.53125,23.0625 1.6626,-7.25968 2.868,-12.24864 4.1875,-23.28125 3.9758,4.93357 7.80813,9.89296 13.1875,14.125 L 352.46875,386.697 c 3.89967,2.72681 8.20835,6.32225 12.34375,7.84375 -6.37822,-7.91378 -12.09211,-17.35646 -16.40625,-29.25 l -11.71875,0 z m 115.3125,0 c -4.5217,11.9856 -10.23663,21.47954 -16.28125,29.03125 3.85548,-1.15661 8.21566,-4.43559 12.40625,-7.3125 -2.5628,5.96955 -5.12474,11.13876 -7.6875,16.40625 1.53014,-0.5674 6.37399,-5.85583 12.96875,-13.65625 1.0339,10.72369 2.44288,15.79119 4.53125,23.0625 1.6626,-7.25968 2.868,-12.24864 4.1875,-23.28125 3.9758,4.93357 7.80813,9.89296 13.1875,14.125 L 467.78125,386.697 c 3.89969,2.72681 8.2396,6.32225 12.375,7.84375 -6.37895,-7.91469 -12.11395,-17.35454 -16.4375,-29.25 l -11.71875,0 z m 115.34375,0 c -4.5217,11.9856 -10.23663,21.47954 -16.28125,29.03125 3.85548,-1.15661 8.18441,-4.43559 12.375,-7.3125 -2.5628,5.96955 -5.12474,11.13876 -7.6875,16.40625 1.53014,-0.5674 6.37399,-5.85583 12.96875,-13.65625 1.0339,10.72369 2.44288,15.79119 4.53125,23.0625 1.6626,-7.25968 2.868,-12.24864 4.1875,-23.28125 3.9758,4.93357 7.83938,9.89296 13.21875,14.125 L 583.125,386.697 c 3.89969,2.72681 8.20835,6.32225 12.34375,7.84375 -6.37822,-7.91378 -12.09211,-17.35646 -16.40625,-29.25 l -11.71875,0 z m 115.3125,0 c -4.5217,11.9856 -10.23663,21.47954 -16.28125,29.03125 3.85548,-1.15661 8.21566,-4.43559 12.40625,-7.3125 -2.56277,5.96955 -5.15599,11.13876 -7.71875,16.40625 1.53017,-0.5674 6.40524,-5.85583 13,-13.65625 1.0339,10.72369 2.44288,15.79119 4.53125,23.0625 1.6626,-7.25968 2.868,-12.24864 4.1875,-23.28125 1.8763,2.3283 3.72867,4.64562 5.71875,6.90625 l 0,-9.59375 -0.0625,-0.15625 c 0.0182,0.0127 0.0443,0.0185 0.0625,0.0312 l 0,-11.59375 c -1.4878,-3.08637 -2.86076,-6.35839 -4.125,-9.84375 l -11.71875,0 z m -514.5625,49.5625 c 7.04342,9.55615 -12.6499,13.36139 -2.03125,22.40625 4.52862,3.07107 15.10602,-3.57914 5.8125,-11.75 -1.20077,-0.6995 4.17918,-5.53125 -3.78125,-10.65625 z m 115.34375,0 c 7.04343,9.55615 -12.6499,13.36139 -2.03125,22.40625 4.52862,3.07107 15.07477,-3.57914 5.78125,-11.75 -1.20077,-0.6995 4.21043,-5.53125 -3.75,-10.65625 z m 115.3125,0 c 7.04343,9.55615 -12.6499,13.36139 -2.03125,22.40625 4.52861,3.07107 15.10602,-3.57914 5.8125,-11.75 -1.20076,-0.6995 4.17918,-5.53125 -3.78125,-10.65625 z m 115.3125,0 c 7.04343,9.55615 -12.6499,13.36139 -2.03125,22.40625 4.52864,3.07107 15.10602,-3.57914 5.8125,-11.75 -1.20076,-0.6995 4.17918,-5.53125 -3.78125,-10.65625 z m 115.34375,0 c 7.04342,9.55615 -12.6499,13.36139 -2.03125,22.40625 4.52863,3.07107 15.07477,-3.57914 5.78125,-11.75 -1.20079,-0.6995 4.21043,-5.53125 -3.75,-10.65625 z M 179.875,437.5095 c -1.76179,0.18159 -3.49089,1.3712 -5.09375,4.40625 -2.01013,5.08821 6.83211,13.91197 12.78125,3.0625 0.42091,-1.32407 6.32721,2.91564 9.59375,-5.96875 -5.60071,6.43741 -11.33022,-1.24571 -16.53125,-1.5 -0.2544,-0.0124 -0.49832,-0.0259 -0.75,0 z m 115.3125,0 c -1.76179,0.18159 -3.45964,1.3712 -5.0625,4.40625 -2.01013,5.08821 6.80087,13.91197 12.75,3.0625 0.42091,-1.32407 6.35845,2.91564 9.625,-5.96875 -5.60071,6.43741 -11.36147,-1.24571 -16.5625,-1.5 -0.2544,-0.0124 -0.49832,-0.0259 -0.75,0 z m 115.3125,0 c -1.76179,0.18159 -3.45964,1.3712 -5.0625,4.40625 -2.01014,5.08821 6.83212,13.91197 12.78125,3.0625 0.42092,-1.32407 6.32721,2.91564 9.59375,-5.96875 -5.60071,6.43741 -11.33022,-1.24571 -16.53125,-1.5 -0.2544,-0.0124 -0.52957,-0.0259 -0.78125,0 z m 115.34375,0 c -1.7618,0.18159 -3.49089,1.3712 -5.09375,4.40625 -2.01014,5.08821 6.83212,13.91197 12.78125,3.0625 0.42092,-1.32407 6.32721,2.91564 9.59375,-5.96875 -5.60071,6.43741 -11.33022,-1.24571 -16.53125,-1.5 -0.2544,-0.0124 -0.49832,-0.0259 -0.75,0 z m 115.3125,0 c -1.76177,0.18159 -3.45964,1.3712 -5.0625,4.40625 -2.01014,5.08821 6.80087,13.91197 12.75,3.0625 0.42092,-1.32407 6.35846,2.91564 9.625,-5.96875 -5.60068,6.43741 -11.36147,-1.24571 -16.5625,-1.5 -0.25437,-0.0124 -0.49832,-0.0259 -0.75,0 z m -483.0625,0.0937 c -5.20108,0.25432 -10.96185,7.96866 -16.5625,1.53125 3.26649,8.8844 9.23537,4.64468 9.65625,5.96875 5.94914,10.84947 14.72888,2.02571 12.71875,-3.0625 -1.83184,-3.4686 -3.77733,-4.537 -5.8125,-4.4375 z m 115.3125,0 c -5.20108,0.25432 -10.9306,7.96866 -16.53125,1.53125 3.26649,8.8844 9.20412,4.64468 9.625,5.96875 5.94914,10.84947 14.76013,2.02571 12.75,-3.0625 -1.83185,-3.4686 -3.80857,-4.537 -5.84375,-4.4375 z m 115.3125,0 c -5.20108,0.25432 -10.9306,7.96866 -16.53125,1.53125 3.2665,8.8844 9.23537,4.64468 9.65625,5.96875 5.94914,10.84947 14.72888,2.02571 12.71875,-3.0625 -1.83183,-3.4686 -3.80857,-4.537 -5.84375,-4.4375 z m 115.34375,0 c -5.20108,0.25432 -10.96185,7.96866 -16.5625,1.53125 3.2665,8.8844 9.23537,4.64468 9.65625,5.96875 5.94914,10.84947 14.72888,2.02571 12.71875,-3.0625 -1.83183,-3.4686 -3.77732,-4.537 -5.8125,-4.4375 z m 115.3125,0 c -5.20105,0.25432 -10.9306,7.96866 -16.53125,1.53125 3.2665,8.8844 9.20412,4.64468 9.625,5.96875 5.94914,10.84947 14.76013,2.02571 12.75,-3.0625 -1.83183,-3.4686 -3.80857,-4.537 -5.84375,-4.4375 z m -449.5625,6.1875 c -4.58009,22.7649 -13.1313,38.8813 -22.40625,50.46875 3.85548,-1.15661 8.21566,-4.43559 12.40625,-7.3125 -2.56278,5.96955 -5.12474,11.13875 -7.6875,16.40625 1.53014,-0.56741 6.37398,-5.88709 12.96875,-13.6875 1.03388,10.72369 2.44287,15.79118 4.53125,23.0625 1.6626,-7.25969 2.868,-12.2174 4.1875,-23.25 3.97581,4.93357 7.83938,9.89296 13.21875,14.125 L 179.5,486.6345 c 3.89969,2.7268 8.20834,6.29099 12.34375,7.8125 -9.80507,-12.16567 -18.07243,-27.88891 -22.03125,-50.65625 z m 115.3125,0 c -4.58008,22.7649 -13.10005,38.8813 -22.375,50.46875 3.85548,-1.15661 8.18441,-4.43559 12.375,-7.3125 -2.56278,5.96955 -5.12474,11.13875 -7.6875,16.40625 1.53014,-0.56741 6.40524,-5.88709 13,-13.6875 1.03389,10.72369 2.41163,15.79118 4.5,23.0625 1.6626,-7.25969 2.868,-12.2174 4.1875,-23.25 3.9758,4.93357 7.83938,9.89296 13.21875,14.125 l -7.53125,-16.9687 c 3.89967,2.7268 8.20835,6.29099 12.34375,7.8125 -9.80507,-12.16567 -18.07242,-27.88891 -22.03125,-50.65625 z m 115.3125,0 c -4.58009,22.7649 -13.10005,38.8813 -22.375,50.46875 3.85547,-1.15661 8.21566,-4.43559 12.40625,-7.3125 -2.56279,5.96955 -5.15599,11.13875 -7.71875,16.40625 1.53016,-0.56741 6.40524,-5.88709 13,-13.6875 1.03389,10.72369 2.44288,15.79118 4.53125,23.0625 1.66259,-7.25969 2.868,-12.2174 4.1875,-23.25 3.97579,4.93357 7.80813,9.89296 13.1875,14.125 L 410.125,486.6345 c 3.89967,2.7268 8.2396,6.29099 12.375,7.8125 -9.80508,-12.16567 -18.10367,-27.88891 -22.0625,-50.65625 z m 115.34375,0 c -4.58009,22.7649 -13.1313,38.8813 -22.40625,50.46875 3.85547,-1.15661 8.21566,-4.43559 12.40625,-7.3125 -2.56279,5.96955 -5.12474,11.13875 -7.6875,16.40625 1.53016,-0.56741 6.37399,-5.88709 12.96875,-13.6875 1.03389,10.72369 2.44288,15.79118 4.53125,23.0625 1.66259,-7.25969 2.868,-12.2174 4.1875,-23.25 3.97581,4.93357 7.83938,9.89296 13.21875,14.125 l -7.53125,-16.96875 c 3.89967,2.7268 8.20835,6.29099 12.34375,7.8125 -9.80509,-12.16567 -18.07242,-27.88891 -22.03125,-50.65625 z m 115.3125,0 c -4.5801,22.7649 -13.10005,38.8813 -22.375,50.46875 3.85547,-1.15661 8.18441,-4.43559 12.375,-7.3125 -2.56282,5.96955 -5.12474,11.13875 -7.6875,16.40625 1.53012,-0.56741 6.40524,-5.88709 13,-13.6875 1.03392,10.72369 2.41163,15.79118 4.5,23.0625 1.66262,-7.25969 2.868,-12.2174 4.1875,-23.25 3.97581,4.93357 7.83938,9.89296 13.21875,14.125 l -7.53125,-16.96875 c 3.8997,2.7268 8.20835,6.29099 12.34375,7.8125 -9.80506,-12.16567 -18.07242,-27.88891 -22.03125,-50.65625 z M 110.4375,514.7595 c 7.04343,9.55615 -12.649903,13.39263 -2.03125,22.4375 4.52862,3.07105 15.10602,-3.61039 5.8125,-11.78125 -1.20077,-0.69951 4.17918,-5.53125 -3.78125,-10.65625 z m 115.34375,0 c 7.04343,9.55615 -12.6499,13.39263 -2.03125,22.4375 4.52862,3.07105 15.07477,-3.61039 5.78125,-11.78125 -1.20076,-0.69951 4.21043,-5.53125 -3.75,-10.65625 z m 115.3125,0 c 7.04343,9.55615 -12.6499,13.39263 -2.03125,22.4375 4.52862,3.07105 15.07477,-3.61039 5.78125,-11.78125 -1.20077,-0.69951 4.21043,-5.53125 -3.75,-10.65625 z m 115.3125,0 c 7.04344,9.55615 -12.6499,13.39263 -2.03125,22.4375 4.52862,3.07105 15.10602,-3.61039 5.8125,-11.78125 -1.20078,-0.69951 4.17918,-5.53125 -3.78125,-10.65625 z m 115.34375,0 c 7.04344,9.55615 -12.6499,13.39263 -2.03125,22.4375 4.52862,3.07105 15.07477,-3.61039 5.78125,-11.78125 -1.20078,-0.69951 4.21043,-5.53125 -3.75,-10.65625 z m 115.3125,0 c 7.04341,9.55615 -12.6499,13.39263 -2.03125,22.4375 4.52862,3.07105 15.07477,-3.61039 5.78125,-11.78125 -1.20075,-0.69951 4.21043,-5.53125 -3.75,-10.65625 z M 122.21875,537.447 c -1.76178,0.18158 -3.49089,1.3712 -5.09375,4.40625 -2.01014,5.08821 6.83211,13.88072 12.78125,3.03125 0.42091,-1.32408 6.3272,2.91564 9.59375,-5.96875 -5.60071,6.43741 -11.33022,-1.21447 -16.53125,-1.46875 -0.2544,-0.0125 -0.49832,-0.0259 -0.75,0 z m 115.3125,0 c -1.76178,0.18158 -3.49089,1.3712 -5.09375,4.40625 -2.01014,5.08821 6.83212,13.88072 12.78125,3.03125 0.4209,-1.32408 6.35845,2.91564 9.625,-5.96875 -5.60071,6.43741 -11.36147,-1.21447 -16.5625,-1.46875 -0.2544,-0.0125 -0.49832,-0.0259 -0.75,0 z m 115.3125,0 c -1.76179,0.18158 -3.45964,1.3712 -5.0625,4.40625 -2.01014,5.08821 6.83212,13.88072 12.78125,3.03125 0.42091,-1.32408 6.32721,2.91564 9.59375,-5.96875 -5.60069,6.43741 -11.33022,-1.21447 -16.53125,-1.46875 -0.2544,-0.0125 -0.52957,-0.0259 -0.78125,0 z m 115.34375,0 c -1.76178,0.18158 -3.49089,1.3712 -5.09375,4.40625 -2.01015,5.08821 6.83212,13.88072 12.78125,3.03125 0.42091,-1.32408 6.3272,2.91564 9.59375,-5.96875 -5.60072,6.43741 -11.33022,-1.21447 -16.53125,-1.46875 -0.25438,-0.0125 -0.49832,-0.0259 -0.75,0 z m 115.3125,0 c -1.76178,0.18158 -3.49089,1.3712 -5.09375,4.40625 -2.01015,5.08821 6.83212,13.88072 12.78125,3.03125 0.42091,-1.32408 6.35845,2.91564 9.625,-5.96875 -5.60072,6.43741 -11.36147,-1.21447 -16.5625,-1.46875 -0.25439,-0.0125 -0.49832,-0.0259 -0.75,0 z m 115,0.0625 c -1.64946,0.2866 -3.24272,1.48967 -4.75,4.34375 -1.16167,2.94048 1.31582,7.09114 4.75,8 l 0,-12.34375 z m -482.75,0.0312 c -5.20108,0.2543 -10.96185,7.93741 -16.5625,1.5 3.26649,8.8844 9.23537,4.64468 9.65625,5.96875 5.94914,10.84947 14.76013,2.05695 12.75,-3.03125 -1.83184,-3.46861 -3.80857,-4.53701 -5.84375,-4.4375 z m 115.3125,0 c -5.20108,0.2543 -10.9306,7.93741 -16.53125,1.5 3.26648,8.8844 9.20412,4.64468 9.625,5.96875 5.94914,10.84947 14.76013,2.05695 12.75,-3.03125 -1.83185,-3.46861 -3.80857,-4.53701 -5.84375,-4.4375 z m 115.3125,0 c -5.20109,0.2543 -10.9306,7.93741 -16.53125,1.5 3.26648,8.8844 9.23537,4.64468 9.65625,5.96875 5.94913,10.84947 14.72888,2.05695 12.71875,-3.03125 -1.83185,-3.46861 -3.80857,-4.53701 -5.84375,-4.4375 z m 115.34375,0 c -5.20107,0.2543 -10.96185,7.93741 -16.5625,1.5 3.26648,8.8844 9.23537,4.64468 9.65625,5.96875 5.94916,10.84947 14.76013,2.05695 12.75,-3.03125 -1.83185,-3.46861 -3.80857,-4.53701 -5.84375,-4.4375 z m 115.3125,0 c -5.20107,0.2543 -10.9306,7.93741 -16.53125,1.5 3.26651,8.8844 9.20412,4.64468 9.625,5.96875 5.94912,10.84947 14.76013,2.05695 12.75,-3.03125 -1.83185,-3.46861 -3.80857,-4.53701 -5.84375,-4.4375 z M 101.5,537.6345 l 0,12.375 c 3.44449,-0.87924 5.91771,-5.07546 4.75,-8.03125 -1.49765,-2.83582 -3.10589,-4.04319 -4.75,-4.34375 z m 10.625,6.0625 c -1.36195,6.76948 -4.05917,14.36155 -6.03415,20.01096 l 11.5001,0 C 115.71184,558.07167 113.30642,550.4914 112.125,543.697 z m 115.34375,0 c -1.33959,6.65832 -3.73594,13.68398 -5.69356,19.28857 -0.0327,0.0936 -0.0652,0.18674 -0.0977,0.27951 l 11.06399,-0.0886 c -1.87521,-5.63629 -4.09134,-12.6851 -5.27276,-19.4795 z m 115.3125,0 c -1.36195,6.76948 -3.73528,13.65294 -5.71026,19.30235 l 10.65914,0 c -1.87521,-5.63629 -3.76746,-12.50795 -4.94888,-19.30235 z m 115.3125,0 c -1.36195,6.76948 -4.0036,13.94646 -5.97858,19.59587 l 2.26963,0 8.59422,-0.25053 c -1.87911,-5.63629 -3.70385,-12.55094 -4.88527,-19.34534 z m 115.34375,0 c -1.36195,6.76948 -3.73528,13.65294 -5.71026,19.30235 l 10.98302,0 c -1.87521,-5.63629 -4.09134,-12.50795 -5.27276,-19.30235 z m 115.3125,0 c -1.36194,6.76948 -3.73528,13.65294 -5.71026,19.30235 l 10.98302,0 C 692.14755,557.36306 689.93142,550.4914 688.75,543.697 z" />
      </g>
    </g>
    <g
       id="g3227"
       transform="matrix(1.0002198,0,0,0.9143426,-100.57264,-151.09559)"
       style="fill:#ffffff;fill-opacity:1;stroke:none">
      <path
         id="path3229"
         style="fill:#000000;fill-opacity:1;fill-rule:evenodd;stroke:none;display:inline"
         d="m 106.19319,365.1136 c -1.40168,3.71541 -3.08671,7.36421 -4.69319,10.61465 l 0,11.75 c 0.22083,-0.15287 0.43626,-0.31772 0.65625,-0.46875 -0.2167,0.50477 -0.43956,0.97489 -0.65625,1.46875 l 0,8.125 c 1.77317,-1.98176 3.70033,-4.19758 5.9375,-6.84375 1.03388,10.72369 2.44287,15.79119 4.53125,23.0625 1.6626,-7.25968 2.868,-12.24864 4.1875,-23.28125 3.9758,4.93357 7.80813,9.89296 13.1875,14.125 L 121.8125,386.697 c 3.89969,2.72681 8.23959,6.32225 12.375,7.84375 -6.37895,-7.91469 -12.27589,-17.53169 -16.59944,-29.42715 l -11.39487,0 z m 115.50569,-0.44288 c -4.5217,11.9856 -10.56051,22.09957 -16.60513,29.65128 3.85548,-1.15661 8.18441,-4.43559 12.375,-7.3125 -2.56279,5.96955 -5.12474,11.13876 -7.6875,16.40625 1.53015,-0.5674 6.37399,-5.85583 12.96875,-13.65625 1.03389,10.72369 2.44288,15.79119 4.53125,23.0625 1.6626,-7.25968 2.868,-12.24864 4.1875,-23.28125 3.9758,4.93357 7.83938,9.89296 13.21875,14.125 L 237.15625,386.697 c 3.89968,2.72681 8.20835,6.32225 12.34375,7.84375 -6.37822,-7.91378 -12.49696,-17.97649 -16.8111,-29.87003 l -10.99002,0 z m 115.63638,-0.44287 c -4.5217,11.9856 -10.88439,22.54244 -16.92901,30.09415 3.85548,-1.15661 8.21566,-4.43559 12.40625,-7.3125 -2.56278,5.96955 -5.15599,11.13876 -7.71875,16.40625 1.53014,-0.5674 6.40524,-5.85583 13,-13.65625 1.03389,10.72369 2.44288,15.79119 4.53125,23.0625 1.6626,-7.25968 2.868,-12.24864 4.1875,-23.28125 3.9758,4.93357 7.80813,9.89296 13.1875,14.125 L 352.46875,386.697 c 3.89967,2.72681 8.20835,6.32225 12.34375,7.84375 -6.37822,-7.91378 -13.06376,-18.41936 -17.3779,-30.3129 l -4.12398,0 -5.97536,0 z m 114.89376,0.56184 c -4.5217,11.9856 -10.46565,21.9806 -16.51027,29.53231 3.85548,-1.15661 8.21566,-4.43559 12.40625,-7.3125 -2.5628,5.96955 -5.12474,11.13876 -7.6875,16.40625 1.53014,-0.5674 6.37399,-5.85583 12.96875,-13.65625 1.0339,10.72369 2.44288,15.79119 4.53125,23.0625 1.6626,-7.25968 2.868,-12.24864 4.1875,-23.28125 3.9758,4.93357 7.80813,9.89296 13.1875,14.125 L 467.78125,386.697 c 3.89969,2.72681 8.2396,6.32225 12.375,7.84375 -6.37895,-7.91469 -12.80101,-18.10613 -17.12456,-30.00159 l -10.80267,0.25053 z M 567.82957,364.405 c -4.5217,11.9856 -10.72245,22.36529 -16.76707,29.917 3.85548,-1.15661 8.18441,-4.43559 12.375,-7.3125 -2.5628,5.96955 -5.12474,11.13876 -7.6875,16.40625 1.53014,-0.5674 6.37399,-5.85583 12.96875,-13.65625 1.0339,10.72369 2.44288,15.79119 4.53125,23.0625 1.6626,-7.25968 2.868,-12.24864 4.1875,-23.28125 3.9758,4.93357 7.83938,9.89296 13.21875,14.125 L 583.125,386.697 c 3.89969,2.72681 8.20835,6.32225 12.34375,7.84375 -6.37822,-7.91378 -12.41599,-18.06506 -16.73013,-29.9586 L 567.82957,364.405 z m 115.3125,0 c -4.5217,11.9856 -10.72245,22.36529 -16.76707,29.917 3.85548,-1.15661 8.21566,-4.43559 12.40625,-7.3125 -2.56277,5.96955 -5.15599,11.13876 -7.71875,16.40625 1.53017,-0.5674 6.40524,-5.85583 13,-13.65625 1.0339,10.72369 2.44288,15.79119 4.53125,23.0625 1.6626,-7.25968 2.868,-12.24864 4.1875,-23.28125 1.8763,2.3283 3.72867,4.64562 5.71875,6.90625 l 0,-9.59375 -0.0625,-0.15625 c 0.0182,0.0127 0.0443,0.0185 0.0625,0.0312 l 0,-11.59375 c -1.4878,-3.08637 -3.34658,-7.24414 -4.61082,-10.7295 l -10.74711,0 z m -515.04832,50.44825 c 7.04342,9.55615 -12.6499,13.36139 -2.03125,22.40625 4.52862,3.07107 15.10602,-3.57914 5.8125,-11.75 -1.20077,-0.6995 4.17918,-5.53125 -3.78125,-10.65625 z m 115.34375,0 c 7.04343,9.55615 -12.6499,13.36139 -2.03125,22.40625 4.52862,3.07107 15.07477,-3.57914 5.78125,-11.75 -1.20077,-0.6995 4.21043,-5.53125 -3.75,-10.65625 z m 115.3125,0 c 7.04343,9.55615 -12.6499,13.36139 -2.03125,22.40625 4.52861,3.07107 15.10602,-3.57914 5.8125,-11.75 -1.20076,-0.6995 4.17918,-5.53125 -3.78125,-10.65625 z m 115.3125,0 c 7.04343,9.55615 -12.6499,13.36139 -2.03125,22.40625 4.52864,3.07107 15.10602,-3.57914 5.8125,-11.75 -1.20076,-0.6995 4.17918,-5.53125 -3.78125,-10.65625 z m 115.34375,0 c 7.04342,9.55615 -12.6499,13.36139 -2.03125,22.40625 4.52863,3.07107 15.07477,-3.57914 5.78125,-11.75 -1.20079,-0.6995 4.21043,-5.53125 -3.75,-10.65625 z M 179.875,437.5095 c -1.76179,0.18159 -3.49089,1.3712 -5.09375,4.40625 -2.01013,5.08821 6.83211,13.91197 12.78125,3.0625 0.42091,-1.32407 6.32721,2.91564 9.59375,-5.96875 -5.60071,6.43741 -11.33022,-1.24571 -16.53125,-1.5 -0.2544,-0.0124 -0.49832,-0.0259 -0.75,0 z m 115.3125,0 c -1.76179,0.18159 -3.45964,1.3712 -5.0625,4.40625 -2.01013,5.08821 6.80087,13.91197 12.75,3.0625 0.42091,-1.32407 6.35845,2.91564 9.625,-5.96875 -5.60071,6.43741 -11.36147,-1.24571 -16.5625,-1.5 -0.2544,-0.0124 -0.49832,-0.0259 -0.75,0 z m 115.3125,0 c -1.76179,0.18159 -3.45964,1.3712 -5.0625,4.40625 -2.01014,5.08821 6.83212,13.91197 12.78125,3.0625 0.42092,-1.32407 6.32721,2.91564 9.59375,-5.96875 -5.60071,6.43741 -11.33022,-1.24571 -16.53125,-1.5 -0.2544,-0.0124 -0.52957,-0.0259 -0.78125,0 z m 115.34375,0 c -1.7618,0.18159 -3.49089,1.3712 -5.09375,4.40625 -2.01014,5.08821 6.83212,13.91197 12.78125,3.0625 0.42092,-1.32407 6.32721,2.91564 9.59375,-5.96875 -5.60071,6.43741 -11.33022,-1.24571 -16.53125,-1.5 -0.2544,-0.0124 -0.49832,-0.0259 -0.75,0 z m 115.3125,0 c -1.76177,0.18159 -3.45964,1.3712 -5.0625,4.40625 -2.01014,5.08821 6.80087,13.91197 12.75,3.0625 0.42092,-1.32407 6.35846,2.91564 9.625,-5.96875 -5.60068,6.43741 -11.36147,-1.24571 -16.5625,-1.5 -0.25437,-0.0124 -0.49832,-0.0259 -0.75,0 z m -483.0625,0.0937 c -5.20108,0.25432 -10.96185,7.96866 -16.5625,1.53125 3.26649,8.8844 9.23537,4.64468 9.65625,5.96875 5.94914,10.84947 14.72888,2.02571 12.71875,-3.0625 -1.83184,-3.4686 -3.77733,-4.537 -5.8125,-4.4375 z m 115.3125,0 c -5.20108,0.25432 -10.9306,7.96866 -16.53125,1.53125 3.26649,8.8844 9.20412,4.64468 9.625,5.96875 5.94914,10.84947 14.76013,2.02571 12.75,-3.0625 -1.83185,-3.4686 -3.80857,-4.537 -5.84375,-4.4375 z m 115.3125,0 c -5.20108,0.25432 -10.9306,7.96866 -16.53125,1.53125 3.2665,8.8844 9.23537,4.64468 9.65625,5.96875 5.94914,10.84947 14.72888,2.02571 12.71875,-3.0625 -1.83183,-3.4686 -3.80857,-4.537 -5.84375,-4.4375 z m 115.34375,0 c -5.20108,0.25432 -10.96185,7.96866 -16.5625,1.53125 3.2665,8.8844 9.23537,4.64468 9.65625,5.96875 5.94914,10.84947 14.72888,2.02571 12.71875,-3.0625 -1.83183,-3.4686 -3.77732,-4.537 -5.8125,-4.4375 z m 115.3125,0 c -5.20105,0.25432 -10.9306,7.96866 -16.53125,1.53125 3.2665,8.8844 9.20412,4.64468 9.625,5.96875 5.94914,10.84947 14.76013,2.02571 12.75,-3.0625 -1.83183,-3.4686 -3.80857,-4.537 -5.84375,-4.4375 z m -449.5625,6.1875 c -4.58009,22.7649 -13.1313,38.8813 -22.40625,50.46875 3.85548,-1.15661 8.21566,-4.43559 12.40625,-7.3125 -2.56278,5.96955 -5.12474,11.13875 -7.6875,16.40625 1.53014,-0.56741 6.37398,-5.88709 12.96875,-13.6875 1.03388,10.72369 2.44287,15.79118 4.53125,23.0625 1.6626,-7.25969 2.868,-12.2174 4.1875,-23.25 3.97581,4.93357 7.83938,9.89296 13.21875,14.125 L 179.5,486.6345 c 3.89969,2.7268 8.20834,6.29099 12.34375,7.8125 -9.80507,-12.16567 -18.07243,-27.88891 -22.03125,-50.65625 z m 115.3125,0 c -4.58008,22.7649 -13.10005,38.8813 -22.375,50.46875 3.85548,-1.15661 8.18441,-4.43559 12.375,-7.3125 -2.56278,5.96955 -5.12474,11.13875 -7.6875,16.40625 1.53014,-0.56741 6.40524,-5.88709 13,-13.6875 1.03389,10.72369 2.41163,15.79118 4.5,23.0625 1.6626,-7.25969 2.868,-12.2174 4.1875,-23.25 3.9758,4.93357 7.83938,9.89296 13.21875,14.125 l -7.53125,-16.9687 c 3.89967,2.7268 8.20835,6.29099 12.34375,7.8125 -9.80507,-12.16567 -18.07242,-27.88891 -22.03125,-50.65625 z m 115.3125,0 c -4.58009,22.7649 -13.10005,38.8813 -22.375,50.46875 3.85547,-1.15661 8.21566,-4.43559 12.40625,-7.3125 -2.56279,5.96955 -5.15599,11.13875 -7.71875,16.40625 1.53016,-0.56741 6.40524,-5.88709 13,-13.6875 1.03389,10.72369 2.44288,15.79118 4.53125,23.0625 1.66259,-7.25969 2.868,-12.2174 4.1875,-23.25 3.97579,4.93357 7.80813,9.89296 13.1875,14.125 L 410.125,486.6345 c 3.89967,2.7268 8.2396,6.29099 12.375,7.8125 -9.80508,-12.16567 -18.10367,-27.88891 -22.0625,-50.65625 z m 115.34375,0 c -4.58009,22.7649 -13.1313,38.8813 -22.40625,50.46875 3.85547,-1.15661 8.21566,-4.43559 12.40625,-7.3125 -2.56279,5.96955 -5.12474,11.13875 -7.6875,16.40625 1.53016,-0.56741 6.37399,-5.88709 12.96875,-13.6875 1.03389,10.72369 2.44288,15.79118 4.53125,23.0625 1.66259,-7.25969 2.868,-12.2174 4.1875,-23.25 3.97581,4.93357 7.83938,9.89296 13.21875,14.125 l -7.53125,-16.96875 c 3.89967,2.7268 8.20835,6.29099 12.34375,7.8125 -9.80509,-12.16567 -18.07242,-27.88891 -22.03125,-50.65625 z m 115.3125,0 c -4.5801,22.7649 -13.10005,38.8813 -22.375,50.46875 3.85547,-1.15661 8.18441,-4.43559 12.375,-7.3125 -2.56282,5.96955 -5.12474,11.13875 -7.6875,16.40625 1.53012,-0.56741 6.40524,-5.88709 13,-13.6875 1.03392,10.72369 2.41163,15.79118 4.5,23.0625 1.66262,-7.25969 2.868,-12.2174 4.1875,-23.25 3.97581,4.93357 7.83938,9.89296 13.21875,14.125 l -7.53125,-16.96875 c 3.8997,2.7268 8.20835,6.29099 12.34375,7.8125 -9.80506,-12.16567 -18.07242,-27.88891 -22.03125,-50.65625 z M 110.4375,514.7595 c 7.04343,9.55615 -6.23737,9.38417 -1.57321,22.93856 4.07058,3.57211 14.64798,-4.11145 5.35446,-12.28231 -1.20077,-0.69951 4.17918,-5.53125 -3.78125,-10.65625 z m 115.34375,0 c 7.04343,9.55615 -12.6499,13.39263 -2.03125,22.4375 4.52862,3.07105 15.07477,-3.61039 5.78125,-11.78125 -1.20076,-0.69951 4.21043,-5.53125 -3.75,-10.65625 z m 115.3125,0 c 7.04343,9.55615 -12.6499,13.39263 -2.03125,22.4375 4.52862,3.07105 15.07477,-3.61039 5.78125,-11.78125 -1.20077,-0.69951 4.21043,-5.53125 -3.75,-10.65625 z m 115.3125,0 c 7.04344,9.55615 -12.6499,13.39263 -2.03125,22.4375 4.52862,3.07105 15.10602,-3.61039 5.8125,-11.78125 -1.20078,-0.69951 4.17918,-5.53125 -3.78125,-10.65625 z m 115.34375,0 c 7.04344,9.55615 -12.6499,13.39263 -2.03125,22.4375 4.52862,3.07105 15.07477,-3.61039 5.78125,-11.78125 -1.20078,-0.69951 4.21043,-5.53125 -3.75,-10.65625 z m 115.3125,0 c 7.04341,9.55615 -12.6499,13.39263 -2.03125,22.4375 4.52862,3.07105 11.41047,-4.61251 5.78125,-11.78125 -1.20075,-0.69951 4.21043,-5.53125 -3.75,-10.65625 z M 122.21875,537.447 c -1.76178,0.18158 -3.49089,1.3712 -5.09375,4.40625 -2.01014,5.08821 6.83211,13.88072 12.78125,3.03125 0.42091,-1.32408 6.3272,2.91564 9.59375,-5.96875 -5.60071,6.43741 -11.33022,-1.21447 -16.53125,-1.46875 -0.2544,-0.0125 -0.49832,-0.0259 -0.75,0 z m 115.3125,0 c -1.76178,0.18158 -3.49089,1.3712 -5.09375,4.40625 -2.01014,5.08821 6.83212,13.88072 12.78125,3.03125 0.4209,-1.32408 6.35845,2.91564 9.625,-5.96875 -5.60071,6.43741 -11.36147,-1.21447 -16.5625,-1.46875 -0.2544,-0.0125 -0.49832,-0.0259 -0.75,0 z m 115.3125,0 c -1.76179,0.18158 -3.45964,1.3712 -5.0625,4.40625 -2.01014,5.08821 6.83212,13.88072 12.78125,3.03125 0.42091,-1.32408 6.32721,2.91564 9.59375,-5.96875 -5.60069,6.43741 -11.33022,-1.21447 -16.53125,-1.46875 -0.2544,-0.0125 -0.52957,-0.0259 -0.78125,0 z m 115.34375,0 c -1.76178,0.18158 -3.49089,1.3712 -5.09375,4.40625 -2.01015,5.08821 6.83212,13.88072 12.78125,3.03125 0.42091,-1.32408 6.3272,2.91564 9.59375,-5.96875 -5.60072,6.43741 -11.33022,-1.21447 -16.53125,-1.46875 -0.25438,-0.0125 -0.49832,-0.0259 -0.75,0 z m 115.3125,0 c -1.76178,0.18158 -3.49089,1.3712 -5.09375,4.40625 -2.01015,5.08821 6.83212,13.88072 12.78125,3.03125 0.42091,-1.32408 6.35845,2.91564 9.625,-5.96875 -5.60072,6.43741 -11.36147,-1.21447 -16.5625,-1.46875 -0.25439,-0.0125 -0.49832,-0.0259 -0.75,0 z m -367.75,0.0937 c -5.20108,0.2543 -10.96185,7.93741 -16.5625,1.5 3.26649,8.8844 9.23537,4.64468 9.65625,5.96875 5.94914,10.84947 14.76013,2.05695 12.75,-3.03125 -1.83184,-3.46861 -3.80857,-4.53701 -5.84375,-4.4375 z m 115.3125,0 c -5.20108,0.2543 -10.9306,7.93741 -16.53125,1.5 3.26648,8.8844 9.20412,4.64468 9.625,5.96875 5.94914,10.84947 14.76013,2.05695 12.75,-3.03125 -1.83185,-3.46861 -3.80857,-4.53701 -5.84375,-4.4375 z m 115.3125,0 c -5.20109,0.2543 -10.9306,7.93741 -16.53125,1.5 3.26648,8.8844 9.23537,4.64468 9.65625,5.96875 5.94913,10.84947 14.72888,2.05695 12.71875,-3.03125 -1.83185,-3.46861 -3.80857,-4.53701 -5.84375,-4.4375 z m 115.34375,0 c -5.20107,0.2543 -10.96185,7.93741 -16.5625,1.5 3.26648,8.8844 9.23537,4.64468 9.65625,5.96875 5.94916,10.84947 14.76013,2.05695 12.75,-3.03125 -1.83185,-3.46861 -3.80857,-4.53701 -5.84375,-4.4375 z m 115.3125,0 c -5.20107,0.2543 -10.9306,7.93741 -16.53125,1.5 3.26651,8.8844 9.20412,4.64468 9.625,5.96875 5.94912,10.84947 14.76013,2.05695 12.75,-3.03125 -1.83185,-3.46861 -3.80857,-4.53701 -5.84375,-4.4375 z M 101.5,550.0095 l 0,0 z m 10.625,-6.3125 4.65625,18.59375 C 114.90214,556.65446 113.30642,550.4914 112.125,543.697 z m 115.34375,0 c -1.36195,6.76948 -4.05917,14.71585 -6.03415,20.36526 l 11.6308,0 c -1.87521,-5.63629 -4.41523,-13.57086 -5.59665,-20.36526 z m 115.3125,0 c -1.36195,6.76948 -4.05917,14.71585 -6.03415,20.36526 l 11.6308,0 c -1.87521,-5.63629 -4.41523,-13.57086 -5.59665,-20.36526 z m 115.3125,0 c -1.36195,6.76948 -3.73528,14.36155 -5.71026,20.01096 l 10.69039,-0.35431 c -1.87911,-5.63629 -3.79871,-12.86225 -4.98013,-19.65665 z m 115.85904,0.56369 c -1.32627,6.59213 -4.02215,13.06021 -5.97428,18.59567 -0.0525,0.14893 0.23886,-0.005 0.18712,0.14299 l 10.52667,-0.0197 c -1.87521,-5.63629 -3.55809,-11.92461 -4.73951,-18.71901 z M 688.75,543.697 c -1.36194,6.76948 -3.08752,12.94434 -5.0625,18.59375 0,0 6.24392,-11.79935 5.0625,-18.59375 z"
         sodipodi:nodetypes="cccccccccccccccccccccccccccccccccccccccccccccccccccccccccccccccccccccccccccccccccccccccccccccccccccccscccccscccccscccccscccccscccccccccccccccccccccccccccccccccccccccccccccccccccccccccccccccccccccccccccccccccccccccccccccccccccccccccccccscccccscccccscccccscccccsccccccccccccccccccccccccccccccccccccccccccccscccccc" />
    </g>
    <g
       style="fill:#ffffff;fill-opacity:1;stroke:none"
       transform="matrix(1.0002198,0,0,0.9143426,-100.57264,30.31802)"
       id="g3237">
      <path
         d="M 129.34375,403.66575 121.8125,386.697 c 3.89969,2.72681 8.23959,6.32225 12.375,7.84375 -6.37895,-7.91469 -12.11395,-17.35454 -16.4375,-29.25 0,0 6.21438,34.14296 11.59375,38.375 z m 92.35513,-38.7293 c -4.5217,11.9856 -10.56051,21.83384 -16.60513,29.38555 3.85548,-1.15661 8.18441,-4.43559 12.375,-7.3125 -2.56279,5.96955 -5.12474,11.13876 -7.6875,16.40625 1.53015,-0.5674 6.37399,-5.85583 12.96875,-13.65625 1.03389,10.72369 2.44288,15.79119 4.53125,23.0625 1.6626,-7.25968 2.868,-12.24864 4.1875,-23.28125 3.9758,4.93357 7.83938,9.89296 13.21875,14.125 L 237.15625,386.697 c 3.89968,2.72681 8.20835,6.32225 12.34375,7.84375 -6.37822,-7.91378 -12.09211,-17.35646 -16.40625,-29.25 l -11.39487,-0.3543 z m 115.19799,0.3543 c -4.5217,11.9856 -10.446,21.47954 -16.49062,29.03125 3.85548,-1.15661 8.21566,-4.43559 12.40625,-7.3125 -2.56278,5.96955 -5.15599,11.13876 -7.71875,16.40625 1.53014,-0.5674 6.40524,-5.85583 13,-13.65625 1.03389,10.72369 2.44288,15.79119 4.53125,23.0625 1.6626,-7.25968 2.868,-12.24864 4.1875,-23.28125 3.9758,4.93357 7.80813,9.89296 13.1875,14.125 L 352.46875,386.697 c 3.89967,2.72681 8.20835,6.32225 12.34375,7.84375 -6.37822,-7.91378 -12.18697,-17.2312 -16.50111,-29.12474 l -11.41452,-0.12526 z m 115.75089,-0.7086 c -4.5217,11.9856 -10.88439,22.18814 -16.92901,29.73985 3.85548,-1.15661 8.21566,-4.43559 12.40625,-7.3125 -2.5628,5.96955 -5.12474,11.13876 -7.6875,16.40625 1.53014,-0.5674 6.37399,-5.85583 12.96875,-13.65625 1.0339,10.72369 2.44288,15.79119 4.53125,23.0625 1.6626,-7.25968 2.868,-12.24864 4.1875,-23.28125 3.9758,4.93357 7.80813,9.89296 13.1875,14.125 L 467.78125,386.697 c 3.89969,2.72681 8.2396,6.32225 12.375,7.84375 -6.37895,-7.91469 -12.76171,-18.06314 -17.08526,-29.9586 l -10.42323,0 z M 567.99151,364.405 c -4.5217,11.9856 -10.88439,22.36529 -16.92901,29.917 3.85548,-1.15661 8.18441,-4.43559 12.375,-7.3125 -2.5628,5.96955 -5.12474,11.13876 -7.6875,16.40625 1.53014,-0.5674 6.37399,-5.85583 12.96875,-13.65625 1.0339,10.72369 2.44288,15.79119 4.53125,23.0625 1.6626,-7.25968 2.868,-12.24864 4.1875,-23.28125 3.9758,4.93357 7.83938,9.89296 13.21875,14.125 L 583.125,386.697 c 3.89969,2.72681 8.20835,6.32225 12.34375,7.84375 -6.37822,-7.91378 -12.55015,-18.29594 -16.86429,-30.18948 l -10.61295,0.0537 z m 116.49689,-0.11637 c -5.43777,12.98772 -12.06878,22.48166 -18.1134,30.03337 3.85548,-1.15661 10.42726,-5.14419 12.13793,-8.0211 1.10154,-8.06007 -4.23991,11.84736 -6.80267,17.11485 l 12.77814,-39.12712 z m -516.39465,50.56462 c 7.04342,9.55615 -12.6499,13.36139 -2.03125,22.40625 4.52862,3.07107 15.10602,-3.57914 5.8125,-11.75 -1.20077,-0.6995 4.17918,-5.53125 -3.78125,-10.65625 z m 115.34375,0 c 7.04343,9.55615 -12.6499,13.36139 -2.03125,22.40625 4.52862,3.07107 15.07477,-3.57914 5.78125,-11.75 -1.20077,-0.6995 4.21043,-5.53125 -3.75,-10.65625 z m 115.3125,0 c 7.04343,9.55615 -12.6499,13.36139 -2.03125,22.40625 4.52861,3.07107 15.10602,-3.57914 5.8125,-11.75 -1.20076,-0.6995 4.17918,-5.53125 -3.78125,-10.65625 z m 115.3125,0 c 7.04343,9.55615 -12.6499,13.36139 -2.03125,22.40625 4.52864,3.07107 15.10602,-3.57914 5.8125,-11.75 -1.20076,-0.6995 4.17918,-5.53125 -3.78125,-10.65625 z m 115.34375,0 c 7.04342,9.55615 -12.6499,13.36139 -2.03125,22.40625 4.52863,3.07107 15.07477,-3.57914 5.78125,-11.75 -1.20079,-0.6995 4.21043,-5.53125 -3.75,-10.65625 z M 179.875,437.5095 c -1.76179,0.18159 -3.49089,1.3712 -5.09375,4.40625 -2.01013,5.08821 6.83211,13.91197 12.78125,3.0625 0.42091,-1.32407 6.32721,2.91564 9.59375,-5.96875 -5.60071,6.43741 -11.33022,-1.24571 -16.53125,-1.5 -0.2544,-0.0124 -0.49832,-0.0259 -0.75,0 z m 115.3125,0 c -1.76179,0.18159 -3.45964,1.3712 -5.0625,4.40625 -2.01013,5.08821 6.80087,13.91197 12.75,3.0625 0.42091,-1.32407 6.35845,2.91564 9.625,-5.96875 -5.60071,6.43741 -11.36147,-1.24571 -16.5625,-1.5 -0.2544,-0.0124 -0.49832,-0.0259 -0.75,0 z m 115.3125,0 c -1.76179,0.18159 -3.45964,1.3712 -5.0625,4.40625 -2.01014,5.08821 6.83212,13.91197 12.78125,3.0625 0.42092,-1.32407 6.32721,2.91564 9.59375,-5.96875 -5.60071,6.43741 -11.33022,-1.24571 -16.53125,-1.5 -0.2544,-0.0124 -0.52957,-0.0259 -0.78125,0 z m 115.34375,0 c -1.7618,0.18159 -3.49089,1.3712 -5.09375,4.40625 -2.01014,5.08821 6.83212,13.91197 12.78125,3.0625 0.42092,-1.32407 6.32721,2.91564 9.59375,-5.96875 -5.60071,6.43741 -11.33022,-1.24571 -16.53125,-1.5 -0.2544,-0.0124 -0.49832,-0.0259 -0.75,0 z m 115.3125,0 c -1.76177,0.18159 -3.45964,1.3712 -5.0625,4.40625 -2.01014,5.08821 6.80087,13.91197 12.75,3.0625 0.42092,-1.32407 6.35846,2.91564 9.625,-5.96875 -5.60068,6.43741 -11.36147,-1.24571 -16.5625,-1.5 -0.25437,-0.0124 -0.49832,-0.0259 -0.75,0 z m -483.0625,0.0937 c -5.20108,0.25432 -10.50381,7.4676 -16.10446,1.03019 3.26649,8.8844 8.77733,5.14574 9.19821,6.46981 5.94914,10.84947 14.72888,2.02571 12.71875,-3.0625 -1.83184,-3.4686 -3.77733,-4.537 -5.8125,-4.4375 z m 115.3125,0 c -5.20108,0.25432 -10.9306,7.96866 -16.53125,1.53125 3.26649,8.8844 9.20412,4.64468 9.625,5.96875 5.94914,10.84947 14.76013,2.02571 12.75,-3.0625 -1.83185,-3.4686 -3.80857,-4.537 -5.84375,-4.4375 z m 115.3125,0 c -5.20108,0.25432 -10.9306,7.96866 -16.53125,1.53125 3.2665,8.8844 9.23537,4.64468 9.65625,5.96875 5.94914,10.84947 14.72888,2.02571 12.71875,-3.0625 -1.83183,-3.4686 -3.80857,-4.537 -5.84375,-4.4375 z m 115.34375,0 c -5.20108,0.25432 -10.96185,7.96866 -16.5625,1.53125 3.2665,8.8844 9.23537,4.64468 9.65625,5.96875 5.94914,10.84947 14.72888,2.02571 12.71875,-3.0625 -1.83183,-3.4686 -3.77732,-4.537 -5.8125,-4.4375 z m 115.3125,0 c -5.20105,0.25432 -10.9306,7.96866 -16.53125,1.53125 3.2665,8.8844 9.20412,4.64468 9.625,5.96875 5.94914,10.84947 14.76013,2.02571 12.75,-3.0625 -1.83183,-3.4686 -3.80857,-4.537 -5.84375,-4.4375 z m -449.5625,6.1875 c -5.88086,22.7649 -3.16466,19.74902 -8.80322,31.33647 2.09848,-2.67963 -0.77451,-3.19094 2.77216,2.15207 1.32746,1.9998 5.4348,14.72025 9.3833,12.90756 3.97581,4.93357 8.48714,9.18436 13.86651,13.4164 L 179.5,486.6345 c 3.89969,2.7268 8.20834,6.29099 12.34375,7.8125 -9.80507,-12.16567 -18.07243,-27.88891 -22.03125,-50.65625 z m 115.3125,0 c -4.58008,22.7649 -13.10005,38.8813 -22.375,50.46875 3.85548,-1.15661 8.18441,-4.43559 12.375,-7.3125 -2.56278,5.96955 -5.12474,11.13875 -7.6875,16.40625 1.53014,-0.56741 6.40524,-5.88709 13,-13.6875 1.03389,10.72369 2.41163,15.79118 4.5,23.0625 1.6626,-7.25969 2.868,-12.2174 4.1875,-23.25 3.9758,4.93357 7.83938,9.89296 13.21875,14.125 l -7.53125,-16.9687 c 3.89967,2.7268 8.20835,6.29099 12.34375,7.8125 -9.80507,-12.16567 -18.07242,-27.88891 -22.03125,-50.65625 z m 115.3125,0 c -4.58009,22.7649 -13.10005,38.8813 -22.375,50.46875 3.85547,-1.15661 8.21566,-4.43559 12.40625,-7.3125 -2.56279,5.96955 -5.15599,11.13875 -7.71875,16.40625 1.53016,-0.56741 6.40524,-5.88709 13,-13.6875 1.03389,10.72369 2.44288,15.79118 4.53125,23.0625 1.66259,-7.25969 2.868,-12.2174 4.1875,-23.25 3.97579,4.93357 7.80813,9.89296 13.1875,14.125 L 410.125,486.6345 c 3.89967,2.7268 8.2396,6.29099 12.375,7.8125 -9.80508,-12.16567 -18.10367,-27.88891 -22.0625,-50.65625 z m 115.34375,0 c -4.58009,22.7649 -13.1313,38.8813 -22.40625,50.46875 3.85547,-1.15661 8.21566,-4.43559 12.40625,-7.3125 -2.56279,5.96955 -5.12474,11.13875 -7.6875,16.40625 1.53016,-0.56741 6.37399,-5.88709 12.96875,-13.6875 1.03389,10.72369 2.44288,15.79118 4.53125,23.0625 1.66259,-7.25969 2.868,-12.2174 4.1875,-23.25 3.97581,4.93357 7.83938,9.89296 13.21875,14.125 l -7.53125,-16.96875 c 3.89967,2.7268 8.20835,6.29099 12.34375,7.8125 -9.80509,-12.16567 -18.07242,-27.88891 -22.03125,-50.65625 z m 115.3125,0 c -4.5801,22.7649 -13.10005,38.8813 -22.375,50.46875 3.85547,-1.15661 8.18441,-4.43559 12.375,-7.3125 -2.56282,5.96955 -5.12474,11.13875 -7.6875,16.40625 1.53012,-0.56741 7.70077,-5.17849 14.29553,-12.9789 3.0643,-2.57649 6.12859,-7.97724 9.19289,-12.24308 3.8997,2.7268 -1.84209,-11.57318 -5.80092,-34.34052 z m -405.3125,70.96875 c 7.04343,9.55615 -12.6499,13.39263 -2.03125,22.4375 4.52862,3.07105 15.07477,-3.61039 5.78125,-11.78125 -1.20076,-0.69951 4.21043,-5.53125 -3.75,-10.65625 z m 115.3125,0 c 7.04343,9.55615 -12.6499,13.39263 -2.03125,22.4375 4.52862,3.07105 15.07477,-3.61039 5.78125,-11.78125 -1.20077,-0.69951 4.21043,-5.53125 -3.75,-10.65625 z m 115.3125,0 c 7.04344,9.55615 -12.6499,13.39263 -2.03125,22.4375 4.52862,3.07105 15.10602,-3.61039 5.8125,-11.78125 -1.20078,-0.69951 4.17918,-5.53125 -3.78125,-10.65625 z m 115.34375,0 c 7.04344,9.55615 -12.6499,13.39263 -2.03125,22.4375 4.52862,3.07105 15.07477,-3.61039 5.78125,-11.78125 -1.20078,-0.69951 4.21043,-5.53125 -3.75,-10.65625 z M 237.53125,537.447 c -1.76178,0.18158 -3.49089,1.3712 -5.09375,4.40625 -2.01014,5.08821 6.83212,13.88072 12.78125,3.03125 0.4209,-1.32408 6.35845,2.91564 9.625,-5.96875 -5.60071,6.43741 -11.36147,-1.21447 -16.5625,-1.46875 -0.2544,-0.0125 -0.49832,-0.0259 -0.75,0 z m 115.3125,0 c -1.76179,0.18158 -3.45964,1.3712 -5.0625,4.40625 -2.01014,5.08821 6.83212,13.88072 12.78125,3.03125 0.42091,-1.32408 6.32721,2.91564 9.59375,-5.96875 -5.60069,6.43741 -11.33022,-1.21447 -16.53125,-1.46875 -0.2544,-0.0125 -0.52957,-0.0259 -0.78125,0 z m 115.34375,0 c -1.76178,0.18158 -3.49089,1.3712 -5.09375,4.40625 -2.01015,5.08821 6.83212,13.88072 12.78125,3.03125 0.42091,-1.32408 6.3272,2.91564 9.59375,-5.96875 -5.60072,6.43741 -11.33022,-1.21447 -16.53125,-1.46875 -0.25438,-0.0125 -0.49832,-0.0259 -0.75,0 z m 115.3125,0 c -1.76178,0.18158 -3.49089,1.3712 -5.09375,4.40625 -2.01015,5.08821 6.83212,13.88072 12.78125,3.03125 0.42091,-1.32408 -1.73647,-7.18322 -6.9375,-7.4375 -0.25439,-0.0125 -0.49832,-0.0259 -0.75,0 z m -367.75,0.0937 c -5.20108,0.2543 -6.67937,5.08178 -6.25849,6.40585 5.94914,10.84947 14.11237,3.11985 12.10224,-1.96835 -1.83184,-3.46861 -3.80857,-4.53701 -5.84375,-4.4375 z m 115.3125,0 c -5.20108,0.2543 -10.9306,7.93741 -16.53125,1.5 3.26648,8.8844 9.20412,4.64468 9.625,5.96875 5.94914,10.84947 14.76013,2.05695 12.75,-3.03125 -1.83185,-3.46861 -3.80857,-4.53701 -5.84375,-4.4375 z m 115.3125,0 c -5.20109,0.2543 -10.9306,7.93741 -16.53125,1.5 3.26648,8.8844 9.23537,4.64468 9.65625,5.96875 5.94913,10.84947 14.72888,2.05695 12.71875,-3.03125 -1.83185,-3.46861 -3.80857,-4.53701 -5.84375,-4.4375 z m 115.34375,0 c -5.20107,0.2543 -10.96185,7.93741 -16.5625,1.5 3.26648,8.8844 9.23537,4.64468 9.65625,5.96875 5.94916,10.84947 14.76013,2.05695 12.75,-3.03125 -1.83185,-3.46861 -3.80857,-4.53701 -5.84375,-4.4375 z m -334.25,6.15625 c -1.36195,6.76948 -1.25537,5.92953 -4.83348,16.33899 3.15283,0.91938 4.01546,2.65669 9.45848,2.25476 -1.87521,-5.63629 -3.44358,-11.79935 -4.625,-18.59375 z m 115.3125,0 c -1.36195,6.76948 -3.66007,13.57067 -5.63505,19.22008 l 10.94711,-10e-6 c -1.87521,-5.63629 -4.13064,-12.42567 -5.31206,-19.22007 z m 115.3125,0 c -1.36195,6.76948 -3.66007,13.32013 -5.63505,18.96954 l 10.52032,0 c -1.87911,-5.63629 -3.70385,-12.17514 -4.88527,-18.96954 z m 115.34375,0 c -1.36195,6.76948 -3.57334,13.47579 -5.54832,19.1252 l 7.58227,-0.53145 c 5.25018,-4.92769 -0.85253,-10.38214 -2.03395,-18.59375 z"
         style="fill:#000000;fill-opacity:1;fill-rule:evenodd;stroke:none;display:inline"
         id="path3239"
         sodipodi:nodetypes="ccccccccccccccccccccccccccccccccccccccccccccccccccccccccccccccccccccccccccccccccccscccccscccccscccccscccccsccccccccccccccccccccccccccccscccccccccccccccccccccccccccccccccccccccccccccccccccccccccccccccccscccccscccccsccccscccccccccccccccccccccccccccccccccccc" />
    </g>
    <g
       id="g3247"
       transform="matrix(1.0002198,0,0,0.9143426,-100.57264,211.73163)"
       style="fill:#ffffff;fill-opacity:1;stroke:none">
      <path
         id="path3249"
         style="fill:#000000;fill-opacity:1;fill-rule:evenodd;stroke:none;display:inline"
         d="m 233.09375,365.29075 c 0,0 4.31414,11.89354 0,0 z m 104.05179,-0.87685 c -4.5217,11.9856 -10.69467,22.35639 -16.73929,29.9081 3.85548,-1.15661 8.21566,-4.43559 12.40625,-7.3125 -2.56278,5.96955 -5.15599,11.13876 -7.71875,16.40625 1.53014,-0.5674 6.40524,-5.85583 13,-13.65625 1.03389,10.72369 2.44288,15.79119 4.53125,23.0625 1.6626,-7.25968 2.868,-12.24864 4.1875,-23.28125 3.9758,4.93357 7.80813,9.89296 13.1875,14.125 L 352.46875,386.697 c 3.89967,2.72681 8.20835,6.32225 12.34375,7.84375 -6.37822,-7.91378 -12.55015,-18.35858 -16.86429,-30.25212 l -10.80267,0.12527 z m 115.3125,-0.25053 c -4.5217,11.9856 -10.69467,22.60692 -16.73929,30.15863 3.85548,-1.15661 8.21566,-4.43559 12.40625,-7.3125 -2.5628,5.96955 -5.12474,11.13876 -7.6875,16.40625 1.53014,-0.5674 6.37399,-5.85583 12.96875,-13.65625 1.0339,10.72369 2.44288,15.79119 4.53125,23.0625 1.6626,-7.25968 2.868,-12.24864 4.1875,-23.28125 3.9758,4.93357 7.80813,9.89296 13.1875,14.125 L 467.78125,386.697 c 3.89969,2.72681 8.2396,6.32225 12.375,7.84375 -6.37895,-7.91469 -12.91552,-18.48192 -17.23907,-30.37738 l -10.45914,0 z m 115.53347,0.0645 c -4.5217,11.9856 -1.45671,11.71639 4.59336,-0.17715 l -4.59336,0.17715 z M 698.5,386.85325 698.4375,386.697 698.5,386.85325 z m -299.75,28 c 7.04343,9.55615 -12.6499,13.36139 -2.03125,22.40625 4.52861,3.07107 15.10602,-3.57914 5.8125,-11.75 -1.20076,-0.6995 4.17918,-5.53125 -3.78125,-10.65625 z m 11.75,22.65625 c -1.76179,0.18159 -3.45964,1.3712 -5.0625,4.40625 -2.01014,5.08821 6.83212,13.91197 12.78125,3.0625 0.42092,-1.32407 6.32721,2.91564 9.59375,-5.96875 -5.60071,6.43741 -11.33022,-1.24571 -16.53125,-1.5 -0.2544,-0.0124 -0.52957,-0.0259 -0.78125,0 z m -21.78125,0.0937 c -5.20108,0.25432 -10.9306,7.96866 -16.53125,1.53125 3.2665,8.8844 9.23537,4.64468 9.65625,5.96875 5.94914,10.84947 14.72888,2.02571 12.71875,-3.0625 -1.83183,-3.4686 -3.80857,-4.537 -5.84375,-4.4375 z m 11.71875,6.1875 c -4.58009,22.7649 -3.02322,28.35908 -12.29817,39.94653 4.51484,4.61381 20.25078,5.57432 24.28384,0.68856 -9.80508,-12.16567 -8.02684,-17.86775 -11.98567,-40.63509 z"
         sodipodi:nodetypes="ccccccccccccccccccccccccccccccccccccccccscccccccccc" />
    </g>
  </g>
  <g
     inkscape:groupmode="layer"
     id="layer4"
     inkscape:label="Meubles"
     sodipodi:insensitive="true">
    <g
       id="g3645"
       inkscape:label="Calque 1"
       transform="translate(-117.59597,-235.49258)">
      <g
         transform="translate(109.31832,303.3667)"
         id="g7133"
         sodipodi:insensitive="true" />
    </g>
  </g>
  <g
     inkscape:groupmode="layer"
     id="layer2"
     inkscape:label="Reflet final"
     sodipodi:insensitive="true">
    <path
       sodipodi:nodetypes="cccccc"
       d="m 300.00001,658.5 c 0,0 298.5,-112.32031 298.5,-397.77183 0,-285.451504 0,-258.5516835 0,-258.5516835 l -597.00001,0 0,258.5516835 C 1.5,546.17969 300.00001,658.5 300.00001,658.5 z"
       style="fill:url(#radialGradient3163);fill-opacity:1;fill-rule:evenodd;stroke:none"
       id="path2875"
       inkscape:export-xdpi="144"
       inkscape:export-ydpi="144" />
  </g>
  <g
     inkscape:groupmode="layer"
     id="layer1"
     inkscape:label="Contour final"
     sodipodi:insensitive="true">
    <path
       sodipodi:nodetypes="cccccc"
       d="M 299.99999,658.50028 C 299.99999,658.50028 1.5,546.17992 1.5,260.72828 C 1.5,-24.723336 1.5,2.1764957 1.5,2.1764957 L 598.49999,2.1764957 L 598.49999,260.72828 C 598.49999,546.17992 299.99999,658.50028 299.99999,658.50028 z "
       style="opacity:1;fill:none;fill-opacity:1;fill-rule:evenodd;stroke:#000000;stroke-width:3.00000048;stroke-linecap:butt;stroke-linejoin:miter;stroke-miterlimit:4;stroke-dasharray:none;stroke-opacity:1"
       id="path1411"
       inkscape:export-xdpi="144"
       inkscape:export-ydpi="144" />
  </g>
</svg>
