<?xml version="1.0" standalone="no"?>
<!DOCTYPE svg PUBLIC "-//W3C//DTD SVG 1.0//EN" "http://www.w3.org/TR/2001/REC-SVG-20010904/DTD/svg10.dtd">
<svg width="600" height="600" viewBox="0 0 600 600">
<title>Heraldic Cross Patonce</title>
<desc>Heraldic Cross Patonce</desc>
<rect x="0" y="0" width="600" height="600" style="fill:#ffffff; stroke:none"/>
<g transform="scale(0.1,0.1)" style="fill:#000000; stroke:none">
<path d="M750 2087.11
C1434.09 2482.07 2210.08 2690 3000 2690
C3789.91 2690 4565.91 2482.07 5250 2087.11
C5358.71 2149.88 5425.68 2265.88 5425.68 2391.41
C5425.68 2516.94 5358.71 2632.94 5250 2695.7
C5467.43 2695.7 5668.34 2811.7 5777.05 3000
C5668.34 3188.3 5467.43 3304.29 5250 3304.29
C5358.71 3367.06 5425.68 3483.06 5425.68 3608.59
C5425.68 3734.12 5358.71 3850.12 5250 3912.89
C4565.91 3517.93 3789.91 3310 3000 3310
C2210.08 3310 1434.09 3517.93 750 3912.89
C641.286 3850.12 574.315 3734.12 574.315 3608.59
C574.315 3483.06 641.286 3367.06 750 3304.29
C532.572 3304.29 331.659 3188.3 222.945 3000
C331.659 2811.7 532.572 2695.7 750 2695.7
C641.286 2632.94 574.315 2516.94 574.315 2391.41
C574.315 2265.88 641.286 2149.88 750 2087.11Z"/>
<path d="M3912.89 750
C3517.93 1434.09 3310 2210.08 3310 3000
C3310 3789.91 3517.93 4565.91 3912.89 5250
C3850.12 5358.71 3734.12 5425.68 3608.59 5425.68
C3483.06 5425.68 3367.06 5358.71 3304.3 5250
C3304.3 5467.43 3188.3 5668.34 3000 5777.05
C2811.7 5668.34 2695.71 5467.43 2695.71 5250
C2632.94 5358.71 2516.94 5425.68 2391.41 5425.68
C2265.88 5425.68 2149.88 5358.71 2087.11 5250
C2482.07 4565.91 2690 3789.91 2690 3000
C2690 2210.08 2482.07 1434.09 2087.11 750
C2149.88 641.286 2265.88 574.315 2391.41 574.315
C2516.94 574.315 2632.94 641.286 2695.71 750
C2695.71 532.572 2811.7 331.659 3000 222.945
C3188.3 331.659 3304.3 532.572 3304.3 750
C3367.06 641.286 3483.06 574.315 3608.59 574.315
C3734.12 574.315 3850.12 641.286 3912.89 750Z"/>
</g>
</svg>
