<?xml version="1.0" encoding="UTF-8" standalone="no"?>
<!-- Created with Inkscape (http://www.inkscape.org/) -->
<svg xmlns:svg="http://www.w3.org/2000/svg" xmlns="http://www.w3.org/2000/svg" version="1.0" width="600pt" height="600pt" id="svg8248">
  <defs id="defs8251"/>
  <path d="M 374.65325,0.43428988 C 374.63324,0.44944988 374.6737,0.58941988 374.65325,0.60749988 C 374.61173,0.64940988 374.52288,0.72751988 374.47987,0.78070988 C 374.45803,0.81005988 374.32872,0.92183988 374.30649,0.95391988 C 374.26138,1.0234499 374.17973,1.2203099 374.13317,1.3003399 C 371.46103,6.1123699 366.50938,27.17156 359.74343,36.63521 C 352.07928,47.3551 329.21171,57.64027 325.76281,69.89156 C 325.68909,70.18198 325.62208,70.62092 325.58943,70.93083 C 324.51497,83.87324 357.14832,113.36749 343.27322,148.70219 C 343.19241,148.71495 343.00739,148.69376 342.92647,148.70219 C 342.8456,148.70847 342.66069,148.70015 342.57977,148.70219 C 342.45833,148.7021 342.18125,148.71157 342.05964,148.70219 C 341.97855,148.69391 341.79414,148.71449 341.71289,148.70219 C 341.63169,148.68791 341.4475,148.72038 341.36613,148.70219 C 331.63987,146.29637 321.00903,116.38061 301.49099,114.23337 C 280.5845,111.9334 221.5399,117.13495 219.14006,167.40889 C 216.30757,226.74586 297.12349,248.33373 318.82803,272.89387 C 329.68656,289.58385 321.88728,290.16717 316.92094,293.8523 C 315.12798,295.2259 313.74629,297.18564 313.80028,300.43429 C 314.03784,314.72416 339.89986,315.2669 338.59222,304.41812 C 337.21724,293.01108 339.02345,283.28992 336.68514,271.50819 C 329.67176,236.17116 262.46655,214.88698 274.96534,182.30496 C 283.08599,161.13575 333.79521,180.41646 341.71289,219.54514 C 345.88767,240.17605 345.29432,298.85345 345.1803,345.12251 C 298.86845,345.23641 240.13679,346.00236 219.48682,341.83152 C 180.32198,333.92111 161.02343,283.08556 182.21221,274.9724 C 214.82439,262.48519 236.12818,329.62838 271.49792,336.63521 C 283.29051,338.97142 293.02071,337.16682 304.43828,338.54052 C 315.29715,339.847 314.58047,314.00876 300.27741,313.77147 C 294.25225,313.67154 293.11477,318.55895 290.74204,321.73914 C 290.32079,322.28482 289.71464,322.89646 289.18171,323.29803 C 286.5993,325.11787 282.22553,324.86041 272.88488,318.79457 C 248.30195,297.11015 226.69413,216.36894 167.30234,219.19872 C 116.98193,221.59634 111.60222,280.75967 113.90428,301.64676 C 116.08961,321.4732 147.08281,331.97517 148.57835,341.83152 C 148.58866,341.91261 148.57208,342.09696 148.57835,342.17794 C 148.58256,342.25892 148.57829,342.44343 148.57835,342.52436 C 148.5753,342.64569 148.59104,342.92277 148.57835,343.04399 C 148.56776,343.1248 148.59337,343.30965 148.57835,343.39041 C 112.92571,357.36451 83.178351,323.91283 70.388341,325.54976 C 70.135261,325.58812 69.761021,325.65568 69.521521,325.72297 C 57.258851,329.16866 47.137551,352.01511 36.407781,359.67216 C 26.683791,366.61143 4.7297716,371.60549 0.6935116,374.22182 C 0.6613616,374.24399 0.5495116,374.37319 0.5201316,374.39503 C 0.4136516,374.48094 0.2340716,374.6613 0.1733816,374.74145 C 0.1549716,374.78008 0.0062116,374.87752 1.6e-06,374.91466 C 1.6e-06,374.95107 0.1610216,375.04996 0.1733816,375.08787 C 0.1825816,375.10716 0.1611816,375.2414 0.1733816,375.26108 C 0.1914516,375.28148 0.3257516,375.41356 0.3467516,375.43429 C 0.4182016,375.49764 0.5971716,375.54093 0.6935116,375.6075 C 0.7282616,375.63006 0.8294116,375.75782 0.8668316,375.78071 C 5.4329816,378.43335 26.851571,383.51082 36.407781,390.33036 C 47.137501,397.98742 57.258851,420.66065 69.521521,424.10634 C 69.761021,424.17363 70.135261,424.2412 70.388341,424.27955 C 83.178351,425.91654 112.92571,392.63802 148.57835,406.61212 C 148.59752,406.73328 148.56892,407.01053 148.57835,407.13175 C 148.5825,407.21262 148.5784,407.39725 148.57835,407.47817 C 148.57618,407.55909 148.58461,407.74361 148.57835,407.82459 C 148.56593,407.94614 148.5998,408.22245 148.57835,408.34422 C 148.56211,408.42542 148.42515,408.60933 148.40497,408.69064 C 145.77849,418.37384 116.04455,428.93733 113.90428,448.35577 C 111.60227,469.24287 116.98193,528.23298 167.30234,530.6306 C 226.69413,533.46049 248.302,452.71917 272.88488,431.03475 C 295.87721,416.10343 288.03586,436.4342 300.27741,436.23106 C 314.58042,435.99372 315.29709,409.98237 304.43828,411.28879 C 293.02077,412.6625 283.29057,411.03117 271.49792,413.36731 C 236.12813,420.37421 214.82433,487.34413 182.21221,474.85693 C 161.02348,466.74371 180.32192,416.08137 219.48682,408.17101 C 240.13685,404.00016 298.86845,404.5929 345.1803,404.70681 C 345.29432,450.97587 345.88767,509.82648 341.71289,530.45739 C 333.79521,569.58609 283.08599,588.86668 274.96534,567.69757 C 262.46655,535.11549 329.67176,513.83132 336.68514,478.49434 C 339.02345,466.71256 337.21724,456.9915 338.59222,445.5844 C 339.89986,434.73568 314.03784,435.27837 313.80028,449.56824 C 313.59703,461.79849 333.7731,453.96423 318.82803,476.93545 C 297.12349,501.49565 216.30757,523.08346 219.14006,582.42044 C 221.5399,632.69434 280.5845,638.06912 301.49099,635.76917 C 321.00903,633.62197 331.63987,603.70616 341.36613,601.30034 C 341.4475,601.28216 341.63169,601.14143 341.71289,601.12713 C 341.79414,601.11483 341.97855,601.13539 342.05964,601.12713 C 342.18125,601.11777 342.45833,601.12725 342.57977,601.12713 C 342.66069,601.12919 342.8456,601.12087 342.92647,601.12713 C 343.00739,601.13556 343.19241,601.11439 343.27322,601.12713 C 357.31621,636.88924 323.66156,666.72417 325.58943,679.41812 C 325.62474,679.61827 325.70893,679.91952 325.76281,680.11096 C 329.21171,692.36222 352.07928,702.4742 359.74343,713.1941 C 366.56924,722.74145 371.47804,744.14036 374.13317,748.70219 C 374.22485,748.85184 374.3939,749.11545 374.47987,749.22182 C 374.52216,749.26943 374.61245,749.35889 374.65325,749.39503 C 374.69338,749.42535 374.78794,749.54984 374.82662,749.56824 C 374.84558,749.57445 374.98143,749.56513 375,749.56824 C 375.01857,749.56513 375.15442,749.57445 375.17338,749.56824 C 375.21206,749.54984 375.30662,749.42535 375.34675,749.39503 C 375.38755,749.35889 375.47784,749.26943 375.52013,749.22182 C 375.6061,749.11545 375.77515,748.85184 375.86683,748.70219 C 378.52201,744.14036 383.43082,722.74145 390.25657,713.1941 C 397.92078,702.4742 420.78829,692.36222 424.23719,680.11096 C 424.29107,679.91952 424.37526,679.61827 424.41057,679.41812 C 426.33838,666.72412 392.6839,636.8893 406.72678,601.12713 C 406.80759,601.11439 406.99261,601.13556 407.07353,601.12713 C 407.1544,601.12087 407.33931,601.12919 407.42023,601.12713 C 407.54167,601.12725 407.81875,601.11777 407.94036,601.12713 C 408.02145,601.13539 408.20586,601.11483 408.28711,601.12713 C 408.36831,601.14143 408.5525,601.28216 408.63387,601.30034 C 418.36018,603.70616 428.99097,633.62192 448.50901,635.76917 C 469.41545,638.06918 528.4601,632.69434 530.85994,582.42044 C 533.69243,523.08346 452.87645,501.49565 431.17197,476.93545 C 420.43023,460.42489 427.93618,459.729 432.90568,456.15023 C 434.77474,454.76333 436.25532,452.91245 436.19972,449.56824 C 435.96222,435.27837 410.10003,434.73568 411.40778,445.5844 C 412.78276,456.9915 410.97661,466.71256 413.31486,478.49434 C 420.32813,513.83132 487.53345,535.11544 475.03466,567.69757 C 466.91401,588.86674 416.2049,569.58609 408.28711,530.45739 C 404.11244,509.82648 404.70568,450.97587 404.8197,404.70681 C 451.13155,404.5929 509.86315,404.00016 530.51318,408.17101 C 569.67808,416.08137 588.97652,466.74371 567.78779,474.85693 C 535.17561,487.34413 513.8717,420.37421 478.50208,413.36731 C 466.70938,411.03117 456.97934,412.6625 445.56172,411.28879 C 434.70291,409.98237 435.41953,435.99372 449.72259,436.23106 C 461.96414,436.4342 454.12273,416.10343 477.11512,431.03475 C 501.69805,452.71917 523.30587,533.46049 582.69766,530.6306 C 633.01801,528.23298 638.39789,469.24287 636.09572,448.35577 C 633.95551,428.93733 604.22145,418.37384 601.59503,408.69064 C 601.57485,408.60933 601.43789,408.42542 601.42165,408.34422 C 601.4002,408.22245 601.43407,407.94614 601.42165,407.82459 C 601.41539,407.74361 601.42382,407.55909 601.42165,407.47817 C 601.4216,407.39725 601.4175,407.21262 601.42165,407.13175 C 601.43108,407.01053 601.40248,406.73328 601.42165,406.61212 C 637.07424,392.63802 666.82165,425.91654 679.61166,424.27955 C 679.86474,424.2412 680.23898,424.17363 680.47848,424.10634 C 692.7411,420.66065 702.86234,397.98742 713.59222,390.33036 C 723.14838,383.51082 744.567,378.43335 749.1332,375.78071 C 749.1706,375.75782 749.2717,375.63006 749.3065,375.6075 C 749.4028,375.54093 749.5818,375.49764 749.6532,375.43429 C 749.6743,375.41356 749.8086,375.28148 749.8266,375.26108 C 749.8388,375.2414 749.8174,375.10716 749.8266,375.08787 C 749.839,375.04996 750,374.95107 750,374.91466 C 749.9938,374.87752 749.845,374.78008 749.8266,374.74145 C 749.7659,374.6613 749.5863,374.48094 749.4799,374.39503 C 749.4505,374.37319 749.3386,374.24399 749.3065,374.22182 C 745.2702,371.60549 723.31605,366.61143 713.59222,359.67216 C 702.86239,352.01511 692.74115,329.16866 680.47848,325.72297 C 680.23898,325.65568 679.86474,325.58812 679.61166,325.54976 C 666.82165,323.91283 637.07429,357.36451 601.42165,343.39041 C 601.40663,343.30965 601.43224,343.1248 601.42165,343.04399 C 601.40896,342.92277 601.4247,342.64569 601.42165,342.52436 C 601.42171,342.44343 601.41744,342.25892 601.42165,342.17794 C 601.42792,342.09696 601.41134,341.91261 601.42165,341.83152 C 602.91719,331.97517 633.91061,321.4732 636.09572,301.64676 C 638.39784,280.75967 633.01807,221.59634 582.69766,219.19872 C 523.30581,216.36894 501.69811,297.11015 477.11512,318.79457 C 467.77441,324.86041 463.4007,325.11787 460.81829,323.29803 C 460.28536,322.89646 459.67921,322.28482 459.25796,321.73914 C 456.88523,318.55895 455.74775,313.67154 449.72259,313.77147 C 435.41953,314.00876 434.70297,339.847 445.56172,338.54052 C 456.97929,337.16682 466.70932,338.97142 478.50208,336.63521 C 513.87176,329.62838 535.17561,262.48519 567.78779,274.9724 C 588.97652,283.08556 569.67802,333.92111 530.51318,341.83152 C 509.86321,346.00236 451.1316,345.23641 404.8197,345.12251 C 404.70568,298.85339 404.11244,240.17605 408.28711,219.54514 C 416.2049,180.41646 466.91401,161.13576 475.03466,182.30496 C 487.53345,214.88698 420.32813,236.17116 413.31486,271.50819 C 410.97661,283.28992 412.78276,293.01108 411.40778,304.41812 C 410.10003,315.2669 435.96222,314.72416 436.19972,300.43429 C 436.40303,288.20404 416.2269,295.86503 431.17197,272.89387 C 452.87645,248.33373 533.69243,226.74586 530.85994,167.40889 C 528.4601,117.13497 469.41545,111.9334 448.50901,114.23337 C 428.99097,116.38061 418.36018,146.29636 408.63387,148.70219 C 408.5525,148.72038 408.36831,148.68791 408.28711,148.70219 C 408.20586,148.71449 408.02145,148.69391 407.94036,148.70219 C 407.81875,148.71157 407.54167,148.7021 407.42023,148.70219 C 407.33931,148.70015 407.1544,148.70847 407.07353,148.70219 C 406.99261,148.69376 406.80759,148.71495 406.72678,148.70219 C 392.85173,113.3675 425.48491,83.87325 424.41057,70.93083 C 424.37792,70.62092 424.31091,70.18198 424.23719,69.89156 C 420.78829,57.64026 397.92078,47.3551 390.25657,36.63521 C 383.49068,27.17156 378.53903,6.1123699 375.86683,1.3003399 C 375.82027,1.2203099 375.73862,1.0234499 375.69351,0.95391988 C 375.67128,0.92183988 375.54197,0.81005988 375.52013,0.78070988 C 375.47712,0.72751988 375.38827,0.64940988 375.34675,0.60749988 C 375.3059,0.57133988 375.21279,0.45870988 375.17338,0.43428988 C 375.15442,0.42810988 375.01857,0.43739988 375,0.43428988 C 374.98143,0.43739988 374.84558,0.42810988 374.82662,0.43428988 C 374.80695,0.44648988 374.67331,0.41912988 374.65325,0.43428988 z " style="fill:#f01213;fill-opacity:1;fill-rule:evenodd;stroke:none;stroke-width:1px;stroke-linecap:butt;stroke-linejoin:miter;stroke-opacity:1" id="path8257"/>
</svg>