<?xml version="1.0" encoding="UTF-8" standalone="no"?>
<!-- Created with Inkscape (http://www.inkscape.org/) -->
<svg xmlns:svg="http://www.w3.org/2000/svg" xmlns="http://www.w3.org/2000/svg" version="1.0" width="600pt" height="815pt" id="svg9205">
  <defs id="defs9208"/>
  <path d="M 377.13373,0.0399951 C 371.92952,28.872585 265.24531,117.0796 263.15791,151.00016 C 262.11416,167.96043 260.53259,178.06918 265.82506,195.98595 C 271.11746,213.90271 277.94631,223.63033 296.40827,223.72421 C 367.76924,224.09184 293.9347,169.46318 330.19205,168.60329 C 333.57698,168.52301 336.17834,169.07615 338.19348,170.55919 C 343.40332,174.62278 344.70193,186.48695 345.66147,217.14527 C 346.81783,254.09269 346.61106,295.00973 346.1949,337.1666 C 303.66597,337.47892 261.60201,337.26885 225.46232,333.07699 C 183.07063,328.15989 164.48702,295.59204 171.58608,264.44256 C 171.76486,263.65798 172.04321,262.91386 172.47513,262.30885 C 172.78688,261.89912 173.29732,261.3938 173.71979,261.06419 C 184.91319,252.7884 231.35735,270.19471 244.31012,274.5777 C 243.78824,255.7909 201.77265,205.63392 167.85208,207.72137 C 133.93151,209.80877 97.348876,256.16461 108.64157,286.84655 C 119.96054,317.59995 148.95114,319.95659 149.00429,329.5208 C 149.05567,339.97577 120.55172,336.4771 102.24043,337.1666 C 88.910296,337.66851 92.558946,317.08382 68.990066,318.141 C 42.689986,319.32063 28.832626,360.1179 2.6e-05,366.50515 C 28.832626,372.89241 42.689986,413.86749 68.990066,415.04712 C 92.558946,416.10424 88.910296,395.51961 102.24043,396.02151 C 120.55172,396.71096 149.05567,393.21229 149.00429,403.66732 C 148.95114,413.23153 119.96054,415.58811 108.64157,446.34157 C 97.348876,477.02345 133.93151,523.37929 167.85208,525.46675 C 201.77265,527.55414 243.78824,477.39716 244.31012,458.61042 C 231.35735,462.9934 184.91319,480.39966 173.71979,472.12393 C 173.29732,471.79426 172.78688,471.28894 172.47513,470.87926 C 172.04321,470.27426 171.76486,469.53008 171.58608,468.74555 C 164.48702,437.59602 183.07057,405.02817 225.46232,400.11113 C 258.91735,396.23062 297.39427,395.65645 346.72833,395.8437 C 347.41772,404.38999 348.22881,400.5666 347.61737,429.62749 C 347.15018,451.8301 307.37333,493.25787 286.27314,493.63887 C 287.33271,504.37468 374.70523,1010.7969 378.02278,1018.71 C 381.31166,1010.7969 466.9347,504.37468 467.99433,493.63887 C 446.89413,493.25787 407.11723,451.8301 406.65009,429.62749 C 406.04224,400.73958 406.67615,404.37047 407.36133,396.02151 C 437.28742,395.57093 484.55336,395.47329 524.53772,400.11113 C 566.92941,405.02817 585.51302,437.59602 578.41396,468.74555 C 578.33146,469.10766 578.19615,469.48934 578.05834,469.81241 C 577.91154,470.12911 577.72423,470.6 577.52491,470.87926 C 569.14124,481.8952 519.20093,463.18231 505.68992,458.61042 C 506.21174,477.39716 548.22739,527.55414 582.14796,525.46675 C 616.06847,523.37929 652.65117,477.0235 641.35848,446.34157 C 630.03951,415.58811 601.0489,413.23153 600.99575,403.66732 C 600.94432,393.21229 629.27052,396.71096 647.58181,396.02151 C 660.91194,395.51961 657.44104,416.10424 681.00998,415.04712 C 707.31006,413.86743 721.16742,372.89241 749.99997,366.50515 C 721.16742,360.1179 707.31006,319.32063 681.00998,318.141 C 657.44104,317.08382 660.91194,337.66851 647.58181,337.1666 C 631.84554,336.57406 608.60907,338.98948 602.41823,333.07699 C 601.50966,332.13935 600.98892,330.90936 600.99575,329.5208 C 601.0489,319.95659 630.03951,317.59995 641.35848,286.84655 C 652.65117,256.16461 616.06847,209.80877 582.14796,207.72137 C 548.22739,205.63392 506.21174,255.7909 505.68992,274.5777 C 519.20093,270.00575 569.14124,251.29286 577.52491,262.30885 C 577.95683,262.91386 578.23518,263.65798 578.41396,264.44256 C 585.51302,295.59204 566.92935,328.15995 524.53772,333.07699 C 489.6287,337.12609 449.11678,337.60165 408.07257,337.34441 C 407.65533,295.12569 407.27018,254.14413 408.42819,217.14527 C 409.76321,174.49023 411.69618,168.30969 424.07541,168.60329 C 460.33271,169.46319 386.32036,224.09184 457.68139,223.72421 C 476.14329,223.63033 482.97214,213.90271 488.2646,195.98595 C 493.557,178.06919 492.15325,167.96044 491.10955,151.00016 C 489.0221,117.07959 382.33789,28.872585 377.13373,0.0399951 z " style="fill:#ff0000;fill-opacity:1;fill-rule:evenodd;stroke:none;stroke-width:1px;stroke-linecap:butt;stroke-linejoin:miter;stroke-opacity:1" id="path9214"/>
</svg>