<?xml version="1.0" standalone="no"?>
<!DOCTYPE svg PUBLIC "-//W3C//DTD SVG 1.0//EN" "http://www.w3.org/TR/2001/REC-SVG-20010904/DTD/svg10.dtd">
<svg width="580" height="580" viewBox="0 0 580 580">
<title>Heraldic Cross Fourchee (Fourchy, Fourche)</title>
<desc>Heraldic Cross Fourchee (Fourchy, Fourche)</desc>
<g transform="scale(0.1,0.1)" style="fill:#000000; stroke:none">
<path d="M1300,3200
C1197.39,3200,1097.26,3231.57,1013.21,3290.42
L521.72,3634.57
L292.29,3306.91
L873.416,2900
L292.29,2493.09
L521.72,2165.43
L1013.21,2509.58
C1097.26,2568.43,1197.39,2600,1300,2600
L2600,2600
L2600,1300
C2600,1197.39,2568.43,1097.26,2509.58,1013.21
L2165.43,521.72
L2493.09,292.29
L2900,873.416
L3306.91,292.29
L3634.57,521.72
L3290.42,1013.21
C3231.57,1097.26,3200,1197.39,3200,1300
L3200,2600
L4500,2600
C4602.61,2600,4702.74,2568.43,4786.79,2509.58
L5278.28,2165.43
L5507.71,2493.09
L4926.58,2900
L5507.71,3306.91
L5278.28,3634.57
L4786.79,3290.42
C4702.74,3231.57,4602.61,3200,4500,3200
L3200,3200
L3200,4500
C3200,4602.61,3231.57,4702.74,3290.42,4786.79
L3634.57,5278.28
L3306.91,5507.71
L2900,4926.58
L2493.09,5507.71
L2165.43,5278.28
L2509.58,4786.79
C2568.43,4702.74,2600,4602.61,2600,4500
L2600,3200Z"/>
</g>
</svg>
