<?xml version="1.0" encoding="UTF-8" standalone="no"?>
<!-- Created with Inkscape (http://www.inkscape.org/) -->
<svg
   xmlns:svg="http://www.w3.org/2000/svg"
   xmlns="http://www.w3.org/2000/svg"
   version="1.0"
   width="600pt"
   height="600pt"
   id="svg2">
  <defs
     id="defs4" />
  <g
     id="layer1">
    <path
       d="M 375.00001,0.464695 C 364.97015,14.734795 345.84988,33.012415 341.59393,63.866745 C 336.07438,103.88145 358.56117,116.65208 348.19409,122.40509 C 339.54959,113.40061 275.49017,80.191565 238.77038,96.117835 C 210.42157,108.41341 177.99619,149.51281 205.01692,194.02913 C 223.49874,224.47765 277.36448,229.17342 309.40367,223.03775 C 293.61633,226.97035 281.903,241.35767 281.903,258.3576 C 281.90306,278.38525 298.17804,294.60389 318.20389,294.60389 C 338.22978,294.60387 354.50477,278.38527 354.50477,258.3576 C 354.50481,252.12241 353.11068,223.29133 349.23622,214.69994 C 335.57551,184.40838 280.03081,196.16772 261.06039,178.33785 C 246.2929,164.47153 259.29803,139.62595 280.68718,141.10724 C 292.64215,141.93517 361.1549,165.56409 360.75755,260.73156 L 360.35228,360.37989 L 260.71301,360.7852 C 165.55419,361.18258 141.92743,292.66361 141.09958,280.70755 C 139.6184,259.31648 164.46173,246.3101 178.32679,261.07897 C 196.15503,280.05114 184.39679,335.60085 214.68557,349.26282 C 223.27616,353.13766 252.10467,354.53185 258.33927,354.53185 C 278.36509,354.53185 294.58226,338.25536 294.58226,318.22766 C 294.58224,298.2 278.36511,281.9235 258.33927,281.92348 C 241.47884,281.92348 227.20554,293.42698 223.13841,309.02134 C 229.16263,276.93488 224.3411,223.44023 194.01665,205.0304 C 149.50436,178.0072 108.4087,210.4356 96.114265,238.78692 C 80.189414,275.51006 113.39546,339.5753 122.39912,348.2206 C 116.64662,358.58862 103.87717,336.09982 63.86611,341.61984 C 33.014578,345.87617 14.796522,364.99822 0.52772455,375.02895 C 14.796504,385.05965 33.014578,404.18173 63.86611,408.43807 C 103.87717,413.95807 116.64664,391.41138 122.39912,401.77941 C 113.39544,410.42474 80.189432,474.54785 96.114265,511.27098 C 108.40869,539.62232 149.50438,571.99281 194.01665,544.96961 C 224.34108,526.55979 229.16265,473.06517 223.13841,440.97867 C 227.20552,456.57307 241.47885,468.07653 258.33927,468.07653 C 278.36509,468.07653 294.58226,451.8 294.58226,431.77235 C 294.58224,411.74467 278.36511,395.46815 258.33927,395.46815 C 252.10465,395.46817 223.27618,396.86236 214.68557,400.73718 C 184.39677,414.39919 196.15505,469.94888 178.32679,488.92104 C 164.46171,503.68992 139.61842,490.68356 141.09958,469.29245 C 141.92741,457.33646 165.5542,388.81742 260.71301,389.2148 L 360.35228,389.62011 L 360.75755,489.26845 C 361.1549,584.43592 292.64215,608.06483 280.68718,608.89278 C 259.29803,610.37406 246.2929,585.52847 261.06039,571.66217 C 280.03081,553.83229 335.57551,565.5916 349.23622,535.30007 C 353.11068,526.70869 354.50481,497.87756 354.50477,491.64241 C 354.50477,471.61474 338.22978,455.3961 318.20389,455.39612 C 298.17804,455.39612 281.90306,471.61473 281.903,491.64241 C 281.903,508.64233 293.61633,523.02964 309.40367,526.96227 C 277.36448,520.82659 223.49874,525.52235 205.01692,555.97087 C 177.99619,600.48721 210.42157,641.58659 238.77038,653.88216 C 275.49017,669.80846 339.54959,636.59938 348.19409,627.59493 C 358.56117,633.34794 336.07438,646.17649 341.59393,686.19115 C 345.84988,717.04551 364.97015,735.2652 375.00001,749.53531 C 385.02982,735.26522 404.15012,717.04552 408.40608,686.19115 C 413.92559,646.17647 391.38098,633.34792 401.74802,627.59493 C 410.39254,636.5994 474.50985,669.80844 511.22964,653.88216 C 539.57839,641.58662 571.94596,600.48719 544.92519,555.97087 C 526.41249,525.47141 472.44224,520.77992 440.42265,526.96227 C 456.26835,523.07085 468.03913,508.68372 468.03911,491.64241 C 468.03909,471.61474 451.76411,455.3961 431.73823,455.39612 C 411.71235,455.39612 395.43738,471.61473 395.43734,491.64241 C 395.43734,497.87758 396.83145,526.70868 400.7059,535.30007 C 414.36662,565.59162 469.91132,553.83227 488.88173,571.66217 C 503.64925,585.52849 490.64408,610.37405 469.25493,608.89278 C 457.29997,608.06485 388.78726,584.4359 389.18456,489.26845 L 389.58983,389.62011 L 489.287,389.2148 C 584.44581,388.81742 608.07262,457.33646 608.90044,469.29245 C 610.38159,490.68356 585.53832,503.68992 571.67322,488.92104 C 553.84496,469.94888 565.60326,414.39919 535.31444,400.73718 C 526.72383,396.86236 497.89539,395.46817 491.66074,395.46815 C 471.6349,395.46815 455.41779,411.74467 455.41775,431.77235 C 455.41775,451.8 471.63494,468.07653 491.66074,468.07653 C 508.70051,468.07653 523.02846,456.30474 526.9195,440.45756 C 520.73773,472.48006 525.48671,526.45523 555.98337,544.96961 C 600.49565,571.99281 641.53345,539.62232 653.82784,511.27098 C 669.75268,474.54785 636.60459,410.42474 627.60089,401.77941 C 633.35338,391.41138 646.12286,413.95807 686.1339,408.43807 C 716.98543,404.18173 735.20347,385.05965 749.47228,375.02895 C 735.20348,364.99822 716.98545,345.87617 686.1339,341.61984 C 646.12284,336.09982 633.35341,358.58862 627.60089,348.2206 C 636.60455,339.5753 669.75272,275.51006 653.82784,238.78692 C 641.53341,210.4356 600.49568,178.0072 555.98337,205.0304 C 525.53762,223.51387 520.78439,277.38458 526.9195,309.42665 C 522.98724,293.63785 508.65916,281.92348 491.66074,281.92348 C 471.6349,281.9235 455.41779,298.2 455.41775,318.22766 C 455.41775,338.25536 471.63494,354.53185 491.66074,354.53185 C 497.89535,354.53185 526.72387,353.13766 535.31444,349.26282 C 565.60322,335.60085 553.845,280.05114 571.67322,261.07897 C 585.53828,246.3101 610.38163,259.31648 608.90044,280.70755 C 608.07259,292.66361 584.44584,361.18258 489.287,360.7852 L 389.58983,360.37989 L 389.18456,260.73156 C 388.78726,165.56407 457.29997,141.93517 469.25493,141.10724 C 490.64408,139.62595 503.64925,164.47153 488.88173,178.33785 C 469.91132,196.16772 414.36662,184.4084 400.7059,214.69994 C 396.83145,223.29131 395.43734,252.12242 395.43734,258.3576 C 395.43738,278.38525 411.71235,294.60389 431.73823,294.60389 C 451.76411,294.60387 468.03909,278.38527 468.03911,258.3576 C 468.03913,241.49565 456.53666,227.22105 440.94372,223.15355 C 473.02727,229.17833 526.51704,224.35634 544.92519,194.02913 C 571.94596,149.51281 539.57839,108.4134 511.22964,96.117835 C 474.50985,80.191565 410.39254,113.40061 401.74802,122.40509 C 391.38098,116.65208 413.92559,103.88145 408.40608,63.866745 C 404.15012,33.012415 385.02982,14.734795 375.00001,0.464695 z M 309.75105,222.97984 C 309.80437,222.96943 309.87155,222.99031 309.92474,222.97984 C 309.7959,223.00996 309.64776,223.00622 309.51947,223.03775 C 309.60555,223.02114 309.66527,222.99659 309.75105,222.97984 z M 440.19107,222.97984 C 440.26469,222.99422 440.34879,223.02348 440.42265,223.03775 C 440.50161,223.053 440.57502,223.08052 440.65423,223.09564 C 440.59022,223.07954 440.48681,223.0535 440.42265,223.03775 C 440.33284,223.01569 440.28115,223.00121 440.19107,222.97984 z M 223.02262,309.71616 C 223.0072,309.78045 222.97979,309.88334 222.96472,309.94776 C 222.98018,309.86922 223.00729,309.79496 223.02262,309.71616 z M 527.09318,439.82064 C 527.07895,439.8921 527.04941,439.98056 527.03529,440.05225 C 527.05252,439.97812 527.07641,439.89494 527.09318,439.82064 z M 222.96472,440.22595 C 222.99756,440.36428 223.0461,440.49353 223.08051,440.63126 C 223.05608,440.50359 222.98952,440.35291 222.96472,440.22595 z "
       style="fill:#226a11;fill-opacity:1;stroke:#000000;stroke-width:0.92969882;stroke-miterlimit:4;stroke-opacity:1"
       id="path2250" />
  </g>
</svg>
