<?xml version="1.0" encoding="UTF-8" standalone="no"?>
<svg xmlns:svg="http://www.w3.org/2000/svg" xmlns="http://www.w3.org/2000/svg" xmlns:xlink="http://www.w3.org/1999/xlink" version="1.1" width="500" height="550">
	<title>Geschakeld Kruis</title>
	<defs>
		<path id="shield" d="M 5,5 H 495 V 300 A 245,245 0 0 1 5,300 V 5 z"/>
		<linearGradient id="LG03">
			<stop style="stop-color:#ffffff;stop-opacity:0.3137255" offset="0"/>
			<stop style="stop-color:#ffffff;stop-opacity:0.25098041" offset="0.19"/>
			<stop style="stop-color:#6b6b6b;stop-opacity:0.1254902" offset="0.6"/>
			<stop style="stop-color:#333333;stop-opacity:0.1254902" offset="1"/>
		</linearGradient>
		<radialGradient id="RG03" xlink:href="#LG03" cx="210" cy="207" fx="210" fy="207" r="245" gradientTransform="matrix(1.31847, 4.26391e-08, -3.26531e-08, 1.00968, -66.8784, -8.94851)" gradientUnits="userSpaceOnUse"/>
	</defs>
	<use xlink:href="#shield" style="fill:#ffff33;stroke:none"/>
	<g style="fill:red;stroke:maroon;stroke-width:2;stroke-opacity:0.5">
		<path d="M 5,188 5,212 53,212 88.90625,247.90625 105.90625,230.90625 62.96875,188 5,188 z M 437.03125,188 337,288 315,288 315,312 346.96875,312 447,212 495,212 495,188 437.03125,188 z M 127.09375,252.09375 110.09375,269.09375 153.03125,312 285,312 285,288 163,288 127.09375,252.09375 z"/>
		<path d="M 153.03125,188 53,288 5,288 5,312 62.96875,312 163,212 185,212 185,188 153.03125,188 z M 215,188 215,212 337,212 372.90625,247.90625 389.90625,230.90625 346.96875,188 215,188 z M 411.09375,252.09375 394.09375,269.09375 437.03125,312 495,312 495,288 447,288 411.09375,252.09375 z"/>
		<path d="M 288,5 288,53 252.09375,88.90625 269.09375,105.90625 312,62.96875 312,5 288,5 z M 230.90625,110.09375 188,153.03125 188,285 212,285 212,163 247.90625,127.09375 230.90625,110.09375 z M 188,315 188,346.96875 288,447 288,540 312,540 312,437.03125 212,337 212,315 188,315 z"/>
		<path d="M 188,5 188,62.96875 288,163 288,185 312,185 312,153.03125 212,53 212,5 188,5 z M 288,215 288,337 252.09375,372.90625 269.09375,389.90625 312,346.96875 312,215 288,215 z M 230.90625,394.09375 188,437.03125 188,540 212,540 212,447 247.90625,411.09375 230.90625,394.09375 z"/>
	</g>
	<use xlink:href="#shield" style="fill:url(#RG03);stroke:none"/>
	<use xlink:href="#shield" style="fill:none;stroke:black;stroke-width:10"/>
</svg>