<?xml version="1.0" standalone="no"?>
<!DOCTYPE svg PUBLIC "-//W3C//DTD SVG 1.0//EN" "http://www.w3.org/TR/2001/REC-SVG-20010904/DTD/svg10.dtd">
<svg width="580" height="600" viewBox="0 0 580 600" xmlns:svg="http://www.w3.org/2000/svg" xmlns:xlink="http://www.w3.org/1999/xlink" xmlns="http://www.w3.org/2000/svg">
<title>Basic Celtic knotwork cross on shield.  By AnonMoos (public domain)</title>
<defs>
<path id="OuterLoop" d="M450.698,337.671
C440.707,347.662,427.156,353.275,413.027,353.275
C398.897,353.275,385.346,347.662,375.355,337.671
L262.342,224.658
C252.351,214.667,246.738,201.116,246.738,186.987
C246.738,172.857,252.351,159.306,262.342,149.316
L337.684,73.9734
C347.675,63.9827,353.288,50.4316,353.288,36.3022
L353.288,21.2339
H246.738
V36.3022
C246.738,50.4316,252.351,63.9827,262.342,73.9734
L337.684,149.316
C347.675,159.306,353.288,172.857,353.288,186.987
C353.288,201.116,347.675,214.667,337.684,224.658
L224.671,337.671
C214.68,347.662,201.129,353.275,187,353.275
C172.871,353.275,159.32,347.662,149.329,337.671
L73.9868,262.329
C63.9958,252.338,50.4448,246.725,36.3157,246.725
L21.2473,246.725
V353.275
H36.3157
C50.4448,353.275,63.9958,347.662,73.9868,337.671
L149.329,262.329
C159.32,252.338,172.871,246.725,187,246.725
C201.129,246.725,214.68,252.338,224.671,262.329
L337.684,375.342
C347.675,385.333,353.288,398.884,353.288,413.013
C353.288,427.143,347.675,440.694,337.684,450.684
L262.342,526.027
C252.351,536.017,246.738,549.568,246.738,563.698
L246.738,578.766
H353.288
V563.698
C353.288,549.568,347.675,536.017,337.684,526.027
L262.342,450.684
C252.351,440.694,246.738,427.143,246.738,413.013
C246.738,398.884,252.351,385.333,262.342,375.342
L375.355,262.329
C385.346,252.338,398.897,246.725,413.027,246.725
C427.156,246.725,440.707,252.338,450.698,262.329
L526.04,337.671
C536.031,347.662,549.582,353.275,563.711,353.275
L578.78,353.275
V246.725
H563.711
C549.582,246.725,536.031,252.338,526.04,262.329Z"/>
<path id="InnerLoop" d="M149.329,337.671
C139.338,347.662,125.787,353.275,111.658,353.275
C82.2351,353.275,58.3828,329.423,58.3828,300
C58.3828,270.577,82.2351,246.725,111.658,246.725
C125.787,246.725,139.338,252.338,149.329,262.329
L337.684,450.684
C347.675,460.675,353.288,474.226,353.288,488.355
C353.288,517.778,329.436,541.63,300.013,541.63
C270.59,541.63,246.738,517.778,246.738,488.355
C246.738,474.226,252.351,460.675,262.342,450.684
L450.698,262.329
C460.688,252.338,474.24,246.725,488.369,246.725
C517.792,246.725,541.644,270.577,541.644,300
C541.644,329.423,517.792,353.275,488.369,353.275
C474.24,353.275,460.688,347.662,450.698,337.671
L262.342,149.316
C252.351,139.325,246.738,125.774,246.738,111.645
C246.738,82.2217,270.59,58.3696,300.013,58.3696
C329.436,58.3696,353.288,82.2217,353.288,111.645
C353.288,125.774,347.675,139.325,337.684,149.316Z"/>
</defs>
<g transform="translate(-506,620.6) scale(0.185,-0.185)" style="stroke:#000000;fill:#009944;stroke-width:30">
<title>Background shield (filled green)</title>
<path d="M5806.2,1672.76
v1626.49
h-3011.33
v-1626.49
c0,-28.46,0,-28.46,5.69,-96.77
c91.08,-1092.96,922.18,-1411.74,1491.43,-1411.74
h22.77
c569.25,0,1394.66,318.78,1485.74,1411.74
c5.69,68.31,5.69,68.31,5.69,96.77"/>
</g>
<g transform="translate(13.5,572) scale(0.92,-0.92)" stroke-width="21.31" stroke="rgb(0,0,0)" fill="none">
<use x="0" y="0" xlink:href="#OuterLoop"/>
<use stroke-width="10.655" stroke="rgb(255,242,0)" x="0" y="0" xlink:href="#OuterLoop"/>
<use x="0" y="0" xlink:href="#InnerLoop"/>
<use stroke-width="10.655" stroke="rgb(255,242,0)" x="0" y="0" xlink:href="#InnerLoop"/>
<path d="M480.377,307.991
L496.36,292.009
M405.035,307.991
L421.018,292.009
M329.693,307.991
L345.676,292.009
M254.351,307.991
L270.333,292.009
M179.009,307.991
L194.991,292.009
M103.667,307.991
L119.649,292.009
M308.004,421.004
L292.022,405.022
M308.004,496.347
L292.022,480.364
M308.004,194.978
L292.022,178.996
M308.004,119.636
L292.022,103.653
M308.004,345.662
L292.022,329.68
M308.004,270.32
L292.022,254.338
M186.07,353.267
C172.265,353.026,159.092,347.434,149.329,337.671
L133.347,321.688
M37.2454,246.733
C51.0505,246.974,64.2236,252.566,73.9868,262.329
L89.9692,278.312
M187.93,246.733
C201.735,246.974,214.908,252.566,224.671,262.329
L240.653,278.312
M562.781,353.267
C548.976,353.026,535.803,347.434,526.04,337.671
L510.058,321.688
M246.746,412.083
C246.987,398.278,252.579,385.105,262.342,375.342
L278.324,359.36
M353.28,413.943
C353.039,427.748,347.448,440.921,337.684,450.684
L321.702,466.667
M246.746,562.768
C246.987,548.963,252.579,535.79,262.342,526.027
L278.324,510.044
M353.28,37.2322
C353.039,51.0374,347.448,64.2102,337.684,73.9734
L321.702,89.9558
M246.746,186.057
C246.987,172.252,252.579,159.079,262.342,149.316
L278.324,133.333
M353.28,187.917
C353.039,201.722,347.448,214.895,337.684,224.658
L321.702,240.64
M412.097,353.267
C398.292,353.026,385.119,347.434,375.355,337.671
L359.373,321.688
M413.956,246.733
C427.761,246.974,440.935,252.566,450.698,262.329
L466.68,278.312"/>
<g stroke-width="10.655" stroke="rgb(255,242,0)">
<path d="M479.845,308.524
L496.893,291.476
M404.503,308.524
L421.551,291.476
M329.16,308.524
L346.208,291.476
M253.818,308.524
L270.866,291.476
M178.476,308.524
L195.524,291.476
M103.134,308.524
L120.182,291.476
M308.537,421.537
L291.489,404.489
M308.537,496.879
L291.489,479.832
M308.537,195.511
L291.489,178.463
M308.537,120.168
L291.489,103.121
M308.537,346.195
L291.489,329.147
M308.537,270.853
L291.489,253.805
M187,353.275
C172.871,353.275,159.32,347.662,149.329,337.671
L132.814,321.156
M36.3157,246.725
C50.4448,246.725,63.9958,252.338,73.9868,262.329
L90.502,278.844
M187,246.725
C201.129,246.725,214.68,252.338,224.671,262.329
L241.186,278.844
M563.711,353.275
C549.582,353.275,536.031,347.662,526.04,337.671
L509.525,321.156
M246.738,413.013
C246.738,398.884,252.351,385.333,262.342,375.342
L278.857,358.827
M353.288,413.013
C353.288,427.143,347.675,440.694,337.684,450.684
L321.169,467.199
M246.738,563.698
C246.738,549.568,252.351,536.017,262.342,526.027
L278.857,509.511
M353.288,36.3022
C353.288,50.4316,347.675,63.9827,337.684,73.9734
L321.169,90.4885
M246.738,186.987
C246.738,172.857,252.351,159.306,262.342,149.316
L278.857,132.801
M353.288,186.987
C353.288,201.116,347.675,214.667,337.684,224.658
L321.169,241.173
M413.027,353.275
C398.897,353.275,385.346,347.662,375.355,337.671
L358.84,321.156
M413.027,246.725
C427.156,246.725,440.707,252.338,450.698,262.329
L467.213,278.844"/>
</g>
</g>
</svg>
