<?xml version="1.0" encoding="UTF-8" standalone="no"?>
<!-- Created with Inkscape (http://www.inkscape.org/) -->

<svg
   xmlns:dc="http://purl.org/dc/elements/1.1/"
   xmlns:cc="http://creativecommons.org/ns#"
   xmlns:rdf="http://www.w3.org/1999/02/22-rdf-syntax-ns#"
   xmlns:svg="http://www.w3.org/2000/svg"
   xmlns="http://www.w3.org/2000/svg"
   version="1.1"
   width="260"
   height="300"
   id="svg2">
  <metadata
     id="metadata62">
    <rdf:RDF>
      <cc:Work
         rdf:about="">
        <dc:format>image/svg+xml</dc:format>
        <dc:type
           rdf:resource="http://purl.org/dc/dcmitype/StillImage" />
        <dc:title></dc:title>
      </cc:Work>
    </rdf:RDF>
  </metadata>
  <defs
     id="defs4">
    <filter
       color-interpolation-filters="sRGB"
       id="filter3622">
      <feGaussianBlur
         id="feGaussianBlur3624"
         stdDeviation="5.34" />
    </filter>
  </defs>
  <g
     transform="translate(2.5,2.5)"
     id="g3038">
    <path
       d="M 4,4 4,74.55637699999998 C 4,215.44823 107.88712,280.47591 127.5,291 c 19.61288,-10.52409 123.5,-75.55177 123.5,-216.443623 L 251,4 4,4 z"
       id="rect3612"
       style="fill:#ffffff;fill-opacity:1;stroke:#000000;stroke-width:3;stroke-miterlimit:4;stroke-dasharray:none" />
    <path
       d="M 127.48369,20.706096 C 122.43643,29.18552 118.72972,40.883639 120.53371,58.849398 c -4.36808,-4.708531 -11.58701,-9.09227500000001 -18.92482,-9.46241 18.64327,18.64059899999999 22.89128,46.847248 25.8748,75.927682 2.98351,-29.08043400000001 7.26415,-57.287083 25.90742,-75.927682 -7.33781,0.370135 -14.55674,4.753879 -18.92482,9.46241 C 136.27028,40.883639 132.53094,29.18552 127.48369,20.706096 z M 44.312361,106.68351 c 0.370135,7.33782 4.753879,14.55674 9.462411,18.92483 C 35.809012,123.80435 24.110893,127.54368 15.631469,132.59094 24.110893,137.6382 35.809012,141.3449 53.774772,139.54092 49.06624,143.909 44.682496,151.12793 44.312361,158.46574 62.95296,139.82247 91.15960899999997,135.57445 120.24005,132.59094 91.15960899999997,129.60743 62.95296,125.32679 44.312361,106.68351 z M 210.68764,106.68351 c -18.6406,18.64328 -46.84725,22.92392 -75.92769,25.90743 29.08044,2.98351 57.28709,7.23153 75.92769,25.8748 -0.37014,-7.33781 -4.75388,-14.55674 -9.46241,-18.92482 17.96576,1.80398 29.66388,-1.90272 38.1433,-6.94998 -8.47942,-5.04726 -20.17754,-8.78659 -38.1433,-6.9826 4.70853,-4.36809 9.09227,-11.58701 9.46241,-18.92483 z m -100.30155,1.99037 c -3.74827,0 -6.78683,3.03857 -6.78683,6.78684 0,3.74826 3.03856,6.78683 6.78683,6.78683 3.74826,0 6.78683,-3.03857 6.78683,-6.78683 0,-3.74827 -3.03857,-6.78684 -6.78683,-6.78684 z m 34.22782,0 c -3.74826,0 -6.78683,3.03857 -6.78683,6.78684 0,3.74826 3.03857,6.78683 6.78683,6.78683 3.74827,0 6.78683,-3.03857 6.78683,-6.78683 0,-3.74827 -3.03856,-6.78684 -6.78683,-6.78684 z m -17.13022,31.1607 c -2.98352,29.08044 -7.23153,57.28709 -25.8748,75.92769 7.33781,-0.37014 14.55674,-4.75388 18.92482,-9.46241 -1.80399,17.96575 1.90272,29.66387 6.94998,38.1433 5.04725,-8.47943 8.78659,-20.17755 6.9826,-38.1433 4.36808,4.70853 11.58701,9.09227 18.92482,9.46241 -18.64327,-18.6406 -22.92391,-46.84725 -25.90742,-75.92769 z m -17.0976,3.06713 c -3.74827,0 -6.78683,3.03856 -6.78683,6.78683 0,3.74826 3.03856,6.78683 6.78683,6.78683 3.74826,0 6.78683,-3.03857 6.78683,-6.78683 0,-3.74827 -3.03857,-6.78683 -6.78683,-6.78683 z m 34.22782,0 c -3.74826,0 -6.78683,3.03856 -6.78683,6.78683 0,3.74826 3.03857,6.78683 6.78683,6.78683 3.74827,0 6.78683,-3.03857 6.78683,-6.78683 0,-3.74827 -3.03856,-6.78683 -6.78683,-6.78683 z"
       id="path4310"
       style="fill:#000000;stroke:none" />
  </g>
</svg>
