<?xml version="1.0" encoding="UTF-8" standalone="no"?>
<svg xmlns:svg="http://www.w3.org/2000/svg" xmlns="http://www.w3.org/2000/svg" version="1.0" width="500" height="550">
	<title>Knoopkruis</title>
	<path d="M 5,5 H 495 V 300 A 245,245 0 0 1 5,300 V 5 z" style="fill:black;stroke:none"/>
	<g style="fill:white;stroke:none">
		<rect width="92" height="195" x="204" y="5"/>
		<rect width="92" height="236" x="204" y="308"/>
		<rect width="132" height="92" x="184" y="208"/>
		<path d="m 84,88 0,332 112,0 0,-92 -20,0 0,-148 20,0 0,-92 z"/>
		<path d="m 416,88 0,332 -112,0 0,-92 20,0 0,-148 -20,0 0,-92 z"/>
		<rect width="71" height="92" x="5" y="208"/>
		<rect width="71" height="92" x="424" y="208"/>
		</g>
		<path d="M 5,5 H 495 V 300 A 245,245 0 0 1 5,300 V 5 z" style="fill:none;stroke:black;stroke-width:10"/>
</svg>