<?xml version="1.0" encoding="UTF-8" standalone="no"?>
<svg xmlns:svg="http://www.w3.org/2000/svg" xmlns="http://www.w3.org/2000/svg" xmlns:xlink="http://www.w3.org/1999/xlink" version="1.0" width="500" height="550">
	<title>Kruis van Negen Ruiten</title>
	<defs>
		<linearGradient id="LG1">
			<stop style="stop-color:#ffffff;stop-opacity:1" offset="0"/>
			<stop style="stop-color:#ebebeb;stop-opacity:1" offset="1"/>
		</linearGradient>
		<radialGradient id="RG1" xlink:href="#LG1" cx="250" cy="275" r="250" fx="250" fy="275" gradientUnits="userSpaceOnUse" gradientTransform="matrix(0.98, 0, 0, 1.06, 5, -16.5)"/>
		<clipPath id="CP1">
			<path d="M 5,5 H 495 V 300 A 245,245 0 0 1 5,300 V 5 z"/>
		</clipPath>
	</defs>
	<path d="M 5,5 H 495 V 300 A 245,245 0 0 1 5,300 V 5 z" style="fill:url(#RG1);stroke:none"/>
	<g clip-path="url(#CP1)">
		<path id="diamantine" style="fill:red;stroke:#800000;stroke-width:1" d="M 312.5,10 l -125,125 l 125,125 l -125,125 l 125,125 l -62.5,62.5 l -62.5,-62.5 l 125,-125 l -125,-125 l 125,-125 l -125,-125 l 62.5,-62.5 z"/>
		<use xlink:href="#diamantine" transform="matrix(0, 1, -1, 0, 510, 10)"/>
	</g>
	<path d="M 5,5 H 495 V 300 A 245,245 0 0 1 5,300 V 5 z" style="fill:none;stroke:#000000;stroke-width:10"/>
</svg>