<?xml version="1.0" encoding="UTF-8" standalone="no"?>
<svg xmlns:svg="http://www.w3.org/2000/svg" xmlns="http://www.w3.org/2000/svg" xmlns:xlink="http://www.w3.org/1999/xlink" version="1.1" width="500" height="550">
	<title>Lateranenkruis</title>
	<defs>
		<path id="shield" d="M 5,5 H 495 V 300 A 245,245 0 0 1 5,300 V 5 z"/>
		<linearGradient id="LG03">
			<stop style="stop-color:#ffffff;stop-opacity:0.3137255" offset="0"/>
			<stop style="stop-color:#ffffff;stop-opacity:0.25098041" offset="0.19"/>
			<stop style="stop-color:#6b6b6b;stop-opacity:0.1254902" offset="0.6"/>
			<stop style="stop-color:#000000;stop-opacity:0.1254902" offset="1"/>
		</linearGradient>
		<radialGradient id="RG03" xlink:href="#LG03" cx="210" cy="207" fx="210" fy="207" r="245" gradientTransform="matrix(1.31847, 0, 0, 1, -66.8784, -8.94851)" gradientUnits="userSpaceOnUse"/>
	</defs>
	<use xlink:href="#shield" style="fill:green;stroke:none"/>
	<path d="M 250,30 C 218.3685,30 192.47706,54.484552 190.1875,85.53125 141.74442,103.214 103.214,141.74442 85.53125,190.1875 54.484552,192.47706 30,218.3685 30,250 30,281.6315 54.484552,307.52294 85.53125,309.8125 103.214,358.25558 141.74442,396.786 190.1875,414.46875 192.47706,445.51544 218.3685,470 250,470 281.6315,470 307.52294,445.51544 309.8125,414.46875 358.25558,396.786 396.786,358.25558 414.46875,309.8125 445.51544,307.52294 470,281.6315 470,250 470,218.3685 445.51544,192.47706 414.46875,190.1875 396.786,141.74442 358.25558,103.214 309.8125,85.53125 307.52294,54.484552 281.6315,30 250,30 z M 195.6875,115.46875 C 201.71532,128.27141 212.13179,138.61842 225,144.53125 L 225,182.46875 C 205.35173,189.7463 189.7463,205.35173 182.46875,225 L 144.53125,225 C 138.61842,212.13179 128.27141,201.71532 115.46875,195.6875 130.15447,159.21289 159.21289,130.15447 195.6875,115.46875 z M 304.3125,115.46875 C 340.78711,130.15447 369.84553,159.21289 384.53125,195.6875 371.72859,201.71532 361.38158,212.13179 355.46875,225 L 317.53125,225 C 310.2537,205.35173 294.64827,189.7463 275,182.46875 L 275,144.53125 C 287.86821,138.61842 298.28468,128.27141 304.3125,115.46875 z M 144.53125,275 182.46875,275 C 189.7463,294.64827 205.35173,310.2537 225,317.53125 L 225,355.46875 C 212.13179,361.38158 201.71532,371.72859 195.6875,384.53125 159.21289,369.84553 130.15447,340.78711 115.46875,304.3125 128.27141,298.28468 138.61842,287.86821 144.53125,275 z M 317.53125,275 355.46875,275 C 361.38158,287.86821 371.72859,298.28468 384.53125,304.3125 369.84553,340.78711 340.78711,369.84553 304.3125,384.53125 298.28468,371.72859 287.86821,361.38158 275,355.46875 L 275,317.53125 C 294.64827,310.2537 310.2537,294.64827 317.53125,275 z" style="fill:yellow;stroke:yellow;stroke-width:1;stroke-opacity:0.5"/>
	<use xlink:href="#shield" style="fill:url(#RG03);stroke:none"/>
	<use xlink:href="#shield" style="fill:none;stroke:black;stroke-width:10"/>
</svg>