<?xml version="1.0" encoding="UTF-8" standalone="no"?>
<svg xmlns:svg="http://www.w3.org/2000/svg" xmlns="http://www.w3.org/2000/svg" xmlns:xlink="http://www.w3.org/1999/xlink" version="1.1" width="500" height="550">
	<title>Maliekruis</title>
	<defs>
		<linearGradient id="LG01">
			<stop style="stop-color:#ffffff;stop-opacity:1" offset="0"/>
			<stop style="stop-color:#ffffff;stop-opacity:1" offset="0.4"/>
			<stop style="stop-color:#f0f0f0;stop-opacity:1" offset="1"/>
		</linearGradient>
		<radialGradient id="RG01" xlink:href="#LG01" cx="250" cy="275" r="250" fx="250" fy="275" gradientUnits="userSpaceOnUse" gradientTransform="matrix(1, 0, 0, 1.1, 0, -27.5)"/>
	</defs>
	<path d="M 5,5 H 495 V 300 A 245,245 0 0 1 5,300 V 5 z" style="fill:url(#RG01);stroke:none"/>
	<path d="M 250,39 181.87267,157 250,275 132,206.87267 14,275 132,343.12733 250,275 181.87267,393 250,511 318.12733,393 250,275 368,343.12733 486,275 368,206.87267 250,275 318.12733,157 z" style="fill:red;stroke:black;stroke-width:4"/>
	<path d="M 5,5 H 495 V 300 A 245,245 0 0 1 5,300 V 5 z" style="fill:none;stroke:black;stroke-width:10"/>
</svg>