<?xml version="1.0" encoding="UTF-8" standalone="no"?>
<!-- Created with Inkscape (http://www.inkscape.org/) -->
<svg
   xmlns:dc="http://purl.org/dc/elements/1.1/"
   xmlns:cc="http://web.resource.org/cc/"
   xmlns:rdf="http://www.w3.org/1999/02/22-rdf-syntax-ns#"
   xmlns:svg="http://www.w3.org/2000/svg"
   xmlns="http://www.w3.org/2000/svg"
   xmlns:xlink="http://www.w3.org/1999/xlink"
   xmlns:sodipodi="http://sodipodi.sourceforge.net/DTD/sodipodi-0.dtd"
   xmlns:inkscape="http://www.inkscape.org/namespaces/inkscape"
   version="1.0"
   width="350"
   height="250"
   id="svg1403"
   sodipodi:version="0.32"
   inkscape:version="0.44"
   sodipodi:docname="Meuble_corbeau.svg"
   sodipodi:docbase="C:\Documents and Settings\Henry SALOME\Mes documents\Mes images\Blasons\Inkscape\Pièces &amp; meubles">
  <metadata
     id="metadata2053">
    <rdf:RDF>
      <cc:Work
         rdf:about="">
        <dc:format>image/svg+xml</dc:format>
        <dc:type
           rdf:resource="http://purl.org/dc/dcmitype/StillImage" />
      </cc:Work>
    </rdf:RDF>
  </metadata>
  <sodipodi:namedview
     inkscape:window-height="708"
     inkscape:window-width="1024"
     inkscape:pageshadow="2"
     inkscape:pageopacity="0.0"
     guidetolerance="10.0"
     gridtolerance="10.0"
     objecttolerance="10.0"
     borderopacity="1.0"
     bordercolor="#666666"
     pagecolor="#ffffff"
     id="base"
     width="350px"
     height="250px"
     inkscape:zoom="0.845651"
     inkscape:cx="124.42925"
     inkscape:cy="40.255473"
     inkscape:window-x="-4"
     inkscape:window-y="-4"
     inkscape:current-layer="svg1403" />
  <defs
     id="defs1405">
    <linearGradient
       x1="107.7496"
       y1="191.96266"
       x2="139.39598"
       y2="166.38455"
       id="linearGradient1800"
       xlink:href="#linearGradient1732"
       gradientUnits="userSpaceOnUse"
       gradientTransform="translate(-1.428571e-5,-5.714286e-5)" />
    <linearGradient
       x1="82.14286"
       y1="264.16666"
       x2="113.69048"
       y2="258.41269"
       id="linearGradient1590"
       xlink:href="#linearGradient1732"
       gradientUnits="userSpaceOnUse"
       gradientTransform="translate(-1.428571e-5,-5.714286e-5)" />
    <linearGradient
       x1="84.126984"
       y1="260.59525"
       x2="115.67461"
       y2="257.61905"
       id="linearGradient1598"
       xlink:href="#linearGradient1732"
       gradientUnits="userSpaceOnUse"
       gradientTransform="translate(-1.428571e-5,-5.714286e-5)" />
    <linearGradient
       x1="88.492065"
       y1="297.10318"
       x2="118.05556"
       y2="280.63492"
       id="linearGradient1606"
       xlink:href="#linearGradient1732"
       gradientUnits="userSpaceOnUse"
       gradientTransform="translate(-1.428571e-5,-5.714286e-5)" />
    <linearGradient
       x1="118.45238"
       y1="312.77777"
       x2="136.32533"
       y2="294.72223"
       id="linearGradient1614"
       xlink:href="#linearGradient1732"
       gradientUnits="userSpaceOnUse"
       gradientTransform="translate(-1.428571e-5,-5.714286e-5)" />
    <linearGradient
       x1="131.15079"
       y1="395.31747"
       x2="166.66667"
       y2="415.35715"
       id="linearGradient1622"
       xlink:href="#linearGradient1732"
       gradientUnits="userSpaceOnUse"
       gradientTransform="translate(-1.428571e-5,-5.714286e-5)" />
    <linearGradient
       x1="107.14286"
       y1="225.27779"
       x2="130.35715"
       y2="242.34128"
       id="linearGradient1582"
       xlink:href="#linearGradient1732"
       gradientUnits="userSpaceOnUse"
       gradientTransform="translate(-1.428571e-5,-5.714286e-5)" />
    <linearGradient
       x1="143.65079"
       y1="488.96826"
       x2="163.88889"
       y2="454.04761"
       id="linearGradient1642"
       xlink:href="#linearGradient1732"
       gradientUnits="userSpaceOnUse"
       gradientTransform="translate(-1.428571e-5,-5.714286e-5)" />
    <linearGradient
       x1="186.50793"
       y1="491.74603"
       x2="186.50793"
       y2="458.41269"
       id="linearGradient1650"
       xlink:href="#linearGradient1732"
       gradientUnits="userSpaceOnUse"
       gradientTransform="translate(-1.428571e-5,-5.714286e-5)" />
    <linearGradient
       x1="292.85715"
       y1="493.73016"
       x2="321.82541"
       y2="513.17462"
       id="linearGradient1658"
       xlink:href="#linearGradient1732"
       gradientUnits="userSpaceOnUse"
       gradientTransform="translate(-1.428571e-5,-5.714286e-5)" />
    <linearGradient
       x1="266.26984"
       y1="534.20636"
       x2="312.30157"
       y2="534.60315"
       id="linearGradient1666"
       xlink:href="#linearGradient1732"
       gradientUnits="userSpaceOnUse"
       gradientTransform="translate(-1.428571e-5,-5.714286e-5)" />
    <linearGradient
       x1="300"
       y1="566.74603"
       x2="319.15079"
       y2="547.59521"
       id="linearGradient1674"
       xlink:href="#linearGradient1732"
       gradientUnits="userSpaceOnUse"
       gradientTransform="translate(-1.428571e-5,-5.714286e-5)" />
    <linearGradient
       x1="337.30157"
       y1="571.11108"
       x2="341.26984"
       y2="546.90479"
       id="linearGradient1682"
       xlink:href="#linearGradient1732"
       gradientUnits="userSpaceOnUse"
       gradientTransform="translate(-1.428571e-5,-5.714286e-5)" />
    <linearGradient
       x1="241.1429"
       y1="51.4207"
       x2="243.12413"
       y2="48.302807"
       id="linearGradient1397"
       xlink:href="#linearGradient1732"
       gradientUnits="userSpaceOnUse"
       gradientTransform="translate(75.92347,47.10196)" />
    <linearGradient
       id="linearGradient1732">
      <stop
         style="stop-color:#ffffff;stop-opacity:1"
         offset="0"
         id="stop1734" />
      <stop
         style="stop-color:#ffffff;stop-opacity:1"
         offset="1"
         id="stop1736" />
    </linearGradient>
    <linearGradient
       x1="177.33789"
       y1="217.77766"
       x2="211.82967"
       y2="213.55009"
       id="linearGradient1549"
       xlink:href="#linearGradient1732"
       gradientUnits="userSpaceOnUse"
       gradientTransform="translate(-1.428571e-5,-5.714286e-5)" />
    <linearGradient
       x1="124.58548"
       y1="115.64002"
       x2="157.20032"
       y2="137.97067"
       id="linearGradient1551"
       xlink:href="#linearGradient1732"
       gradientUnits="userSpaceOnUse"
       gradientTransform="translate(-1.428571e-5,-5.714286e-5)" />
    <linearGradient
       x1="87.546555"
       y1="139.21025"
       x2="124.361"
       y2="137.97067"
       id="linearGradient1553"
       xlink:href="#linearGradient1732"
       gradientUnits="userSpaceOnUse"
       gradientTransform="translate(-1.428571e-5,-5.714286e-5)" />
    <linearGradient
       x1="112.23917"
       y1="75.233917"
       x2="137.60522"
       y2="90.41172"
       id="linearGradient1555"
       xlink:href="#linearGradient1732"
       gradientUnits="userSpaceOnUse"
       gradientTransform="translate(-1.428571e-5,-5.714286e-5)" />
    <linearGradient
       x1="179.58267"
       y1="75.233917"
       x2="193.02094"
       y2="101.81393"
       id="linearGradient1557"
       xlink:href="#linearGradient1732"
       gradientUnits="userSpaceOnUse"
       gradientTransform="translate(-1.428571e-5,-5.714286e-5)" />
    <linearGradient
       x1="270.4964"
       y1="176.24918"
       x2="296.92871"
       y2="185.71556"
       id="linearGradient1559"
       xlink:href="#linearGradient1732"
       gradientUnits="userSpaceOnUse"
       gradientTransform="translate(-1.428571e-5,-5.714286e-5)" />
    <linearGradient
       x1="94.280907"
       y1="496.1308"
       x2="124.13653"
       y2="467.62207"
       id="linearGradient1561"
       xlink:href="#linearGradient1732"
       gradientUnits="userSpaceOnUse"
       gradientTransform="translate(-1.428571e-5,-5.714286e-5)" />
    <linearGradient
       x1="171"
       y1="92.5"
       x2="180"
       y2="96.5"
       id="linearGradient2433"
       xlink:href="#linearGradient1732"
       gradientUnits="userSpaceOnUse" />
  </defs>
  <g
     id="g5454">
    <path
       sodipodi:nodetypes="cccc"
       id="path6621"
       d="M 27.756538,35.24272 C 45.087044,39.427541 55.400775,44.461878 64.442747,48.646713 L 65.390174,26.148649 C 46.676018,27.791443 40.08902,29.345575 27.756538,35.24272 z "
       style="fill:#fcef3c;fill-opacity:1;fill-rule:evenodd;stroke:black;stroke-width:3;stroke-linecap:butt;stroke-linejoin:miter;stroke-miterlimit:4;stroke-dasharray:none;stroke-opacity:1" />
    <path
       sodipodi:nodetypes="cccccccccccccsccccccccc"
       id="path6623"
       d="M 64.707817,27.220132 C 100.18372,10.222323 110.48718,41.052536 125.89494,62.18419 C 137.79845,73.737871 154.10464,79.392413 179.93027,98.737522 C 210.24807,110.12733 238.40624,122.07903 249.85848,132.90694 L 241.1174,133.70157 L 309.45631,157.5407 C 310.58668,162.04317 310.64814,163.37152 321.37582,167.07635 L 321.37582,171.04954 C 327.76879,174.99036 273.88483,163.0688 244.29597,157.5407 C 227.87792,156.21779 215.41963,156.74457 205.35872,157.5407 C 184.44906,164.3459 187.50827,174.49984 174.36791,175.02273 L 175.27045,178.73518 C 168.73234,175.73244 163.85559,178.36251 158.14583,174.46083 C 163.17097,184.32796 167.11983,184.70707 164.38856,192.36281 C 163.50542,196.00416 161.80314,187.19307 162.54469,202.27314 L 148.84303,200.68387 C 151.0957,198.38477 150.81307,191.68187 147.02096,182.87269 L 143.44705,185.44369 L 133.84138,185.35301 C 138.37364,174.58073 135.94557,168.86607 134.63602,166.28171 C 117.40548,152.51486 119.94503,161.2514 98.523636,145.27617 C 61.473312,114.8639 81.236883,57.492523 61.529243,45.496791 C 64.518077,39.404571 64.651178,33.312352 64.707817,27.220132 z "
       style="fill:black;fill-opacity:1;fill-rule:evenodd;stroke:black;stroke-width:7.53104448;stroke-linecap:butt;stroke-linejoin:round;stroke-miterlimit:4;stroke-dasharray:none;stroke-opacity:1" />
    <path
       sodipodi:nodetypes="czz"
       id="path3674"
       d="M 75.533525,33.598671 C 75.542849,28.466603 83.155439,28.390043 83.21991,33.59867 C 83.284381,38.807298 75.524204,38.728878 75.533525,33.598671 z "
       style="fill:black;fill-rule:evenodd;stroke:white;stroke-width:3;stroke-linecap:butt;stroke-linejoin:round;stroke-opacity:1;fill-opacity:1;stroke-miterlimit:4;stroke-dasharray:none" />
    <path
       sodipodi:nodetypes="cccccccccc"
       id="path6627"
       d="M 149.11883,203.28897 C 138.656,212.89839 129.40373,217.79928 111.23152,220.62206 C 116.58711,222.9634 119.90442,223.27759 122.04625,223.42774 C 120.66911,224.98306 115.56982,228.88048 112.42529,231.66826 C 118.87434,230.98722 124.22876,227.6846 127.24265,225.97955 C 127.8691,228.25851 127.58791,227.09886 128.75153,231.87085 C 131.56924,228.29664 130.75255,229.20304 133.39772,226.43037 C 137.20094,229.54458 140.31603,229.75813 141.09524,229.82842 C 128.02327,220.27473 150.13126,213.0705 159.76822,204.54322 L 149.11883,203.28897 z "
       style="fill:#fcef3c;fill-opacity:1;fill-rule:evenodd;stroke:black;stroke-width:3;stroke-linecap:butt;stroke-linejoin:miter;stroke-miterlimit:3;stroke-dasharray:none;stroke-opacity:1;display:inline" />
    <path
       sodipodi:nodetypes="cccccccccc"
       id="path4561"
       d="M 133.40011,185.74799 C 122.93728,195.35741 113.68501,200.2583 95.512797,203.08108 C 100.86839,205.42242 104.1857,205.73661 106.32753,205.88676 C 104.95039,207.44208 99.851097,211.3395 96.706567,214.12728 C 103.15562,213.44624 108.51004,210.14362 111.52393,208.43857 C 112.15038,210.71753 111.86919,209.55788 113.03281,214.32987 C 115.85052,210.75566 115.03383,211.66206 117.679,208.88939 C 121.48222,212.0036 124.59731,212.21715 125.37652,212.28744 C 112.30455,202.73375 134.41254,195.52952 144.0495,187.00224 L 133.40011,185.74799 z "
       style="fill:#fcef3c;fill-opacity:1;fill-rule:evenodd;stroke:black;stroke-width:3;stroke-linecap:butt;stroke-linejoin:miter;stroke-miterlimit:3;stroke-dasharray:none;stroke-opacity:1;display:inline" />
  </g>
</svg>
