<?xml version="1.0" encoding="UTF-8" standalone="no"?>
<!-- Created with Inkscape (http://www.inkscape.org/) -->

<svg
   xmlns:svg="http://www.w3.org/2000/svg"
   xmlns="http://www.w3.org/2000/svg"
   version="1.0"
   width="408.81543"
   height="451.2468"
   id="svg2">
  <defs
     id="defs4" />
  <path
     d="m 1.8833662,1.8833262 0,261.0945238 0.0664,0 c 2.60366,100.96527 93.7455298,186.38563 203.0574638,186.38563 109.31193,0 199.01324,-86.12188 201.61689,-187.08712 l 0.308,-260.3930338 -405.0487938,0 z"
     id="rect1317"
     style="fill:#ffffff;fill-opacity:1;fill-rule:evenodd;stroke:#000000;stroke-width:3.76665235;stroke-linecap:round;stroke-linejoin:miter;stroke-miterlimit:4;stroke-opacity:1;stroke-dasharray:none;stroke-dashoffset:0" />
  <g
     transform="translate(-160.94578,-521.73903)"
     id="g4723" />
  <path
     d="m 145.06729,69.266788 c -32.50644,0 -59.03743,71.356422 -37.52707,116.677362 25.25747,53.21581 17.0769,85.86224 -43.828707,69.54601 l 0,28.87654 C 140.71507,304.73115 178.60096,242.27702 148.33929,191.88101 111.88162,131.16657 135.66325,71.279587 190.59259,129.645 l 0,183.19437 -50.00916,52.94705 17.20832,16.19509 50.4939,-48.90837 50.4939,48.90837 17.16793,-16.19509 -53.96788,-57.18766 0,-182.83089 c 52.24025,-51.742901 74.1126,6.80029 38.49655,66.11314 -30.26167,50.39601 7.62422,112.85016 84.62778,92.48569 l 0,-28.87654 c -60.90561,16.31623 -69.12658,-16.3302 -43.8691,-69.54601 C 322.74518,140.62321 305.09151,68.888096 263.74815,69.266788 247.57033,69.414972 227.7565,80.633692 205.25602,108.76504 182.56997,81.179436 177.57373,69.266788 145.06729,69.266788 z"
     id="rect3850"
     style="fill:#ffffff;fill-opacity:1;fill-rule:evenodd;stroke:#000000;stroke-width:2;stroke-linecap:round;stroke-linejoin:bevel;stroke-miterlimit:4;stroke-opacity:1;stroke-dasharray:none" />
</svg>
