<?xml version="1.0" encoding="UTF-8" standalone="no"?>
<svg xmlns:svg="http://www.w3.org/2000/svg" xmlns="http://www.w3.org/2000/svg" xmlns:xlink="http://www.w3.org/1999/xlink" version="1.1" width="500" height="550">
	<title>Regelmatig Knoestig Kruis</title>
	<defs>
		<path id="shield" d="M 5,5 H 495 V 300 A 245,245 0 0 1 5,300 V 5 z"/>
		<linearGradient id="LG01">
			<stop style="stop-color:#ffffff;stop-opacity:1" offset="0"/>
			<stop style="stop-color:#ffffff;stop-opacity:1" offset="0.4"/>
			<stop style="stop-color:#ececec;stop-opacity:1" offset="1"/>
		</linearGradient>
		<radialGradient id="RG01" xlink:href="#LG01" cx="250" cy="256" r="250" fx="250" fy="256" gradientUnits="userSpaceOnUse" gradientTransform="matrix(0.98, 0, 0, 1.08, 5, -22)"/>
		<clipPath id="CP01"><path d="M 5,5 H 495 V 300 A 245,245 0 0 1 5,300 V 5 z"/></clipPath>
	</defs>
	<use xlink:href="#shield" style="fill:url(#RG01);stroke:none"/>
	<path clip-path="url(#CP01)" d="M 158 10 L 158 62 L 210 114 L 210 166 L 158 114 L 158 166 L 210 218 L 158 218 L 106 166 L 54 166 L 106 218 L 54 218 L 2 166 L 2 350 L 54 298 L 106 298 L 54 350 L 106 350 L 158 298 L 210 298 L 158 350 L 158 402 L 210 350 L 210 402 L 158 454 L 158 506 L 210 454 L 210 540 L 250 545 L 290 540 L 290 454 L 342 506 L 342 454 L 290 402 L 290 350 L 342 402 L 342 350 L 290 298 L 342 298 L 394 350 L 446 350 L 394 298 L 446 298 L 498 350 L 498 166 L 446 218 L 394 218 L 446 166 L 394 166 L 342 218 L 290 218 L 342 166 L 342 114 L 290 166 L 290 114 L 342 62 L 342 10 L 290 62 L 290 10 L 210 10 L 210 62 L 158 10 z" style="fill:blue;stroke:#000080;stroke-width:1"/>
	<use xlink:href="#shield" style="fill:none;stroke:black;stroke-width:10"/>
</svg>