<?xml version="1.0" encoding="UTF-8" standalone="no"?>
<!-- Created with Inkscape (http://www.inkscape.org/) -->

<svg
   xmlns:dc="http://purl.org/dc/elements/1.1/"
   xmlns:cc="http://creativecommons.org/ns#"
   xmlns:rdf="http://www.w3.org/1999/02/22-rdf-syntax-ns#"
   xmlns:svg="http://www.w3.org/2000/svg"
   xmlns="http://www.w3.org/2000/svg"
   version="1.1"
   width="390"
   height="480"
   id="svg4228">
  <metadata
     id="metadata19">
    <rdf:RDF>
      <cc:Work
         rdf:about="">
        <dc:format>image/svg+xml</dc:format>
        <dc:type
           rdf:resource="http://purl.org/dc/dcmitype/StillImage" />
        <dc:title></dc:title>
      </cc:Work>
    </rdf:RDF>
  </metadata>
  <defs
     id="defs4232" />
  <path
     d="M 0,0 C 130,0 260,0 390,0 389.98981,114.99797 370.78556,350.14732 194.88837,479.99815 20.79131,350.08886 0.081386,115.02225 0,0 z"
     id="path4240-0"
     style="fill:#296ef9;fill-opacity:1;stroke:none" />
  <path
     d="m 100.47638,138.22875 c 23.38393,-1.33507 65.81922,16.0413 71.64226,8.33905 -12.39115,-16.36963 -29.47159,-30.82475 -55.73965,-30.64463 -12.38832,0.0849 -23.487027,12.27331 -33.497634,12.84802 -7.601166,0.43638 -18.3188,-10.05635 -8.186697,-12.71187 l 14.231996,-3.73006 C 79.019862,104.1 58.673888,97.468775 65.720339,87.243267 68.981443,82.510892 95.854214,110.43063 114.02542,96.737287 105.50224,85.654605 77.017404,79.916472 78.568357,75.354253 c 3.636268,-10.696303 16.662479,0.378238 25.169483,-0.928159 5.83684,-4.567273 -2.59797,-15.320637 -3.15047,-22.917804 -0.40577,-5.579696 7.46763,-8.664166 8.51127,-4.078711 2.54781,11.194335 4.72434,22.474351 13.31661,32.27381 9.64854,-4.316349 5.31786,-17.794639 3.15189,-25.551727 -2.39328,-8.571114 6.42554,-13.263588 8.70099,-7.493829 7.76356,20.816101 7.44862,41.509426 22.85051,59.359117 15.72536,18.22457 65.49177,33.80216 95.84746,-2.54237 9.84102,-11.782549 11.69717,-20.256937 13.72882,-29.237293 2.73994,-12.111151 -36.24641,-33.175014 -35.33899,-57.711864 0.0911,-2.464423 5.46407,-4.183775 7.11865,0 3.35733,8.489346 8.54183,16.148165 17.16101,22.245763 3.26522,-7.918711 7.66075,-14.83497 11.05933,-21.228814 1.91232,-3.597701 7.00763,-4.481364 7.37288,2.79661 0.3009,5.995838 -1.49854,17.091762 -2.79661,26.186441 -1.55009,10.860452 14.48263,8.522837 17.54237,3.940678 10.10336,-15.130421 2.43163,-34.628024 6.48305,-35.593221 4.46214,-1.063048 15.34556,3.749513 10.54182,23.464295 -0.96154,3.946199 5.19457,6.61975 8.14462,3.103502 5.12199,-6.10505 9.74392,-13.176181 10.42373,-22.627119 0.37172,-5.167753 6.03667,-6.435371 6.99153,0 5.35931,36.119481 -55.26433,53.179726 -50.46611,67.754238 5.07568,15.417294 28.47154,-5.017465 34.84482,-14.392996 4.10463,-6.038188 6.73123,-5.460911 6.35156,1.80676 -2.14879,41.13328 -57.11421,18.218053 -61.28112,44.74725 -0.85979,5.474 23.72383,8.41486 26.07011,0.64673 1.99904,-6.61847 12.06525,-6.74452 10.6066,3.23591 -2.8631,19.59006 -32.86342,10.9093 -45.66232,11.14592 -18.67006,0.34516 -39.96491,3.0757 -52.67346,17.79752 5.21519,4.01518 14.12435,-1.06251 22.29184,-4.31455 4.56201,-1.81645 18.24129,5.15573 10.96614,11.68524 -6.02458,5.40712 -12.6639,10.18736 -19.95479,13.12342 11.40782,9.36371 22.2692,19.8203 32.71867,31.10072 -8.1782,11.85934 -23.37716,50.8839 -50.69596,63.10029 -7.91001,-4.82391 -16.51594,-36.15568 -18.06718,-43.05562 -18.26601,-14.95079 -35.77044,-29.97193 -54.50852,-41.14621 -9.44006,-5.62949 -24.916653,-4.97632 -23.827524,-17.59458 19.947974,9.92862 24.892424,8.8712 25.752474,6.33699 l -22.29185,-14.5616 c -4.675823,-3.05437 -9.263187,-17.53391 -1.09531,-18.00024 z"
     id="path3685"
     style="fill:#f2f2f2;stroke:none" />
  <path
     d="m 110.02103,152.36388 c 2.28301,1.54761 -0.86399,3.50568 -2.15729,2.382 -9.18725,-7.98238 -2.32854,-17.42705 5.57296,-9.61786 -8.539,-2.7446 -9.07607,3.39878 -3.41567,7.23586 z"
     id="path3687"
     style="fill:#296ef9;fill-opacity:1;stroke:none" />
  <path
     d="m 152.80067,158.94326 c 11.80736,-9.57607 28.63218,1.02191 27.92019,7.69454 -0.88081,8.25479 -25.10618,2.34613 -27.92019,-7.69454 z"
     id="path4199"
     style="fill:#296ef9;fill-opacity:1;stroke:none" />
  <path
     d="m 162.30181,163.53304 c -3.2848,-1.79013 -1.66955,-5.36743 1.8038,-3.8493 -1.14764,0.24945 -2.05285,2.795 -1.8038,3.8493 z"
     id="path4201"
     style="fill:#f2f2f2;fill-opacity:1;stroke:none" />
  <path
     d="m 170.55955,163.48732 a 2.853895,2.7190653 0 1 1 -5.70779,0 2.853895,2.7190653 0 1 1 5.70779,0 z"
     transform="translate(-0.40448905,-0.08988646)"
     id="path4225"
     style="fill:#f2f2f2;fill-opacity:1;fill-rule:evenodd;stroke:none" />
  <path
     d="m 172.38033,163.35299 c 3.2848,1.79013 1.66955,5.36743 -1.8038,3.8493 1.14764,-0.24945 2.05285,-2.795 1.8038,-3.8493 z"
     id="path4201-0"
     style="fill:#f2f2f2;fill-opacity:1;stroke:none" />
  <path
     d="m 107.65076,294.53971 c 23.32668,-2.111 54.87501,9.01584 60.43902,1.12444 -13.68552,-15.69655 -21.30546,-22.80204 -46.30299,-22.16624 -12.38461,0.315 -22.049489,11.26697 -32.035477,12.17385 -7.582479,0.68861 -18.642703,-9.44236 -8.604389,-12.43294 l 14.100256,-4.20071 c -10.174653,-7.89567 -30.729649,-13.84747 -24.026713,-24.30138 3.102125,-4.83807 30.887383,22.17372 48.593763,7.88439 -8.88658,-10.79347 -37.546281,-15.58236 -36.147711,-20.19357 3.278998,-10.81118 16.665851,-0.1754 25.124771,-1.76361 5.68192,-4.75863 -3.10539,-15.2259 -3.90992,-22.80054 -0.59087,-5.56313 7.17575,-8.9074 8.37111,-4.35914 2.91821,11.10354 5.46819,22.30504 14.3812,31.8137 9.49985,-4.63443 4.72389,-17.96144 2.30147,-25.64231 -2.67663,-8.48689 5.98147,-13.46968 8.4473,-7.77868 8.45066,20.54676 6.02658,43.52727 22.01283,60.85555 16.32199,17.69222 65.05291,28.55744 94.18472,-8.77527 9.44424,-12.1029 15.33993,-19.87155 17.07219,-28.91443 2.33617,-12.19547 -37.32827,-31.95284 -37.23632,-56.50629 0.009,-2.46608 5.32211,-4.36294 7.11473,-0.23643 3.63743,8.37316 9.07345,15.85555 17.8904,21.66351 3.00041,-8.02279 7.1638,-15.08123 10.34814,-21.58443 1.79178,-3.65923 6.85493,-4.71163 7.46171,2.55019 0.49987,5.98254 -0.93004,17.13211 -1.92533,26.26488 -1.18851,10.90595 14.75772,8.03711 17.66358,3.35585 9.59525,-15.45764 1.28016,-34.68967 5.2973,-35.7889 4.42436,-1.21067 15.46162,3.23775 11.31533,23.10122 -0.82994,3.97595 5.41157,6.44356 8.2432,2.83128 4.91639,-6.27181 9.30093,-13.49255 9.66645,-22.96085 0.1999,-5.17724 5.8196,-6.63232 6.98768,-0.23221 6.55601,35.92154 -53.46755,54.98591 -48.1879,69.39301 5.58494,15.24021 28.28918,-5.96034 34.34755,-15.54238 3.90182,-6.17119 6.54613,-5.68146 6.40806,1.59481 -0.78141,41.18195 -56.47761,20.10497 -59.76109,46.75794 -0.6775,5.49952 23.99023,7.62225 26.07721,-0.21952 1.77812,-6.68122 11.83459,-7.14153 10.70822,2.88184 -2.21085,19.67435 -32.48294,11.99479 -45.26692,12.65639 -18.64829,0.96506 -39.8407,4.40138 -52.05328,19.53718 5.34568,3.83974 14.08127,-1.53105 22.13624,-5.05257 4.49917,-1.96697 18.40247,4.54703 11.3482,11.31457 -5.84167,5.60424 -12.31855,10.60235 -19.5079,13.77895 11.71253,8.97964 22.91521,19.06972 33.73358,29.99685 -7.77979,12.12443 -28.53863,57.9882 -55.4366,71.10521 -8.06586,-4.55853 -17.45345,-43.72276 -19.23301,-50.56738 -18.7525,-14.33586 -30.13601,-26.98767 -49.2349,-37.53341 -9.62182,-5.31285 -25.06818,-4.14601 -24.39874,-16.79348 20.26672,9.26059 23.13943,4.98869 23.91483,2.42731 l -20.7293,-10.76232 c -4.95678,-2.57348 -9.840439,-17.21658 -1.69255,-17.95393 z"
     id="path3685-5"
     style="fill:#f2f2f2;stroke:none" />
  <path
     d="m 117.65961,308.35003 c 2.33316,1.47092 -0.74707,3.53244 -2.07698,2.45234 -9.4473,-7.67283 -2.90607,-17.3401 5.25044,-9.79766 -8.62545,-2.45947 -8.95817,3.69836 -3.17346,7.34532 z"
     id="path3687-5"
     style="fill:#296ef9;fill-opacity:1;stroke:none" />
  <path
     d="m 160.63418,313.50491 c 11.48279,-9.96296 28.65032,0.0704 28.16035,6.76296 -0.60615,8.27949 -25.0144,3.17871 -28.16035,-6.76296 z"
     id="path4199-1"
     style="fill:#296ef9;fill-opacity:1;stroke:none" />
  <path
     d="m 170.28252,317.77659 c -3.34244,-1.68004 -1.8469,-5.30902 1.67495,-3.90709 -1.13872,0.28743 -1.95887,2.86164 -1.67495,3.90709 z"
     id="path4201-7"
     style="fill:#f2f2f2;fill-opacity:1;stroke:none" />
  <path
     d="m 170.55955,163.48732 a 2.853895,2.7190653 0 1 1 -5.70779,0 2.853895,2.7190653 0 1 1 5.70779,0 z"
     transform="matrix(0.99944827,-0.0332137,0.0332137,0.99944827,2.2314655,159.64802)"
     id="path4225-1"
     style="fill:#f2f2f2;fill-opacity:1;fill-rule:evenodd;stroke:none" />
  <path
     d="m 180.3495,317.26189 c 3.34245,1.68005 1.8469,5.30902 -1.67496,3.90709 1.13872,-0.28743 1.95889,-2.86164 1.67496,-3.90709 z"
     id="path4201-0-1"
     style="fill:#f2f2f2;fill-opacity:1;stroke:none" />
</svg>
