# Exported from Wings 3D 1.0.2
mtllib tri_frigate2.mtl
o blaster
#37 vertices, 70 faces
v -1.41421356 4.4408921e-17 -1.40000000
v 1.41421356 -6.6613381e-17 -1.40000000
v 5.6892525e-17 0.34467376 0.68151641
v -0.66000000 1.4617162e-17 0.68151641
v -5.1341409e-17 -0.34467376 0.68151641
v 0.66000000 -3.7195889e-17 0.68151641
v -0.89442719 -0.25989319 -1.40000000
v 0.89442719 -0.25989319 -1.40000000
v -8.4373785e-17 -0.53738100 -0.16450867
v 8.4373785e-17 0.53738100 -0.16450867
v -0.89442719 0.25989319 -1.40000000
v 0.89442719 0.25989319 -1.40000000
v 0.66411219 -0.14618992 -2.00000000
v -0.66411219 -0.14618992 -2.00000000
v -0.66411219 0.14618992 -2.00000000
v 0.66411219 0.14618992 -2.00000000
v 0.44721360 0.22740654 -1.52500000
v -0.44721360 0.22740654 -1.52500000
v -0.44721360 -0.22740654 -1.62500000
v 0.44721360 -0.22740654 -1.62500000
v -0.44721360 0.39863709 -0.90725434
v 0.44721360 0.39863709 -0.90725434
v 0.23578607 0.59041803 -0.94415473
v -0.23578607 0.59041803 -0.94415473
v -0.29814240 0.25989319 -1.40000000
v 0.29814240 0.25989319 -1.40000000
v -0.11789304 0.59157798 -0.55433170
v 0.11789304 0.59157798 -0.55433170
v -0.22360680 0.46800905 -0.53588150
v 0.22360680 0.46800905 -0.53588150
v 0.0000000e+0 0.0000000e+0 2.18151641
v -1.02140452 2.8925801e-17 -0.17898906
v 1.02140452 -5.1259176e-17 -0.17898906
v -0.87704215 2.3209512e-17 -0.17355532
v 0.87704215 -4.5642352e-17 -0.17355532
v -7.2209497e-17 -0.45990602 -0.16667714
v 7.2209497e-17 0.45990602 -0.16667714
vt 7.2161835e-3 0.92572124
vt 7.2198425e-3 0.81958920
vt 7.2222313e-3 0.83631647
vt 7.2271051e-3 0.90899540
vt 1.4331322e-2 0.41382800
vt 2.5508614e-2 0.93547835
vt 2.5518852e-2 0.80980576
vt 2.5714615e-2 0.39067102
vt 3.5681121e-2 0.30698094
vt 3.6768522e-2 0.45199118
vt 3.6768522e-2 0.30158660
vt 3.7072086e-2 0.58505687
vt 4.0277153e-2 0.67935211
vt 4.1337596e-2 0.60166163
vt 4.1337596e-2 0.58938790
vt 4.5047722e-2 0.70066585
vt 4.8537158e-2 0.92878232
vt 4.8537158e-2 0.81655101
vt 5.4568572e-2 0.59645869
vt 5.4579120e-2 0.55928941
vt 5.5312946e-2 0.52314267
vt 5.5323387e-2 0.51769341
vt 5.6684418e-2 0.93551631
vt 5.6697331e-2 0.80978387
vt 5.7227353e-2 0.81655101
vt 5.7227353e-2 0.92878232
vt 5.7227353e-2 0.84110161
vt 5.7227353e-2 0.90423172
vt 6.6043699e-2 0.47416223
vt 7.8442130e-2 0.55417560
vt 8.4263243e-2 0.64337540
vt 8.4263243e-2 0.66281210
vt 9.2453757e-2 0.87266667
vt 9.8571791e-2 0.60166163
vt 0.12464926 0.72036935
vt 0.12464963 0.71492417
vt 0.12675556 0.27148260
vt 0.12972815 0.71492417
vt 0.12972852 0.72036935
vt 0.15580599 0.60166163
vt 0.16076847 0.87266667
vt 0.17011454 0.64337540
vt 0.17011454 0.66281210
vt 0.17589574 0.55411492
vt 0.18746741 0.47416223
vt 0.19599487 0.81655101
vt 0.19599487 0.92878232
vt 0.19599487 0.84110161
vt 0.19599487 0.90423172
vt 0.19652489 0.93554947
vt 0.19653780 0.80981703
vt 0.19905439 0.51769341
vt 0.19906483 0.52314267
vt 0.19979866 0.55928941
vt 0.19980921 0.59645869
vt 0.20468506 0.81655101
vt 0.20468506 0.92878232
vt 0.20778703 0.45199118
vt 0.20778703 0.30158660
vt 0.20948059 0.70058572
vt 0.21304018 0.58938790
vt 0.21304018 0.60166163
vt 0.21425684 0.67969309
vt 0.21494110 0.30958094
vt 0.21717897 0.58540342
vt 0.22490761 0.39327102
vt 0.22770337 0.93552757
vt 0.22771361 0.80985498
vt 0.23629090 0.41122800
vt 0.24599512 0.83633793
vt 0.24599999 0.90901686
vt 0.24600238 0.92574414
vt 0.24600604 0.81961209
vt 0.28939828 3.5064062e-2
vt 0.29160395 0.20885084
vt 0.29942901 4.1024725e-2
vt 0.30318856 0.20482695
vt 0.31934711 0.62787806
vt 0.32584993 8.7664342e-2
vt 0.33895686 0.39374780
vt 0.33895686 0.62156276
vt 0.33895686 0.62156276
vt 0.35559908 0.16424541
vt 0.35863786 9.3208951e-2
vt 0.35866205 0.14876560
vt 0.36230158 0.14026462
vt 0.37619240 0.21400883
vt 0.37941065 8.5510143e-2
vt 0.38778562 0.20929099
vt 0.38966049 8.1891337e-2
vt 0.39297844 0.16786422
vt 0.41350686 0.16786565
vt 0.41674991 8.1889908e-2
vt 0.42703379 8.5510143e-2
vt 0.42841888 0.37843724
vt 0.43339216 0.20929099
vt 0.43978237 0.55169642
vt 0.43978237 0.55169642
vt 0.43978237 0.55686277
vt 0.44498537 0.21400883
vt 0.44616000 0.47121413
vt 0.44616000 0.47249425
vt 0.44778239 9.3180490e-2
vt 0.44780659 0.14871640
vt 0.45084537 0.16424541
vt 0.45237686 0.44313723
vt 0.45422387 0.52878587
vt 0.45887620 0.14026462
vt 0.46989119 0.44830358
vt 0.49532785 8.7664342e-2
vt 0.50000000 0.37212194
vt 0.51798922 0.20482695
vt 0.52174877 4.1024725e-2
vt 0.52957383 0.20885084
vt 0.53010881 0.44830358
vt 0.53177949 3.5064062e-2
vt 0.54577613 0.52878587
vt 0.54762314 0.44313723
vt 0.55384000 0.47121413
vt 0.55384000 0.47249425
vt 0.56021763 0.55169642
vt 0.56021763 0.55169642
vt 0.56021763 0.55686277
vt 0.57158112 0.37843724
vt 0.57158112 0.37843724
vt 0.62013272 0.54191100
vt 0.62013273 0.54191114
vt 0.62013276 0.52812786
vt 0.62027185 0.32526711
vt 0.62027215 0.32526698
vt 0.65155014 0.23301093
vt 0.65155014 0.23301093
vt 0.65155014 0.60300874
vt 0.65155014 0.62254462
vt 0.65155014 0.62254462
vt 0.66104314 0.39374780
vt 0.66104314 0.62156276
vt 0.66104314 0.39374780
vt 0.68065289 0.62787806
vt 0.68217160 0.31364427
vt 0.68217160 0.31364427
vt 0.80836135 0.31364442
vt 0.80836167 0.31364455
vt 0.83898319 0.23301093
vt 0.83898319 0.60300874
vt 0.83898319 0.62254462
vt 0.83898319 0.60300874
vt 0.87026106 0.32526729
vt 0.87026106 0.32526729
vt 0.87040058 0.54191129
vt 0.87040060 0.52812792
vt 0.87040061 0.52812814
vn -0.44387543 -0.88775087 0.12195489
vn -4.1092300e-16 0.0000000e+0 -1.00000000
vn -0.46208681 -0.87428649 0.14865704
vn -0.42403648 0.89961176 0.10436347
vn -0.46208681 0.87428649 0.14865704
vn -0.42403648 0.89961176 0.10436347
vn -0.42403648 0.89961176 0.10436347
vn -8.2184601e-16 0.0000000e+0 -1.00000000
vn 0.42403648 0.89961176 0.10436347
vn 0.46208681 0.87428649 0.14865704
vn 0.44387543 -0.88775087 0.12195489
vn 0.46208681 -0.87428649 0.14865704
vn 0.42403648 0.89961176 0.10436347
vn 0.42403648 0.89961176 0.10436347
vn -0.46078307 0.87962660 0.11805088
vn 0.46078307 0.87962660 0.11805088
vn 0.45359677 0.86857168 0.19958258
vn -0.45359677 0.86857168 0.19958258
vn -0.46078307 0.87962660 0.11805088
vn 0.46078307 0.87962660 0.11805088
vn -0.45359677 -0.86857168 0.19958258
vn -0.45359677 0.86857168 0.19958258
vn -0.45974723 0.88034893 0.11669726
vn -0.45974723 -0.88034893 0.11669726
vn -0.46078307 -0.87962660 0.11805088
vn 0.46078307 -0.87962660 0.11805088
vn -0.45359677 -0.86857168 0.19958258
vn 0.45359677 -0.86857168 0.19958258
vn 0.46078307 -0.87962660 0.11805088
vn -0.46078307 -0.87962660 0.11805088
vn 0.45359677 -0.86857168 0.19958258
vn 0.45359677 0.86857168 0.19958258
vn 0.45974723 0.88034893 0.11669726
vn 0.45974723 -0.88034893 0.11669726
vn -0.44387543 -0.88775087 0.12195489
vn 0.0000000e+0 -0.97569386 -0.21913805
vn -4.1092300e-16 0.0000000e+0 -1.00000000
vn -0.93358221 7.5700371e-16 -0.35836331
vn -2.7575686e-2 -0.98015025 -0.19632897
vn -0.93358221 7.5700371e-16 -0.35836331
vn 0.0000000e+0 -0.98973667 -0.14290323
vn 0.0000000e+0 -0.97569386 -0.21913805
vn -8.2184601e-16 0.0000000e+0 -1.00000000
vn 2.7575686e-2 -0.98015025 -0.19632897
vn 0.0000000e+0 -0.98973667 -0.14290323
vn 0.44387543 -0.88775087 0.12195489
vn 0.93358221 0.0000000e+0 -0.35836331
vn 0.0000000e+0 -0.98973667 -0.14290323
vn -0.44387543 -0.88775087 0.12195489
vn 0.0000000e+0 -0.97569386 -0.21913805
vn -0.46208681 -0.87428649 0.14865704
vn 0.44387543 -0.88775087 0.12195489
vn 0.46208681 -0.87428649 0.14865704
vn -1.5385859e-2 -8.2786302e-3 0.99984736
vn 1.5385859e-2 -8.2786302e-3 0.99984736
vn 1.5385859e-2 -8.2786302e-3 0.99984736
vn -1.5385859e-2 -8.2786302e-3 0.99984736
vn -0.41460005 0.90645303 8.0310051e-2
vn 0.46208681 0.87428649 0.14865704
vn -0.70167173 0.64536457 0.30192938
vn 0.70167173 0.64536457 0.30192938
vn 0.0000000e+0 0.99047326 0.13770521
vn -0.46208681 0.87428649 0.14865704
vn 1.5385859e-2 8.2786302e-3 0.99984736
vn -1.5385859e-2 8.2786302e-3 0.99984736
vn 1.5385859e-2 8.2786302e-3 0.99984736
vn 0.41460005 0.90645303 8.0310051e-2
vn -1.5385859e-2 8.2786302e-3 0.99984736
vn -4.1092300e-16 0.0000000e+0 -1.00000000
vn 2.1680882e-2 0.98377211 -0.17810779
vn 0.0000000e+0 0.96784768 -0.25153702
vn 0.0000000e+0 0.96256985 -0.27103374
vn -0.44200022 0.88400045 0.15224656
vn -0.93358221 3.3234309e-16 -0.35836331
vn -8.2184601e-16 0.0000000e+0 -1.00000000
vn 0.44200022 0.88400045 0.15224656
vn 0.93358221 0.0000000e+0 -0.35836331
vn -2.1680882e-2 0.98377211 -0.17810779
vn 0.0000000e+0 0.96256985 -0.27103374
vn 0.93358221 0.0000000e+0 -0.35836331
vn 0.0000000e+0 0.96784768 -0.25153702
vn 2.7575686e-2 -0.98015025 -0.19632897
vn 0.93358221 0.0000000e+0 -0.35836331
vn -0.89198543 5.2950197e-2 -0.44895240
vn -0.89198543 5.2950197e-2 -0.44895240
vn 0.93358221 0.0000000e+0 -0.35836331
vn -0.93358221 1.1816643e-15 -0.35836331
vn -2.7575686e-2 -0.98015025 -0.19632897
vn 0.86563307 0.0000000e+0 -0.50067892
vn -0.93358221 7.5700371e-16 -0.35836331
vn 2.1680882e-2 0.98377211 -0.17810779
vn 0.88426091 4.7007900e-2 -0.46462124
vn -0.93358221 7.5700371e-16 -0.35836331
vn 0.88426091 4.7007900e-2 -0.46462124
vn 0.93358221 0.0000000e+0 -0.35836331
vn -2.1680882e-2 0.98377211 -0.17810779
vn -0.90965127 0.0000000e+0 -0.41537280
vn -2.1680882e-2 0.98377211 -0.17810779
vn -0.89198543 5.2950197e-2 -0.44895240
vn -1.0162263e-16 0.21474119 -0.97667099
vn -1.0162263e-16 0.21474119 -0.97667099
vn -0.89198543 5.2950197e-2 -0.44895240
vn 5.2058823e-17 0.96784768 -0.25153702
vn 5.2058823e-17 0.96784768 -0.25153702
vn 5.2058823e-17 0.96784768 -0.25153702
vn 2.1680882e-2 0.98377211 -0.17810779
vn 6.0067873e-18 0.96784768 -0.25153702
vn 0.89947825 9.3834496e-2 -0.42677156
vn -2.0324526e-16 0.21474119 -0.97667099
vn 6.0067873e-18 0.96784768 -0.25153702
vn 0.0000000e+0 -0.98973667 -0.14290323
vn -2.7575686e-2 -0.98015025 -0.19632897
vn 0.88426091 4.7007900e-2 -0.46462124
vn -1.0162263e-16 0.21474119 -0.97667099
vn 0.88426091 4.7007900e-2 -0.46462124
vn -1.0162263e-16 0.21474119 -0.97667099
vn 0.0000000e+0 -0.98973667 -0.14290323
vn 2.7575686e-2 -0.98015025 -0.19632897
vn 0.0000000e+0 -0.98973667 -0.14290323
vn -0.87053455 0.10567571 -0.48062692
vn 0.0000000e+0 0.21474119 -0.97667099
vn 0.0000000e+0 0.96256985 -0.27103374
vn -0.65663049 0.65043640 -0.38179693
vn -0.67341020 0.69658866 0.24755393
vn -0.42864478 0.89594712 0.11637187
vn -0.42864478 0.89594712 0.11637187
vn -0.67341020 0.69658866 0.24755393
vn 0.42864478 0.89594712 0.11637187
vn 0.65663049 0.65043640 -0.38179693
vn 0.0000000e+0 0.96256985 -0.27103374
vn 0.42864478 0.89594712 0.11637187
vn 0.62878312 0.73946503 0.24046467
vn 0.67857124 0.69777739 0.22945107
vn 0.0000000e+0 0.99999557 -2.9755737e-3
vn -9.9201819e-17 0.80957920 -0.58701067
vn 0.65663049 0.65043640 -0.38179693
vn 0.67857124 0.69777739 0.22945107
vn 0.0000000e+0 0.99999557 -2.9755737e-3
vn -9.9201819e-17 0.80957920 -0.58701067
vn -0.65663049 0.65043640 -0.38179693
vn 0.0000000e+0 0.99999557 -2.9755737e-3
vn -0.64085277 0.74336899 0.19159927
vn 0.0000000e+0 0.80957920 -0.58701067
vn 5.2058823e-17 0.96784768 -0.25153702
vn 0.0000000e+0 0.96256985 -0.27103374
vn -9.9201819e-17 0.80957920 -0.58701067
vn -0.65663049 0.65043640 -0.38179693
vn 5.2058823e-17 0.96784768 -0.25153702
vn 5.2058823e-17 0.96784768 -0.25153702
vn -9.9201819e-17 0.80957920 -0.58701067
vn -1.9840364e-16 0.80957920 -0.58701067
vn 0.65663049 0.65043640 -0.38179693
vn 0.0000000e+0 0.96256985 -0.27103374
vn 7.2081448e-17 0.96784768 -0.25153702
vn 7.2081448e-17 0.96784768 -0.25153702
vn -0.70167173 0.64536457 0.30192938
vn 0.0000000e+0 0.99999557 -2.9755737e-3
vn -0.67341020 0.69658866 0.24755393
vn 0.0000000e+0 0.99047326 0.13770521
vn 0.0000000e+0 0.99999557 -2.9755737e-3
vn -0.67341020 0.69658866 0.24755393
vn 0.72541571 0.65306277 0.21744210
vn 0.0000000e+0 0.99999557 -2.9755737e-3
vn 0.70167173 0.64536457 0.30192938
vn 0.0000000e+0 0.99047326 0.13770521
vn -0.41460005 0.90645303 8.0310051e-2
vn -0.70167173 0.64536457 0.30192938
vn -0.70167173 0.64536457 0.30192938
vn -0.41460005 0.90645303 8.0310051e-2
vn 0.67857124 0.69777739 0.22945107
vn 0.70167173 0.64536457 0.30192938
vn 0.41460005 0.90645303 8.0310051e-2
vn 0.41460005 0.90645303 8.0310051e-2
vn 0.67857124 0.69777739 0.22945107
vn -0.45359677 -0.86857168 0.19958258
vn 0.45359677 -0.86857168 0.19958258
vn 0.45359677 0.86857168 0.19958258
vn -0.45359677 0.86857168 0.19958258
vn -0.46208681 -0.87428649 0.14865704
vn -0.46208681 0.87428649 0.14865704
vn -3.7575657e-2 -4.4519904e-2 0.99830158
vn -3.7575657e-2 4.4519904e-2 0.99830158
vn 0.46208681 0.87428649 0.14865704
vn 0.46208681 -0.87428649 0.14865704
vn 3.7575657e-2 4.4519904e-2 0.99830158
vn 3.7575657e-2 -4.4519904e-2 0.99830158
vn -0.46078307 0.87962660 0.11805088
vn -0.46078307 -0.87962660 0.11805088
vn -1.5385859e-2 8.2786302e-3 0.99984736
vn -1.5385859e-2 -8.2786302e-3 0.99984736
vn -0.46078307 0.87962660 0.11805088
vn -1.5385859e-2 -8.2786302e-3 0.99984736
vn -1.5385859e-2 8.2786302e-3 0.99984736
vn -0.46078307 -0.87962660 0.11805088
vn 0.46078307 -0.87962660 0.11805088
vn 1.5385859e-2 8.2786302e-3 0.99984736
vn 1.5385859e-2 -8.2786302e-3 0.99984736
vn 0.46078307 0.87962660 0.11805088
vn 0.46078307 0.87962660 0.11805088
vn 1.5385859e-2 8.2786302e-3 0.99984736
vn 1.5385859e-2 -8.2786302e-3 0.99984736
vn 0.46078307 -0.87962660 0.11805088
vn -0.46181733 -0.87890126 0.11940409
vn 0.46181733 -0.87890126 0.11940409
vn 6.8317593e-3 2.7977613e-2 0.99958520
vn -6.8317593e-3 2.7977613e-2 0.99958520
vn -0.46181733 0.87890126 0.11940409
vn -6.8317593e-3 -2.7977613e-2 0.99958520
vn 6.8317593e-3 -2.7977613e-2 0.99958520
vn 0.46181733 0.87890126 0.11940409
g blaster_blaster_auv
usemtl blaster_auv
f 1/41/2 11/17/69 7/18/37
f 1/77/7 21/108/126 11/89/73
f 1/82/5 32/95/180 10/136/63
f 2/75/11 9/113/52 8/87/46
f 2/81/12 33/95/184 9/138/53
f 3/134/17 31/132/177 6/145/32
f 3/129/16 35/151/198 37/127/210
f 4/141/23 3/148/19 34/128/191
f 4/133/22 31/144/178 3/146/18
f 5/135/27 31/131/175 4/147/21
f 5/130/25 34/152/188 36/126/203
f 6/140/34 5/149/29 35/128/202
f 6/133/31 31/144/176 5/146/28
f 7/139/36 8/78/42 9/111/50
f 7/100/35 9/76/49 1/114/1
f 7/61/41 19/43/117 8/15/48
f 8/56/43 12/57/75 2/33/8
f 8/25/47 13/48/86 12/26/80
f 8/15/45 19/43/111 20/32/119
f 8/21/44 20/55/118 13/39/82
f 9/80/51 32/124/179 1/137/3
f 9/73/57 34/23/192 32/6/181
f 9/2/55 35/50/197 36/3/206
f 10/74/67 2/112/14 30/79/173
f 10/69/60 27/8/156 29/9/167
f 10/80/59 33/125/183 2/137/10
f 10/72/65 34/24/189 37/71/209
f 10/1/66 35/51/200 33/68/185
f 11/47/74 15/28/93 7/46/40
f 11/22/70 18/54/106 15/38/91
f 11/97/72 21/115/122 25/122/145
f 12/96/76 22/86/128 2/112/9
f 12/121/79 26/98/153 22/109/130
f 13/12/85 17/60/102 16/13/97
f 14/27/87 7/46/38 15/28/90
f 14/35/88 19/19/112 7/53/39
f 15/63/94 19/30/115 14/65/89
f 16/49/95 12/26/77 13/48/83
f 16/36/96 17/20/98 12/52/78
f 17/10/101 19/59/116 18/58/109
f 17/42/103 26/40/154 12/62/81
f 18/16/108 19/30/113 15/63/92
f 18/31/110 25/34/149 17/42/105
f 19/59/114 17/10/100 20/11/121
f 20/44/120 17/60/99 13/12/84
f 21/108/125 1/77/6 29/110/169
f 21/85/127 27/103/161 24/92/142
f 22/101/129 26/120/152 23/107/136
f 23/118/139 25/99/150 24/106/143
f 23/105/134 27/88/157 28/94/163
f 23/91/137 30/90/174 22/104/132
f 24/117/140 25/102/147 21/119/123
f 24/83/141 27/88/160 23/105/138
f 25/34/144 18/31/107 11/14/71
f 25/99/146 23/118/135 26/123/151
f 26/40/155 17/42/104 25/34/148
f 28/45/165 27/29/159 10/37/62
f 28/84/162 30/90/170 23/91/133
f 29/110/166 1/77/4 10/116/58
f 29/93/168 27/103/158 21/85/124
f 30/79/172 2/112/13 22/86/131
f 30/64/171 28/66/164 10/5/61
f 32/7/182 34/24/193 10/72/68
f 33/67/186 35/50/201 9/2/56
f 34/152/194 5/130/30 4/143/24
f 35/151/199 3/129/20 6/142/33
f 36/70/205 34/23/190 9/73/54
f 36/150/204 35/128/195 5/149/26
f 37/150/207 34/128/187 3/148/15
f 37/4/208 35/51/196 10/1/64
