<?xml version="1.0" encoding="UTF-8" standalone="no"?>
<!-- Created with Inkscape (http://www.inkscape.org/) -->
<svg
   xmlns:svg="http://www.w3.org/2000/svg"
   xmlns="http://www.w3.org/2000/svg"
   version="1.0"
   width="335.02051"
   height="403.63693"
   id="svg2">
  <defs
     id="defs5">
    <style
       type="text/css"
       id="style1365" />
    <style
       type="text/css"
       id="style1367" />
    <style
       type="text/css"
       id="style2054" />
    <style
       type="text/css"
       id="style2183" />
    <style
       type="text/css"
       id="style2181" />
    <style
       type="text/css"
       id="style2978" />
    <style
       type="text/css"
       id="style6" />
  </defs>
  <path
     d="M 4.25,14.150948 C 109.53244,3.082465 217.05256,-1.024346 330.7705,14.150948 C 325.73516,78.743624 332.37208,118.02631 325.61924,201.6656 C 314.07968,301.15757 236.747,363.29246 167.58718,399.38692 C 94.27082,368.35148 17.26112,296.2403 8.44671,201.75145 C 2.23553,135.16883 8.95671,78.748036 4.25,14.150948 z"
     id="path1738"
     style="fill:#f9d100;fill-opacity:1;fill-rule:evenodd;stroke:#1b1a1c;stroke-width:8.5;stroke-linecap:butt;stroke-linejoin:miter;stroke-miterlimit:4;stroke-dasharray:none;stroke-opacity:1" />
  <g
     transform="translate(326.78497,14.620127)"
     id="g3170">
    <path
       d="M -197.15307,178.33533 C -211.88727,192.52721 -226.08803,201.78485 -243.87151,244.18259 C -246.74403,249.39822 -251.44636,251.78289 -247.55013,257.05775 C -222.77973,279.69564 -198.88033,288.23908 -169.19557,313.34061 C -165.28618,315.2022 -162.0891,322.8915 -162.11818,330.20428 C -162.15046,338.4873 -156.6959,344.78136 -159.28542,355.63365 C -164.12035,361.55269 -159.76648,369.71465 -151.90606,358.95547 C -142.95953,343.28615 -148.90623,328.26941 -137.92731,317.38709 C -132.90019,310.61746 -136.04865,304.10425 -143.07738,303.04048 C -170.45579,295.83167 -173.76941,261.10055 -205.24602,250.43624 C -212.53884,249.46124 -204.42842,243.46528 -203.03885,242.71114 C -165.66113,224.51283 -135.9508,202.9068 -116.22346,176.86388 L -197.15307,178.33533 z"
       id="path2384"
       style="fill:#1b1a1c;fill-opacity:1;fill-rule:evenodd;stroke:#1b1a1c;stroke-width:1px;stroke-linecap:butt;stroke-linejoin:miter;stroke-opacity:1" />
    <path
       d="M -122.96279,178.61993 C -102.55896,180.09973 -86.182678,184.47956 -42.755988,169.38176 C -36.956188,168.03401 -32.040008,169.93923 -30.718808,163.5159 C -30.426848,129.96055 -40.039288,106.4707 -41.197968,67.612897 C -42.425058,63.460418 -38.840348,55.944005 -33.380138,51.079466 C -27.195928,45.569021 -26.157658,37.305281 -16.353218,31.980739 C -8.7188478,31.62305 -5.5553878,22.93016 -18.812418,24.27089 C -36.448328,28.084349 -43.647518,42.542475 -59.079848,41.645291 C -67.475478,42.428327 -70.217658,49.122738 -66.312738,55.062956 C -53.382738,80.24945 -77.008958,105.92108 -63.911598,136.46554 C -59.764168,142.54293 -69.644348,140.51502 -71.133908,139.98506 C -109.64826,124.33525 -145.57488,116.66698 -178.13225,119.39074 L -122.96279,178.61993 z"
       id="path2386"
       style="fill:#1b1a1c;fill-opacity:1;fill-rule:evenodd;stroke:#1b1a1c;stroke-width:1px;stroke-linecap:butt;stroke-linejoin:miter;stroke-opacity:1" />
    <path
       d="M -148.80524,126.69802 C -148.65037,106.24117 -145.34064,89.61556 -163.22004,47.25817 C -164.94069,41.557864 -163.35796,36.528586 -169.85338,35.626284 C -203.35716,37.508755 -226.17495,48.622747 -264.87606,52.296321 C -268.94032,53.789843 -276.67317,50.699599 -281.88122,45.565998 C -287.78072,39.751763 -296.09436,39.251024 -302.04288,29.812119 C -302.8944,22.216959 -311.77397,19.623296 -309.57722,32.765621 C -304.62926,50.117437 -289.73513,56.364863 -289.63067,71.822894 C -288.30538,80.15016 -281.44739,82.452895 -275.77263,78.171353 C -251.47668,63.636856 -224.32841,85.55036 -194.69659,70.501749 C -188.90066,65.96932 -190.28423,75.960119 -190.71659,77.480883 C -203.83844,116.92818 -209.16317,153.2761 -204.33596,185.58863 L -185.35292,183.06554 L -148.80524,126.69802 z"
       id="path2388"
       style="fill:#1b1a1c;fill-opacity:1;fill-rule:evenodd;stroke:#1b1a1c;stroke-width:1px;stroke-linecap:butt;stroke-linejoin:miter;stroke-opacity:1" />
    <path
       d="M -195.06757,177.78 L -120.597,178.07636 L -157.94115,127.24673 L -195.06757,177.78 z"
       id="path2396"
       style="fill:#ffff00;fill-rule:evenodd;stroke:#1b1a1c;stroke-width:1.31547332px;stroke-linecap:butt;stroke-linejoin:miter;stroke-opacity:1" />
  </g>
</svg>
