<?xml version="1.0" encoding="UTF-8" standalone="no"?>
<svg
   xmlns:dc="http://purl.org/dc/elements/1.1/"
   xmlns:cc="http://creativecommons.org/ns#"
   xmlns:rdf="http://www.w3.org/1999/02/22-rdf-syntax-ns#"
   xmlns:svg="http://www.w3.org/2000/svg"
   xmlns="http://www.w3.org/2000/svg"
   xmlns:sodipodi="http://sodipodi.sourceforge.net/DTD/sodipodi-0.dtd"
   xmlns:inkscape="http://www.inkscape.org/namespaces/inkscape"
   width="168.57001mm"
   height="173.48mm"
   id="svg2563"
   sodipodi:version="0.32"
   inkscape:version="0.45.1+0.46pre1+devel"
   inkscape:output_extension="org.inkscape.output.svg.inkscape"
   sodipodi:docname="Bad Rappenau.svg">
  <metadata
     id="metadata2588">
    <rdf:RDF>
      <cc:Work
         rdf:about="">
        <dc:format>image/svg+xml</dc:format>
        <dc:type
           rdf:resource="http://purl.org/dc/dcmitype/StillImage" />
      </cc:Work>
    </rdf:RDF>
  </metadata>
  <defs
     id="defs2586">
    <inkscape:perspective
       sodipodi:type="inkscape:persp3d"
       inkscape:vp_x="-50 : 600 : 1"
       inkscape:vp_y="0 : 1000 : 0"
       inkscape:vp_z="700 : 600 : 1"
       inkscape:persp3d-origin="300 : 400 : 1"
       id="perspective2590" />
  </defs>
  <sodipodi:namedview
     inkscape:window-height="664"
     inkscape:window-width="640"
     inkscape:pageshadow="2"
     inkscape:pageopacity="0.0"
     guidetolerance="10.0"
     gridtolerance="10.0"
     objecttolerance="10.0"
     borderopacity="1.0"
     bordercolor="#666666"
     pagecolor="#ffffff"
     id="base"
     showgrid="false"
     inkscape:zoom="0.78738509"
     inkscape:cx="298.64764"
     inkscape:cy="307.34644"
     inkscape:window-x="22"
     inkscape:window-y="29"
     inkscape:current-layer="svg2563" />
<!-- EMR_GDICOMMENT --><!-- EMR_SETMAPMODE --><!-- EMR_SETVIEWPORTEXTEX --><!-- EMR_SETWINDOWEXTEX --><!-- EMR_SETWINDOWEXTEX --><!-- EMR_SETWINDOWEXTEX --><!-- EMR_SETWINDOWEXTEX -->  <path
     style="fill:#131516;fill-rule:evenodd;fill-opacity:1;stroke:none;"
     d="  M 282.01557 614.50081   L 280.24865 614.30872   L 278.44332 614.15504   L 276.63799 613.96295   L 274.87107 613.77086   L 273.06574 613.57877   L 271.29882 613.42509   L 269.49349 613.233   L 267.72658 613.07933   L 265.92125 612.88724   L 264.15433 612.73356   L 262.38741 612.54147   L 260.58208 612.3878   L 258.81516 612.23413   L 257.04824 612.04204   L 255.28132 611.88836   L 249.7501 610.88949   L 244.25729 609.85219   L 238.87971 608.73806   L 233.54054 607.58551   L 228.2782 606.35613   L 223.09268 605.0499   L 220.48071 604.39679   L 217.90715 603.70526   L 215.3336 603.01373   L 212.79845 602.28379   L 210.2249 601.55384   L 207.68976 600.78547   L 205.15461 599.97869   L 202.65788 599.21032   L 200.12273 598.36512   L 197.626 597.51992   L 195.09086 596.67471   L 192.59412 595.79109   L 190.09739 594.90747   L 187.60066 593.98543   L 185.10393 593.02497   L 182.60719 592.06452   L 180.07205 591.06564   L 177.57532 590.06676   L 175.07858 589.02947   L 172.58185 587.95376   L 168.47185 585.91759   L 165.2453 584.34244   L 162.55651 582.9978   L 160.1366 581.76841   L 157.67828 580.46219   L 154.87425 579.00229   L 151.45565 577.15821   L 147.07677 574.8147   L 143.38928 572.5096   L 139.74021 570.2045   L 136.12955 567.86098   L 132.59572 565.51747   L 129.10029 563.09711   L 125.68169 560.71518   L 122.26308 558.25641   L 118.9213 555.79763   L 115.57952 553.26203   L 112.31456 550.76484   L 109.04961 548.19081   L 105.82306 545.57837   L 102.63492 542.96592   L 99.485198 540.31506   L 96.373885 537.62578   L 93.262572 534.89808   L 89.344622 530.86415   L 86.27172 527.71385   L 83.774987 525.10141   L 81.623956 522.83473   L 79.511336 520.56805   L 77.245071 518.03244   L 74.479459 514.95898   L 71.022445 511.07873   L 68.679357 508.04368   L 66.37468 505.00863   L 64.146827 501.97359   L 61.918973 498.93854   L 59.767941 495.9035   L 57.655321 492.86845   L 55.581113 489.8334   L 53.583726 486.79836   L 51.58634 483.76331   L 49.665777 480.68985   L 47.745213 477.6548   L 45.901472 474.58134   L 44.134553 471.46945   L 42.367635 468.35757   L 40.639127 465.24569   L 38.987443 462.09539   L 37.835104 459.55978   L 36.721177 457.02417   L 35.568839 454.48856   L 34.454912 451.99137   L 33.340985 449.45576   L 32.227058 446.92016   L 31.113131 444.38455   L 29.999205 441.84894   L 29.115745 439.15966   L 28.232286 436.47038   L 27.348827 433.78109   L 26.503779 431.13023   L 25.697142 428.44095   L 24.890505 425.79009   L 24.083868 423.13922   L 23.315643 420.48836   L 22.547417 417.87592   L 21.856015 415.22505   L 21.1262 412.61261   L 20.473209 410.00016   L 19.781806 407.42614   L 19.167225 404.85211   L 18.552645 402.27808   L 17.976476 399.70406   L 17.477129 396.20799   L 17.016194 393.13453   L 16.632081 390.44525   L 16.28638 388.06331   L 15.97909 386.02714   L 15.710211 384.22148   L 15.518154 382.60791   L 15.326098 381.18643   L 15.172453 379.88021   L 15.018808 378.68924   L 14.903574 377.49828   L 14.78834 376.34573   L 14.634695 375.15476   L 14.519461 373.84854   L 14.404228 372.42706   L 14.250582 370.85191   L 12.137962 317.29679   L 10.294221 270.34962   L 8.6809478 229.43412   L 7.2981419 194.01245   L 6.0689812 163.54673   L 5.0702881 137.4607   L 4.1868288 115.29334   L 3.4570146 96.429948   L 2.8424342 80.332678   L 2.3430877 66.502088   L 1.8821524 54.323485   L 1.4980397 43.335849   L 1.1139269 32.962907   L 0.76822547 22.628382   L 0.38411273 11.832838   L 0 0   L 37.335758 0   L 74.671516 0   L 112.00727 0   L 149.30462 0   L 186.64038 0   L 223.97614 0   L 261.31189 0   L 298.64765 0   L 335.98341 0   L 373.31917 0   L 410.65492 0   L 447.95227 0   L 485.28803 0   L 522.62379 0   L 559.95954 0   L 597.2953 0   L 596.37343 23.550422   L 595.45156 47.100843   L 594.52969 70.689683   L 593.56941 94.240105   L 592.64754 117.79053   L 591.72567 141.34095   L 590.8038 164.89137   L 589.88193 188.44179   L 588.96006 211.99221   L 588.03818 235.58105   L 587.11631 259.13147   L 586.15603 282.6819   L 585.23416 306.23232   L 584.31229 329.78274   L 583.39042 353.33316   L 582.46855 376.922   L 582.08444 379.61128   L 581.70032 382.30056   L 581.31621 384.98985   L 580.9321 387.71755   L 580.5864 390.40683   L 580.20228 393.13453   L 579.81817 395.86223   L 579.43406 398.58993   L 578.51219 402.62385   L 577.55191 406.61935   L 576.55321 410.61486   L 575.4777 414.61036   L 574.32536 418.60586   L 573.17302 422.56295   L 571.94386 426.52003   L 570.63788 430.47712   L 569.33189 434.39579   L 567.91068 438.35287   L 566.48946 442.27154   L 564.99142 446.19021   L 563.41656 450.07046   L 561.80328 453.98912   L 560.1516 457.86937   L 558.42309 461.74962   L 557.11711 464.09314   L 555.81113 466.47507   L 554.50514 468.81859   L 553.19916 471.20052   L 551.89318 473.58246   L 550.58719 475.96439   L 549.28121 478.34633   L 547.97523 480.72826   L 546.47719 483.03336   L 544.94074 485.33846   L 543.40428 487.60514   L 541.86783 489.8334   L 540.29297 492.06167   L 538.71811 494.25151   L 537.14325 496.40293   L 535.52997 498.59278   L 533.9167 500.70578   L 532.26502 502.81879   L 530.61333 504.9318   L 528.92323 507.00639   L 527.23314 509.08097   L 525.54304 511.11714   L 523.81454 513.15332   L 522.08603 515.18949   L 520.31911 517.18724   L 518.55219 519.18499   L 516.74686 521.14432   L 514.94153 523.14207   L 513.09779 525.06299   L 511.25405 527.02232   L 509.41031 528.94324   L 507.52816 530.86415   L 505.60759 532.78507   L 503.68703 534.66757   L 501.76646 536.58848   L 499.80749 538.47098   L 495.85113 542.19755   L 491.77953 545.92413   L 489.16757 547.84505   L 486.59401 549.80438   L 483.98204 551.76371   L 481.40849 553.76146   L 478.83493 555.7208   L 476.26138 557.68013   L 473.68782 559.67788   L 471.11427 561.63722   L 466.96585 564.24966   L 462.81743 566.82369   L 458.6306 569.32088   L 454.44378 571.77965   L 450.21854 574.16159   L 446.03171 576.5051   L 441.76806 578.77178   L 437.54282 581.00004   L 433.27916 583.18989   L 428.9771 585.30289   L 424.67504 587.37748   L 420.33456 589.37523   L 415.95568 591.33457   L 411.57679 593.21707   L 407.1595 595.06114   L 402.70379 596.82839   L 398.86266 598.05777   L 395.02154 599.24874   L 391.21882 600.36287   L 387.37769 601.477   L 383.57498 602.55271   L 379.77226 603.59001   L 375.96954 604.58888   L 372.16683 605.54934   L 368.36411 606.47138   L 364.5614 607.355   L 360.75868 608.2002   L 356.95596 609.00699   L 353.15325 609.77536   L 349.38894 610.5053   L 345.58623 611.19683   L 341.78351 611.88836   L 338.13444 612.27254   L 334.48537 612.61831   L 330.8363 612.92566   L 327.18723 613.19458   L 323.53816 613.46351   L 319.88908 613.69402   L 316.27843 613.88611   L 312.62935 614.03979   L 309.01869 614.19346   L 305.40803 614.30872   L 301.79738 614.42397   L 298.18672 614.50081   L 294.57606 614.57764   L 291.00381 614.61606   L 287.39315 614.65448   L 283.8209 614.6929  z "
     id="path2565" />
  <path
     style="fill:#0081c9;fill-rule:evenodd;fill-opacity:1;stroke:none;"
     d="  M 285.43417 600.97756   L 282.59174 600.74705   L 280.05659 600.55496   L 277.86715 600.40129   L 275.86977 600.24762   L 274.10285 600.09394   L 272.48957 599.97869   L 270.99153 599.86343   L 269.53191 599.70976   L 268.07228 599.55609   L 266.61265 599.44083   L 265.0762 599.24874   L 263.3861 599.09507   L 261.58077 598.90297   L 259.50656 598.67246   L 257.20189 598.40354   L 253.97534 597.82726   L 250.7872 597.21257   L 247.63748 596.59788   L 244.52617 595.98318   L 241.41485 595.33007   L 238.34195 594.63854   L 235.30746 593.94701   L 232.31138 593.25548   L 229.3153 592.52554   L 226.35763 591.75717   L 223.39997 590.9888   L 220.48071 590.18202   L 217.56145 589.33682   L 214.68061 588.49161   L 211.79976 587.60799   L 208.91892 586.72437   L 206.07648 585.80233   L 203.19564 584.84187   L 200.3532 583.88142   L 197.54918 582.84412   L 194.70674 581.80683   L 191.90272 580.76953   L 189.06029 579.6554   L 186.25626 578.54127   L 183.45224 577.38872   L 180.60981 576.19776   L 177.80578 574.96837   L 174.96335 573.73898   L 172.15933 572.43276   L 169.31689 571.12654   L 166.43605 569.7819   L 163.59361 568.39884   L 161.90352 567.4768   L 160.21342 566.55476   L 158.52333 565.63272   L 156.83323 564.67226   L 155.18154 563.75022   L 153.49145 562.82818   L 151.80135 561.90615   L 150.11126 560.98411   L 147.34564 559.25528   L 144.65686 557.48804   L 142.00648 555.7208   L 139.39451 553.95356   L 136.78254 552.18631   L 134.2474 550.38065   L 131.75067 548.61341   L 129.29235 546.76933   L 126.83402 544.96367   L 124.45253 543.11959   L 122.07103 541.2371   L 119.72794 539.39302   L 117.42326 537.4721   L 115.11859 535.58961   L 112.85232 533.63027   L 110.62447 531.70936   L 108.39661 529.71161   L 106.20717 527.71385   L 104.05614 525.7161   L 101.90511 523.64151   L 99.754077 521.60534   L 97.641457 519.49234   L 95.528837 517.37933   L 93.416217 515.2279   L 91.342008 513.03806   L 89.267799 510.84822   L 87.193591 508.61995   L 85.157793 506.35327   L 83.083584 504.04818   L 81.047787 501.70466   L 79.011989 499.32272   L 76.976192 496.94079   L 74.786749 493.90574   L 72.597307 490.83228   L 70.446275 487.75881   L 68.333655 484.68535   L 66.297858 481.6503   L 64.300472 478.69209   L 62.379908 475.7723   L 60.574578 473.00619   L 90.304904 472.96777   L 120.03523 472.92935   L 149.80397 472.92935   L 179.53429 472.89093   L 209.30303 472.89093   L 239.03335 472.85251   L 268.80209 472.85251   L 298.53242 472.81409   L 328.30115 472.81409   L 358.06989 472.81409   L 387.80022 472.77568   L 417.56895 472.77568   L 447.33769 472.77568   L 477.10643 472.77568   L 506.83675 472.77568   L 536.60549 472.77568   L 535.49156 474.46608   L 534.37764 476.1949   L 533.2253 477.88531   L 532.07296 479.61413   L 530.92062 481.30454   L 529.76828 483.03336   L 528.57753 484.72377   L 527.38678 486.41417   L 526.19603 488.143   L 525.00528 489.8334   L 523.81454 491.52381   L 522.62379 493.21421   L 521.39463 494.8662   L 520.16546 496.55661   L 518.97472 498.20859   L 517.74555 499.86058   L 514.67265 503.39507   L 511.56134 506.89113   L 508.41161 510.31036   L 505.22348 513.69117   L 501.99693 516.99515   L 498.77039 520.22228   L 495.46702 523.411   L 492.16365 526.52289   L 488.78345 529.63477   L 485.36485 532.66981   L 481.90784 535.66644   L 478.374 538.62465   L 474.80175 541.54444   L 471.15268 544.46423   L 467.4652 547.34561   L 463.70089 550.18856   L 461.58827 551.5332   L 459.51406 552.87784   L 457.43986 554.22248   L 455.32724 555.56713   L 453.25303 556.95018   L 451.21723 558.29482   L 449.14302 559.63947   L 447.06881 560.98411   L 444.3032 562.48242   L 441.49918 563.98073   L 438.73356 565.44063   L 435.92954 566.86211   L 433.16393 568.28358   L 430.35991 569.66664   L 427.55588 571.01128   L 424.75186 572.31751   L 421.94784 573.62373   L 419.14382 574.89153   L 416.33979 576.15934   L 413.53577 577.3503   L 410.69334 578.54127   L 407.8509 579.69382   L 405.04688 580.84637   L 402.20444 581.92208   L 399.3236 582.9978   L 396.48116 584.07351   L 393.60032 585.07238   L 390.71947 586.07126   L 387.83863 587.03172   L 384.91937 587.99218   L 382.03853 588.8758   L 379.08086 589.75942   L 376.1616 590.64304   L 373.20393 591.44982   L 370.24626 592.25661   L 367.2886 593.02497   L 364.29252 593.75492   L 361.29644 594.48487   L 358.30036 595.1764   L 355.26587 595.82951   L 351.00222 596.4442   L 346.77698 597.02048   L 342.59015 597.59675   L 338.40332 598.09619   L 334.2549 598.55721   L 330.10648 598.97981   L 325.95807 599.36399   L 321.84806 599.74818   L 317.69964 600.05552   L 313.58964 600.32445   L 309.47963 600.55496   L 305.33121 600.74705   L 301.18279 600.93914   L 297.03438 601.0544   L 292.84755 601.13124   L 288.66072 601.20807  z "
     id="path2567" />
  <path
     style="fill:#fcdb00;fill-rule:evenodd;fill-opacity:1;stroke:none;"
     d="  M 54.697653 462.67166   L 53.045969 459.32927   L 51.471106 455.98688   L 49.896244 452.6829   L 48.398204 449.37893   L 46.938576 446.11337   L 45.55577 442.8094   L 44.172964 439.54384   L 42.866981 436.23987   L 41.599409 432.93589   L 40.370248 429.63192   L 39.179499 426.32794   L 38.027161 422.98555   L 36.913234 419.64316   L 35.876129 416.26235   L 34.839025 412.88154   L 34.301267 410.30751   L 33.763509 407.7719   L 33.264163 405.23629   L 32.764816 402.7391   L 32.303881 400.24191   L 31.842946 397.78314   L 31.38201 395.32437   L 30.959486 392.8656   L 30.536962 390.40683   L 30.15285 387.98647   L 29.768737 385.56612   L 29.384624 383.14577   L 29.038923 380.76383   L 28.693221 378.34348   L 28.385931 375.92313   L 28.078641 373.54119   L 27.195182 351.02806   L 26.273311 328.51494   L 25.389852 306.04023   L 24.467981 283.5271   L 23.546111 261.01397   L 22.662651 238.50084   L 21.740781 216.02614   L 20.857321 193.51301   L 19.973862 170.99988   L 19.051992 148.48675   L 18.168532 126.01204   L 17.246662 103.49892   L 16.363202 80.985789   L 15.479743 58.51108   L 14.596284 35.997953   L 13.712825 13.484825   L 49.320075 13.484825   L 84.927326 13.484825   L 120.53458 13.484825   L 156.10342 13.484825   L 191.71067 13.484825   L 227.31792 13.484825   L 262.92517 13.484825   L 298.53242 13.484825   L 334.13967 13.484825   L 369.74692 13.484825   L 405.35417 13.484825   L 440.96142 13.484825   L 476.56867 13.484825   L 512.13751 13.484825   L 547.74476 13.484825   L 583.35201 13.484825   L 582.46855 35.805861   L 581.58509 58.126897   L 580.70163 80.409515   L 579.81817 102.73055   L 578.93471 125.05159   L 578.05125 147.37262   L 577.16779 169.69366   L 576.28433 191.97628   L 575.40088 214.29731   L 574.55583 236.61835   L 573.67237 258.93938   L 572.78891 281.26042   L 571.90545 303.54304   L 571.0604 325.86407   L 570.17694 348.18511   L 569.33189 370.50614   L 569.10143 372.77282   L 568.87096 375.0395   L 568.60208 377.26777   L 568.3332 379.53445   L 568.02591 381.76271   L 567.71862 383.99097   L 567.37292 386.18081   L 567.02722 388.40908   L 566.64311 390.59892   L 566.25899 392.78876   L 565.83647 394.97861   L 565.41394 397.16845   L 564.49207 401.50972   L 563.53179 405.8894   L 562.45628 410.19225   L 561.30394 414.53352   L 560.11319 418.87479   L 558.80721 423.21606   L 557.46281 427.55733   L 556.00318 431.93702   L 554.50514 436.3167   L 552.93028 440.73481   L 550.89448 445.11449   L 549.31962 448.53372   L 548.01364 451.29984   L 546.82289 453.7202   L 545.67055 456.10213   L 544.32616 458.71458   L 542.71288 461.82646   L 540.67708 465.78354   L 530.61333 465.78354   L 520.54958 465.78354   L 510.52423 465.82196   L 500.46048 465.82196   L 490.43514 465.82196   L 480.37139 465.82196   L 470.34604 465.86038   L 460.28229 465.86038   L 450.25695 465.8988   L 440.19319 465.8988   L 430.16785 465.93722   L 420.14251 465.93722   L 410.07875 465.97564   L 400.05341 465.97564   L 390.02807 466.01405   L 380.00273 466.01405   L 379.84908 463.78579   L 379.65703 461.7112   L 379.5802 460.75075   L 379.54179 459.79029   L 379.50338 458.90667   L 379.50338 458.02305   L 379.54179 457.13942   L 379.61862 456.29422   L 379.77226 455.44902   L 379.96432 454.60382   L 380.19478 453.75861   L 380.54049 452.91341   L 380.96301 452.06821   L 381.46236 451.18459   L 382.42264 451.10775   L 383.34451 451.03091   L 384.3432 451.03091   L 385.41872 451.06933   L 386.7247 451.10775   L 388.33797 451.14617   L 390.29695 451.18459   L 392.67845 451.18459   L 393.5235 450.95408   L 394.33013 450.64673   L 395.13677 450.26255   L 395.94341 449.83995   L 396.71163 449.34051   L 397.47986 448.80265   L 398.24808 448.22638   L 398.9779 447.57327   L 399.70771 446.88174   L 400.43753 446.15179   L 401.16734 445.38342   L 401.85874 444.57664   L 402.55015 443.76985   L 403.20314 442.92465   L 403.85613 442.04103   L 404.50912 441.15741   L 405.77669 439.35175   L 406.96744 437.50767   L 408.15819 435.66359   L 409.23371 433.85793   L 411.30792 430.47712   L 413.15166 427.59575   L 415.80203 425.17539   L 418.45241 422.8703   L 421.1412 420.64203   L 423.82999 418.41377   L 426.5956 416.26235   L 429.36121 414.14934   L 432.16524 412.03633   L 435.04608 409.96174   L 436.58253 409.19338   L 438.11898 408.42501   L 439.65544 407.65665   L 441.19189 406.9267   L 442.72834 406.19675   L 444.3032 405.42838   L 445.83965 404.69844   L 447.41451 404.00691   L 448.37479 403.31538   L 449.29667 402.62385   L 450.18012 401.93232   L 451.02517 401.24079   L 451.7934 400.54926   L 452.52321 399.81931   L 453.21461 399.08936   L 453.86761 398.321   L 454.48219 397.55263   L 455.05836 396.78427   L 455.59611 396.0159   L 456.05705 395.20912   L 456.51798 394.40233   L 456.97892 393.55713   L 457.36303 392.75034   L 457.70873 391.86672   L 458.05444 391.02152   L 458.36173 390.1379   L 458.6306 389.25428   L 458.89948 388.33224   L 459.12995 387.4102   L 459.32201 386.48816   L 459.51406 385.5277   L 459.66771 384.56724   L 459.93659 382.56949   L 460.16706 380.53332   L 460.3207 378.42032   L 460.43593 376.23047   L 458.2849 374.57848   L 456.21069 372.96492   L 454.21331 371.31293   L 452.33116 369.66094   L 451.40929 368.85416   L 450.52583 368.00895   L 449.64237 367.16375   L 448.83573 366.31855   L 448.02909 365.43493   L 447.22246 364.55131   L 446.45423 363.66769   L 445.72442 362.78406   L 445.03301 361.86203   L 444.34161 360.93999   L 443.68862 359.97953   L 443.07404 359.01907   L 442.49787 358.05861   L 441.9217 357.05974   L 441.38394 356.02244   L 440.8846 354.98515   L 440.38525 353.94785   L 439.92431 352.83372   L 439.50179 351.71959   L 439.11768 350.60546   L 438.77198 349.45291   L 438.42627 348.26195   L 438.11898 347.03256   L 437.85011 345.76476   L 438.23422 343.99751   L 438.54151 342.57604   L 438.77198 341.4619   L 439.04086 340.50145   L 439.27132 339.61783   L 439.57861 338.61895   L 439.96273 337.4664   L 440.46207 336.00651   L 441.88329 333.77824   L 443.2661 331.54998   L 444.6489 329.36014   L 445.9933 327.13188   L 447.33769 324.94203   L 448.60526 322.71377   L 449.87283 320.48551   L 451.10199 318.25725   L 452.25433 316.02899   L 453.36826 313.76231   L 454.44378 311.45721   L 455.44247 309.15211   L 456.40275 306.80859   L 457.28621 304.42666   L 457.70873 303.23569   L 458.13126 302.04472   L 458.51537 300.81534   L 458.86107 299.58595   L 459.05313 297.70345   L 459.16836 295.82096   L 459.24518 293.93846   L 459.32201 292.1328   L 459.32201 290.28872   L 459.32201 288.52148   L 459.2836 286.71582   L 459.16836 284.98699   L 459.05313 283.21975   L 458.89948 281.49093   L 458.70743 279.76211   L 458.47696 278.0717   L 458.24649 276.34288   L 457.9392 274.65247   L 457.63191 272.96207   L 457.28621 271.27166   L 456.24911 269.35074   L 455.01994 267.04565   L 453.67555 264.51004   L 452.33116 261.85917   L 451.71658 260.51453   L 451.14041 259.20831   L 450.60265 257.90209   L 450.18012 256.63429   L 449.98807 256.01959   L 449.83442 255.44332   L 449.71919 254.86704   L 449.60396 254.29077   L 449.56554 253.75291   L 449.52713 253.25347   L 449.52713 252.75404   L 449.52713 252.29302   L 451.48611 250.60261   L 453.36826 248.91221   L 454.29013 248.067   L 455.17359 247.18338   L 456.01864 246.29976   L 456.86369 245.41614   L 457.67032 244.4941   L 458.47696 243.53364   L 459.20677 242.57318   L 459.975 241.53589   L 460.6664 240.4986   L 461.31939 239.42288   L 461.97239 238.27033   L 462.58697 237.11779   L 463.00949 232.58443   L 463.27837 229.04994   L 463.47042 227.59005   L 463.66248 226.28382   L 463.81613 225.70755   L 463.96977 225.13127   L 464.12342 224.59342   L 464.35388 224.09398   L 464.58435 223.63296   L 464.85323 223.17194   L 465.16052 222.74934   L 465.50622 222.32674   L 465.89034 221.90414   L 466.35127 221.48153   L 466.85062 221.09735   L 467.38837 220.71317   L 467.96454 220.32899   L 468.65595 219.90638   L 469.34735 219.5222   L 470.15399 219.0996   L 471.95932 218.2544   L 474.03353 217.33236   L 475.3011 217.2171   L 476.45344 217.17868   L 477.52895 217.2171   L 478.52764 217.29394   L 479.02699 217.37078   L 479.48793 217.48603   L 479.91045 217.60129   L 480.37139 217.71654   L 480.79391 217.87021   L 481.21643 218.06231   L 481.60055 218.2544   L 481.98466 218.44649   L 482.7913 218.90751   L 483.52111 219.48378   L 484.28934 220.09848   L 485.01915 220.82842   L 485.78737 221.63521   L 486.5556 222.51883   L 487.36224 223.47929   L 488.20729 224.51658   L 488.62981 225.66913   L 488.97551 226.82168   L 489.2828 227.97423   L 489.51327 229.12678   L 489.70532 230.27933   L 489.82056 231.43188   L 489.89738 232.62284   L 489.89738 233.81381   L 489.85897 235.00478   L 489.78215 236.23416   L 489.66691 237.46355   L 489.47486 238.69294   L 489.2828 239.96074   L 489.01392 241.22854   L 488.74504 242.53477   L 488.43775 243.84099   L 487.63112 245.91558   L 486.74766 248.02858   L 485.8642 250.14159   L 484.90392 252.29302   L 483.94363 254.44444   L 482.94494 256.63429   L 481.94625 258.82413   L 480.94755 261.01397   L 479.94886 263.24223   L 478.95017 265.43208   L 477.95148 267.66034   L 476.99119 269.85018   L 476.03091 272.07844   L 475.14745 274.30671   L 474.3024 276.49655   L 473.49577 278.68639   L 473.22689 280.60731   L 472.99642 282.56664   L 472.80436 284.52598   L 472.61231 286.48531   L 472.42025 288.44464   L 472.26661 290.44239   L 472.15137 292.44015   L 472.07455 294.47632   L 471.99773 296.47407   L 471.99773 298.51024   L 471.99773 300.54641   L 472.03614 302.58258   L 472.15137 304.65717   L 472.26661 306.69334   L 472.45866 308.76793   L 472.68913 310.84251   L 472.99642 311.80297   L 473.30371 312.80185   L 473.68782 313.80072   L 474.07194 314.76118   L 474.53287 315.76006   L 474.99381 316.72052   L 475.49315 317.71939   L 476.03091 318.67985   L 477.18325 320.6776   L 478.45082 322.71377   L 479.79522 324.78836   L 481.21643 326.90137   L 483.67475 329.59065   L 485.90261 332.12626   L 486.93971 333.35564   L 487.89999 334.50819   L 488.86028 335.66074   L 489.70532 336.81329   L 490.51196 337.92742   L 491.28019 339.00313   L 491.97159 340.11726   L 492.62458 341.19298   L 493.20075 342.30711   L 493.7001 343.38282   L 494.16103 344.49695   L 494.54515 345.61108   L 494.89085 346.76363   L 495.15973 347.91618   L 495.39019 349.10715   L 495.50543 350.29812   L 495.62066 351.56592   L 495.62066 352.87214   L 495.58225 354.21678   L 495.46702 355.59984   L 495.27496 357.05974   L 495.04449 358.55805   L 494.7372 360.09478   L 494.35309 361.74677   L 493.89215 363.43718   L 493.39281 365.24284   L 492.77823 367.08692   L 492.12523 369.04625   L 492.12523 370.23722   L 492.12523 371.38977   L 492.12523 372.58073   L 492.12523 373.7717   L 492.77823 373.73328   L 493.43122 373.61803   L 494.08421 373.46435   L 494.7372 373.27226   L 495.39019 373.00333   L 496.04318 372.65757   L 496.65777 372.27339   L 497.27235 371.8892   L 497.88693 371.42818   L 498.50151 370.92875   L 499.11609 370.39089   L 499.69226 369.81461   L 500.26842 369.19992   L 500.80618 368.58523   L 501.34394 367.93212   L 501.8817 367.24059   L 502.41946 366.54906   L 502.9188 365.85753   L 503.37974 365.12758   L 503.84067 364.39763   L 504.72413 362.93774   L 505.53077 361.47784   L 506.26058 360.05637   L 506.87516 358.63489   L 507.41292 357.32867   L 507.87386 356.09928   L 508.0275 354.63938   L 508.18115 353.02582   L 508.29638 351.25857   L 508.3732 349.37608   L 508.52685 345.38057   L 508.64208 341.38507   L 508.75732 339.38732   L 508.87255 337.50482   L 509.0262 335.73758   L 509.21825 334.08559   L 509.33349 333.31722   L 509.44872 332.62569   L 509.60236 331.93417   L 509.75601 331.31947   L 509.90965 330.78162   L 510.10171 330.28218   L 510.33218 329.85958   L 510.56265 329.47539   L 510.90835 329.47539   L 511.25405 329.47539   L 511.59975 329.47539   L 512.02227 329.47539   L 512.59844 330.43585   L 513.21302 331.39631   L 513.78919 332.39518   L 514.36536 333.43248   L 514.40377 334.7387   L 514.44218 336.6212   L 514.4806 338.88788   L 514.55742 341.34665   L 514.63424 342.57604   L 514.74947 343.80542   L 514.86471 344.95797   L 515.01835 346.0721   L 515.172 347.07098   L 515.40247 347.9546   L 515.5177 348.33878   L 515.67135 348.68455   L 515.78658 348.99189   L 515.94022 349.26082   L 516.28593 349.26082   L 516.63163 349.26082   L 517.01574 349.26082   L 517.39985 349.26082   L 517.8992 348.41562   L 518.36013 347.57042   L 518.78266 346.72521   L 519.16677 345.84159   L 519.51247 344.95797   L 519.81976 344.07435   L 520.12705 343.19073   L 520.35752 342.30711   L 520.58799 341.38507   L 520.78004 340.50145   L 520.9721 339.57941   L 521.12575 338.65737   L 521.35621 336.81329   L 521.50986 334.93079   L 521.62509 333.08671   L 521.6635 331.20422   L 521.6635 329.32172   L 521.62509 327.47764   L 521.62509 325.63356   L 521.58668 323.8279   L 521.54827 322.02224   L 521.54827 320.255   L 522.96949 321.25388   L 524.19865 322.29117   L 525.27416 323.44372   L 526.19603 324.63469   L 526.96426 325.90249   L 527.57884 327.24713   L 528.07819 328.63019   L 528.4623 330.09009   L 528.73118 331.5884   L 528.92323 333.12513   L 528.96165 334.7387   L 528.92323 336.35227   L 528.84641 338.00426   L 528.65436 339.65624   L 528.38548 341.34665   L 528.07819 343.07547   L 527.69407 344.8043   L 527.27155 346.4947   L 526.81061 348.22353   L 526.34968 349.95235   L 525.31258 353.37158   L 524.27547 356.71397   L 523.23837 359.90269   L 522.3165 362.97616   L 521.93238 364.43605   L 521.54827 365.85753   L 521.24098 367.20217   L 521.01051 368.46997   L 521.08734 368.7389   L 521.16416 368.96941   L 521.24098 369.1615   L 521.35621 369.3536   L 521.47145 369.46885   L 521.62509 369.62252   L 521.77874 369.69936   L 521.97079 369.7762   L 522.16285 369.85303   L 522.43173 369.89145   L 522.70061 369.89145   L 523.0079 369.92987   L 523.6993 369.89145   L 524.58276 369.81461   L 525.77351 368.58523   L 526.92585 367.27901   L 528.00136 365.89595   L 529.03847 364.43605   L 530.03716 362.89932   L 530.95903 361.32417   L 531.8809 359.7106   L 532.72595 358.02019   L 533.53259 356.32979   L 534.2624 354.56255   L 534.99222 352.75689   L 535.64521 350.91281   L 536.25979 349.03031   L 536.83596 347.14781   L 537.3353 345.26532   L 537.79624 343.3444   L 538.21876 341.38507   L 538.60288 339.46415   L 538.94858 337.50482   L 539.21746 335.5839   L 539.44792 333.66299   L 539.60157 331.70366   L 539.7168 329.82116   L 539.83204 327.90024   L 539.83204 326.05616   L 539.83204 324.21209   L 539.75521 322.40643   L 539.63998 320.63918   L 539.44792 318.91036   L 539.25587 317.21995   L 538.94858 315.56797   L 538.64129 313.99282   L 538.06512 312.22557   L 537.48895 310.45833   L 536.83596 308.69109   L 536.18297 306.96227   L 534.80016 303.54304   L 533.41735 300.16223   L 531.99614 296.81983   L 530.61333 293.5927   L 529.26894 290.44239   L 528.07819 287.33051   L 527.88613 285.90903   L 527.69407 284.48756   L 527.50202 283.1045   L 527.30996 281.68302   L 527.11791 280.29996   L 526.96426 278.87848   L 526.7722 277.49543   L 526.61856 276.11237   L 528.4623 279.10899   L 530.42127 282.10562   L 532.41866 285.14067   L 534.41605 288.17571   L 536.37502 291.24918   L 538.334 294.39948   L 539.29428 296.01305   L 540.21615 297.66504   L 541.13802 299.35544   L 542.02148 301.04585   L 542.29036 302.27523   L 542.55924 303.77355   L 542.90494 305.46395   L 543.28905 307.26961   L 543.55793 308.19165   L 543.82681 309.03685   L 544.17251 309.88206   L 544.55662 310.68884   L 544.74868 311.03461   L 544.97915 311.41879   L 545.20961 311.72614   L 545.44008 312.0719   L 545.70896 312.34083   L 546.01625 312.60976   L 546.28513 312.87869   L 546.63083 313.07078   L 547.207 312.76343   L 547.74476 312.34083   L 548.20569 311.91823   L 548.66663 311.38037   L 549.05074 310.8041   L 549.39644 310.1894   L 549.74215 309.53629   L 550.01102 308.84476   L 550.2799 308.11482   L 550.51037 307.34645   L 550.70243 306.53966   L 550.85607 305.69446   L 550.97131 304.84926   L 551.08654 304.00406   L 551.20177 303.12044   L 551.24018 302.23681   L 551.35542 300.43115   L 551.35542 298.66391   L 551.31701 296.89667   L 551.2786 295.24468   L 551.12495 292.24805   L 551.00972 289.94296   L 550.39514 288.36781   L 549.74215 286.63898   L 549.05074 284.87174   L 548.43616 283.02766   L 548.12887 282.14404   L 547.8984 281.222   L 547.66794 280.3768   L 547.47588 279.5316   L 547.36065 278.68639   L 547.28382 277.95644   L 547.24541 277.2265   L 547.28382 276.57339   L 547.70635 277.03441   L 548.35934 277.72594   L 549.20439 278.60956   L 550.16467 279.49318   L 550.66402 279.9542   L 551.16336 280.33838   L 551.70112 280.68414   L 552.23888 280.99149   L 552.50776 281.10675   L 552.77664 281.18358   L 553.04551 281.26042   L 553.27598 281.33726   L 553.54486 281.37567   L 553.77533 281.37567   L 554.04421 281.33726   L 554.27468 281.26042   L 554.27468 280.41522   L 554.27468 279.60843   L 554.27468 278.76323   L 554.27468 277.91803   L 554.27468 277.07282   L 554.31309 276.26604   L 554.3515 275.45926   L 554.38991 274.65247   L 553.3528 271.57901   L 552.27729 268.54396   L 551.24018 265.50891   L 550.20308 262.43545   L 549.16598 259.43882   L 548.12887 256.40378   L 547.13018 253.36873   L 546.13149 250.3721   L 545.1712 247.33705   L 544.21092 244.37885   L 543.28905 241.38222   L 542.40559 238.42401   L 541.56054 235.4658   L 540.75391 232.50759   L 540.02409 229.5878   L 539.33269 226.66801   L 539.29428 224.93918   L 539.29428 223.24878   L 539.33269 221.55837   L 539.3711 219.86797   L 539.44792 218.17756   L 539.52475 216.52557   L 539.63998 214.83517   L 539.75521 213.18318   L 540.0625 209.84079   L 540.40821 206.53681   L 540.83073 203.23284   L 541.21484 199.96728   L 541.63737 196.70173   L 542.05989 193.43617   L 542.48241 190.20903   L 542.86653 186.9819   L 543.17382 183.75476   L 543.48111 180.56604   L 543.59634 178.95247   L 543.67316 177.37732   L 543.74999 175.76375   L 543.82681 174.1886   L 543.59634 172.42136   L 543.28905 170.73095   L 542.90494 169.00213   L 542.48241 167.35014   L 541.98307 165.69815   L 541.44531 164.08459   L 540.83073 162.50943   L 540.13933 160.93428   L 539.40951 159.39755   L 538.64129 157.89924   L 537.79624 156.43934   L 536.91278 154.97945   L 535.99091 153.55797   L 535.03063 152.17491   L 534.03193 150.79185   L 532.95642 149.44721   L 531.8809 148.14099   L 530.76698 146.87318   L 529.61464 145.6438   L 528.4623 144.41441   L 527.27155 143.22345   L 526.04239 142.0709   L 524.77482 140.91835   L 523.50725 139.84263   L 522.23967 138.76692   L 520.93369 137.72963   L 519.62771 136.73075   L 518.32172 135.73188   L 517.01574 134.80984   L 515.67135 133.8878   L 514.36536 133.00418   L 513.02097 132.15897   L 511.36928 131.42903   L 509.7176 130.77591   L 508.0275 130.16122   L 506.33741 129.58495   L 504.64731 129.08551   L 502.9188 128.58607   L 501.22871 128.16347   L 499.5002 127.77929   L 497.73328 127.43352   L 496.00477 127.12618   L 494.27627 126.85725   L 492.50935 126.66516   L 490.74243 126.47306   L 489.01392 126.31939   L 487.247 126.24255   L 485.48008 126.16572   L 483.75158 126.16572   L 481.98466 126.16572   L 480.25615 126.20414   L 478.48923 126.28097   L 476.76073 126.39623   L 475.03222 126.5499   L 473.30371 126.74199   L 471.61361 126.9725   L 469.88511 127.20301   L 468.19501 127.51036   L 466.50492 127.8177   L 464.85323 128.16347   L 463.20155 128.50923   L 461.54986 128.93184   L 459.93659 129.35444   L 458.32331 129.77704   L 456.13387 130.69908   L 453.98284 131.62112   L 451.87022 132.58157   L 449.83442 133.58045   L 447.83704 134.61774   L 445.87806 135.65504   L 443.9575 136.76917   L 442.07535 137.92172   L 440.27002 139.1511   L 438.54151 140.38049   L 436.813 141.64829   L 435.16132 142.99294   L 433.58645 144.37599   L 432.05 145.79747   L 430.59037 147.25737   L 429.20757 148.75568   L 427.86317 150.33083   L 426.5956 151.98282   L 425.36644 153.63481   L 424.25251 155.36363   L 423.177 157.16929   L 422.17831 159.01337   L 421.25644 160.89587   L 420.41139 162.8552   L 419.64316 164.89137   L 418.95176 166.96596   L 418.33718 169.11738   L 417.79942 171.30723   L 417.33849 173.61233   L 416.99278 175.91742   L 416.68549 178.33778   L 416.49344 180.79655   L 416.60867 181.98752   L 416.68549 183.17848   L 416.76232 184.36945   L 416.87755 185.522   L 416.95437 186.71297   L 417.06961 187.90394   L 417.18484 189.05648   L 417.30007 190.24745   L 417.7226 192.2452   L 418.26036 194.28137   L 418.83653 196.27913   L 419.48952 198.27688   L 420.21933 200.31305   L 420.98756 202.3108   L 421.79419 204.34697   L 422.67765 206.34472   L 423.63793 208.38089   L 424.59822 210.37864   L 425.59691 212.41481   L 426.63401 214.41257   L 427.74794 216.41032   L 428.82346 218.40807   L 429.97579 220.40582   L 431.12813 222.40357   L 431.85795 224.82393   L 432.62617 227.66688   L 432.97187 229.20361   L 433.24075 230.70193   L 433.35599 231.47029   L 433.43281 232.23866   L 433.47122 233.00703   L 433.50963 233.77539   L 433.47122 234.50534   L 433.43281 235.23529   L 433.31758 235.96524   L 433.20234 236.65677   L 433.01029 237.30988   L 432.74141 237.96299   L 432.47253 238.57768   L 432.12683 239.15396   L 431.7043 239.69181   L 431.24337 240.19125   L 430.6672 240.65227   L 430.05262 241.07487   L 429.39963 241.45905   L 428.6314 241.80482   L 427.78635 242.07375   L 426.86448 242.26584   L 424.63663 241.30538   L 422.44718 240.3065   L 420.21933 239.34605   L 417.99148 238.42401   L 415.76362 237.50197   L 413.49736 236.57993   L 411.2695 235.73473   L 409.04165 234.88952   L 406.8138 234.12116   L 404.58594 233.39121   L 402.35809 232.69968   L 400.16865 232.04657   L 397.9792 231.47029   L 395.82817 230.97086   L 393.67714 230.50984   L 391.56452 230.12565   L 389.83601 230.0104   L 388.0691 229.85673   L 386.34059 229.70305   L 384.57367 229.54938   L 382.84516 229.39571   L 381.11665 229.28045   L 379.38815 229.12678   L 377.65964 228.9731   L 375.93113 228.81943   L 374.20263 228.70418   L 372.47412 228.5505   L 370.74561 228.43525   L 369.0171 228.28158   L 367.2886 228.16632   L 365.56009 228.01265   L 363.83158 227.89739   L 361.1812 227.09061   L 358.53083 226.20699   L 355.84204 225.28495   L 353.19166 224.32449   L 350.50287 223.2872   L 347.81408 222.21148   L 345.12529 221.05893   L 342.47491 219.86797   L 339.82454 218.60016   L 337.17416 217.29394   L 334.56219 215.9493   L 331.95022 214.52782   L 329.41508 213.06793   L 326.87994 211.56961   L 324.3832 209.99446   L 321.96329 208.34247   L 319.58179 206.65207   L 317.23871 204.92324   L 314.97244 203.11758   L 312.74459 201.27351   L 310.63197 199.35259   L 308.55776 197.39326   L 306.56037 195.35709   L 304.63981 193.2825   L 302.83448 191.16949   L 301.10597 188.97965   L 299.4927 186.71297   L 297.95625 184.40787   L 296.53503 182.06435   L 295.19064 179.644   L 293.99989 177.14681   L 292.92437 174.64962   L 292.92437 173.766   L 292.92437 172.88238   L 292.92437 172.03717   L 292.92437 171.15355   L 292.92437 170.30835   L 292.92437 169.46315   L 292.92437 168.61795   L 292.92437 167.77274   L 293.65419 165.1603   L 294.34559 162.54785   L 295.0754 159.97383   L 295.80522 157.36138   L 296.49662 154.78736   L 297.22643 152.17491   L 297.87943 149.60088   L 298.57083 147.02686   L 299.18541 144.45283   L 299.79999 141.8788   L 300.41457 139.30478   L 300.95233 136.76917   L 301.45167 134.19514   L 301.91261 131.62112   L 302.33513 129.08551   L 302.68083 126.5499   L 302.83448 124.32164   L 302.9113 122.1318   L 302.98812 119.98037   L 303.02654 117.82894   L 303.06495 115.67752   L 303.06495 113.56451   L 302.98812 111.45151   L 302.9113 109.37692   L 302.79607 107.30233   L 302.64242 105.22774   L 302.45037 103.19157   L 302.18149 101.19382   L 301.91261 99.196066   L 301.56691 97.236733   L 301.18279 95.277399   L 300.72186 93.318066   L 300.26092 91.39715   L 299.68476 89.514653   L 299.10859 87.632156   L 298.41718 85.788078   L 297.68737 83.943999   L 296.91914 82.138339   L 296.03568 80.332678   L 295.11381 78.565436   L 294.11512 76.798194   L 293.07802 75.06937   L 291.92568 73.378965   L 290.69652 71.688559   L 289.42895 70.036572   L 288.04614 68.384585   L 286.58651 66.771016   L 285.05006 65.195866   L 283.05267 63.73597   L 281.0937 62.391329   L 279.17314 61.085107   L 277.29098 59.894139   L 275.44724 58.703172   L 273.64191 57.589041   L 271.83658 56.551747   L 270.10807 55.514452   L 270.14649 54.784505   L 270.22331 54.131393   L 270.37695 53.478282   L 270.56901 52.863589   L 270.83789 52.287315   L 271.10677 51.71104   L 271.41406 51.173184   L 271.75976 50.635327   L 272.52798 49.598033   L 273.33462 48.599157   L 274.14126 47.600281   L 274.9479 46.524569   L 275.06313 46.025131   L 275.17836 45.295183   L 275.2936 44.411562   L 275.44724 43.412686   L 275.60089 42.336973   L 275.79294 41.222842   L 275.985 40.108712   L 276.21547 38.994581   L 276.36911 38.495143   L 276.52276 37.995705   L 276.6764 37.534685   L 276.86846 37.112084   L 277.0221 36.689482   L 277.25257 36.343718   L 277.44463 36.036371   L 277.6751 35.805861   L 277.94397 35.61377   L 278.21285 35.460097   L 278.48173 35.421678   L 278.78902 35.421678   L 279.13472 35.498515   L 279.48043 35.690606   L 279.82613 35.959535   L 280.21024 36.305299   L 280.21024 37.457848   L 280.17183 38.571979   L 280.09501 39.68611   L 279.97977 40.800241   L 279.82613 41.914372   L 279.63407 42.990085   L 279.4036 44.065797   L 279.13472 45.103091   L 278.82743 46.178804   L 278.44332 47.254517   L 278.0208 48.291811   L 277.52145 49.367523   L 276.98369 50.404818   L 276.36911 51.48053   L 275.67771 52.517824   L 274.9479 53.593537   L 276.6764 54.66925   L 278.32809 55.744962   L 279.94136 56.820675   L 281.47781 57.934806   L 282.97585 59.048937   L 284.39707 60.163067   L 285.77987 61.315617   L 287.12427 62.468166   L 288.39184 63.620715   L 289.65941 64.850101   L 290.81175 66.041068   L 291.96409 67.308872   L 293.0396 68.576676   L 294.11512 69.882899   L 295.11381 71.22754   L 296.0741 72.610599   L 296.99597 73.993658   L 297.84101 75.453553   L 298.68606 76.913449   L 299.4927 78.411763   L 300.26092 79.986913   L 300.95233 81.600482   L 301.64373 83.252469   L 302.29672 84.942875   L 302.9113 86.671699   L 303.52588 88.438941   L 304.06364 90.283019   L 304.6014 92.203935   L 305.10074 94.163268   L 305.56168 96.16102   L 305.9842 98.235609   L 306.40673 100.34862   L 306.59878 102.69213   L 306.75243 105.03565   L 306.82925 107.34075   L 306.90607 109.68426   L 306.94449 112.02778   L 306.94449 114.33288   L 306.90607 116.6764   L 306.79084 119.01991   L 306.67561 121.40185   L 306.52196 123.74536   L 306.36832 126.1273   L 306.13785 128.50923   L 305.86897 130.92959   L 305.60009 133.34994   L 305.2928 135.77029   L 304.9471 138.22907   L 304.40934 140.41891   L 303.91 142.33982   L 303.48747 144.06865   L 303.10336 145.6438   L 302.71925 147.14211   L 302.37354 148.52517   L 301.98943 149.90823   L 301.64373 151.32971   L 301.22121 152.82802   L 300.76027 154.44159   L 300.29934 156.20883   L 299.72317 158.16817   L 299.10859 160.39643   L 298.37877 162.89362   L 297.57214 165.77499   L 296.61185 169.00213   L 296.65026 170.07784   L 296.7655 171.15355   L 296.88073 172.22927   L 297.1112 173.26656   L 297.38008 174.30385   L 297.68737 175.30273   L 298.03307 176.30161   L 298.45559 177.30048   L 298.91653 178.26094   L 299.41588 179.18298   L 299.99205 180.14344   L 300.56821 181.06548   L 301.22121 181.9491   L 301.8742 182.83272   L 302.60401 183.67792   L 303.33383 184.52312   L 304.10205 185.32991   L 304.9471 186.13669   L 305.75374 186.90506   L 306.6372 187.63501   L 307.52065 188.36496   L 308.44253 189.0949   L 309.40281 189.74801   L 310.36309 190.40113   L 311.36178 191.05424   L 312.36048 191.63051   L 313.35917 192.20679   L 314.39627 192.74464   L 315.47179 193.2825   L 316.50889 193.74352   L 317.58441 194.20454   L 318.65992 194.62714   L 319.96591 194.62714   L 321.19507 194.58872   L 322.34741 194.47347   L 323.42292 194.35821   L 324.46003 194.20454   L 325.42031 194.01245   L 326.34218 193.74352   L 327.22564 193.43617   L 328.1091 193.05199   L 328.99256 192.62939   L 329.8376 192.16837   L 330.72106 191.59209   L 331.60452 190.9774   L 332.52639 190.28587   L 333.48668 189.5175   L 334.48537 188.6723   L 334.48537 188.17286   L 334.48537 187.67343   L 334.48537 187.21241   L 334.48537 186.75139   L 333.52509 186.09827   L 332.56481 185.40675   L 331.60452 184.75363   L 330.68265 184.0621   L 329.76078 183.40899   L 328.8005 182.71746   L 327.87863 182.06435   L 326.95676 181.37282   L 326.87994 180.95022   L 326.84153 180.60446   L 329.68396 180.41237   L 331.8734 180.25869   L 333.5635 180.10502   L 334.90789 179.98976   L 336.09864 179.87451   L 337.28939 179.72084   L 338.59538 179.49033   L 340.20865 179.2214   L 341.0537 178.72196   L 341.97557 178.06885   L 342.89744 177.37732   L 343.85772 176.57054   L 344.818 175.72533   L 345.73987 174.80329   L 346.66174 173.80442   L 347.50679 172.80554   L 347.8909 172.26768   L 348.2366 171.76825   L 348.58231 171.23039   L 348.8896 170.69253   L 349.19689 170.15468   L 349.42735 169.5784   L 349.65782 169.04055   L 349.81147 168.50269   L 349.96511 167.92642   L 350.04193 167.38856   L 350.08035 166.8507   L 350.08035 166.31285   L 350.04193 165.77499   L 349.9267 165.23713   L 349.77306 164.69928   L 349.54259 164.16142   L 348.73595 164.16142   L 347.66044 164.123   L 346.43127 164.00775   L 345.04847 163.89249   L 343.58884 163.7004   L 342.05239 163.46989   L 340.47753 163.16255   L 338.97949 162.77836   L 338.21126 162.58627   L 337.51986 162.35576   L 336.82846 162.08683   L 336.17546 161.81791   L 335.52247 161.54898   L 334.9463 161.24163   L 334.40855 160.89587   L 333.94761 160.51168   L 333.52509 160.16592   L 333.17939 159.74332   L 332.91051 159.32072   L 332.68004 158.8597   L 332.56481 158.36026   L 332.48798 157.86082   L 332.56481 157.32296   L 332.68004 156.74669   L 333.06415 156.66985   L 333.44826 156.5546   L 333.94761 156.47776   L 334.67743 156.40092   L 335.71453 156.32409   L 337.17416 156.24725   L 339.17154 156.132   L 341.78351 155.97832   L 342.32127 155.74781   L 342.89744 155.47888   L 343.51202 155.13312   L 344.16501 154.78736   L 344.818 154.36475   L 345.47099 153.94215   L 346.1624 153.48113   L 346.8538 152.94328   L 348.27502 151.86756   L 349.73464 150.6766   L 350.42605 150.02349   L 351.11745 149.37037   L 351.80885 148.71726   L 352.50026 148.02573   L 353.11484 147.3342   L 353.76783 146.64267   L 354.344 145.91273   L 354.92017 145.18278   L 355.45792 144.45283   L 355.95727 143.72288   L 356.41821 143.03135   L 356.84073 142.30141   L 357.22484 141.57146   L 357.53213 140.87993   L 357.80101 140.14998   L 358.03148 139.45845   L 358.14671 138.80534   L 358.22354 138.15223   L 358.26195 137.49912   L 358.18512 136.88442   L 357.60896 136.88442   L 357.10961 136.88442   L 356.68708 136.92284   L 356.30297 136.96126   L 355.34269 137.19177   L 353.80624 137.65279   L 352.50026 137.57595   L 351.2711 137.49912   L 350.08035 137.42228   L 348.92801 137.30703   L 347.85249 137.11493   L 346.8538 136.92284   L 345.85511 136.69233   L 344.97165 136.38499   L 344.51071 136.1929   L 344.08819 136.0008   L 343.66566 135.80871   L 343.28155 135.5782   L 342.89744 135.34769   L 342.51333 135.07876   L 342.16762 134.80984   L 341.82192 134.50249   L 341.47622 134.15673   L 341.16893 133.81096   L 340.86164 133.42678   L 340.59276 133.00418   L 340.28547 132.58157   L 340.01659 132.12055   L 339.78612 131.65954   L 339.55566 131.1601   L 340.63117 130.96801   L 341.70669 130.77591   L 342.70538 130.5454   L 343.70407 130.31489   L 344.62595 130.04597   L 345.5094 129.77704   L 346.35445 129.46969   L 347.16109 129.12393   L 347.96773 128.77816   L 348.69754 128.4324   L 349.42735 128.04821   L 350.11876 127.62561   L 350.77175 127.20301   L 351.42474 126.74199   L 352.03932 126.24255   L 352.6539 125.74312   L 353.23007 125.20526   L 353.80624 124.6674   L 354.344 124.05271   L 354.88176 123.47644   L 355.41951 122.82332   L 355.95727 122.17021   L 356.45662 121.5171   L 356.95596 120.78715   L 357.99307 119.28884   L 358.99176 117.71369   L 360.02887 115.98487   L 361.10438 114.17921   L 361.52691 112.64247   L 361.71896 111.56676   L 361.8342 110.45263   L 361.91102 108.76222   L 360.91232 108.99273   L 360.06728 109.22324   L 359.26064 109.49217   L 358.56924 109.83794   L 357.87783 110.1837   L 357.18643 110.6063   L 356.49503 111.0289   L 355.7268 111.48992   L 354.72811 111.45151   L 353.65259 111.41309   L 352.61549 111.33625   L 351.53997 111.221   L 350.46446 111.06732   L 349.42735 110.87523   L 348.39025 110.6063   L 347.39156 110.29896   L 346.93062 110.14528   L 346.46969 109.95319   L 346.00875 109.7611   L 345.58623 109.53059   L 345.1637 109.30008   L 344.77959 109.03115   L 344.43389 108.76222   L 344.08819 108.4933   L 343.74249 108.18595   L 343.47361 107.8786   L 343.20473 107.53284   L 342.97426 107.14866   L 342.7822 106.80289   L 342.59015 106.38029   L 342.47491 105.95769   L 342.35968 105.53509   L 344.51071 104.07519   L 346.58492 102.57688   L 347.58361 101.80851   L 348.54389 101.04015   L 349.54259 100.27178   L 350.46446 99.503413   L 351.38633 98.696628   L 352.26979 97.889844   L 353.15325 97.08306   L 353.9983 96.237857   L 354.84334 95.392654   L 355.64998 94.509033   L 356.41821 93.66383   L 357.18643 92.741791   L 357.91625 91.85817   L 358.64606 90.897712   L 359.33746 89.975673   L 359.99045 88.976797   L 360.60503 88.016339   L 361.21962 86.979045   L 361.8342 85.941751   L 362.37195 84.904457   L 362.90971 83.828744   L 363.44747 82.714613   L 363.9084 81.600482   L 364.36934 80.409515   L 364.83027 79.256966   L 365.21439 78.02758   L 365.5985 76.798194   L 365.9442 75.53039   L 365.44486 75.376717   L 365.02233 75.261462   L 364.5614 75.146207   L 364.13887 75.06937   L 363.17859 75.568808   L 362.21831 76.029828   L 361.33485 76.452429   L 360.41298 76.759776   L 359.56793 77.067122   L 358.68447 77.33605   L 357.83942 77.528142   L 356.99438 77.720233   L 356.14933 77.835488   L 355.34269 77.950743   L 354.49764 78.065998   L 353.65259 78.142835   L 351.92409 78.25809   L 350.11876 78.334926   L 350.2724 77.56656   L 350.54128 76.682939   L 350.81016 75.7609   L 351.11745 74.762024   L 351.77044 72.610599   L 352.42343 70.420755   L 352.69231 69.306624   L 352.92278 68.26933   L 353.11484 67.270454   L 353.19166 66.309996   L 353.23007 65.887395   L 353.23007 65.464794   L 353.19166 65.042192   L 353.15325 64.696428   L 353.07643 64.350663   L 352.9996 64.043316   L 352.84596 63.73597   L 352.69231 63.50546   L 351.65521 63.428623   L 350.69493 63.428623   L 349.77306 63.50546   L 348.85119 63.620715   L 348.00614 63.812806   L 347.16109 64.043316   L 346.35445 64.312244   L 345.58623 64.581173   L 344.01136 65.195866   L 342.47491 65.848977   L 341.66828 66.117905   L 340.86164 66.386833   L 340.055 66.655761   L 339.20996 66.847853   L 338.21126 66.809434   L 337.21257 66.809434   L 336.21388 66.771016   L 335.21518 66.771016   L 334.2549 66.771016   L 333.29462 66.771016   L 332.29593 66.732598   L 331.33564 66.732598   L 331.37406 66.425251   L 331.41247 66.156323   L 331.48929 65.887395   L 331.56611 65.618467   L 333.10256 64.734846   L 334.71584 63.73597   L 336.2907 62.660257   L 337.86556 61.546126   L 338.63379 60.931434   L 339.40201 60.316741   L 340.13183 59.663629   L 340.86164 59.010518   L 341.55304 58.357407   L 342.24445 57.665878   L 342.85903 56.974348   L 343.47361 56.2444   L 344.04978 55.514452   L 344.54912 54.784505   L 345.04847 54.016138   L 345.47099 53.247772   L 345.85511 52.440988   L 346.1624 51.634203   L 346.43127 50.827419   L 346.62333 49.982216   L 346.77698 49.137014   L 346.8538 48.291811   L 346.8538 47.446608   L 346.77698 46.562987   L 346.58492 45.679366   L 346.35445 44.757327   L 346.04716 43.835287   L 345.62464 42.913248   L 344.66436 43.143758   L 343.7809 43.335849   L 342.93585 43.604777   L 342.16762 43.835287   L 341.3994 44.142634   L 340.66958 44.44998   L 339.93977 44.757327   L 339.24837 45.103091   L 337.90397 45.833039   L 336.55958 46.678242   L 335.13836 47.561863   L 333.60191 48.560739   L 331.91181 48.868085   L 329.68396 49.290687   L 328.4548 49.482778   L 327.14882 49.67487   L 325.84283 49.866961   L 324.49844 49.982216   L 323.23087 50.059053   L 322.00171 50.059053   L 321.42554 50.059053   L 320.84937 50.020635   L 320.31161 49.943798   L 319.81226 49.866961   L 319.35133 49.751706   L 318.9288 49.636452   L 318.50628 49.482778   L 318.16058 49.290687   L 317.8917 49.060177   L 317.62282 48.829667   L 317.43076 48.522321   L 317.31553 48.214974   L 318.42946 46.870333   L 319.65862 45.448856   L 320.88778 43.950542   L 322.11694 42.452228   L 322.73152 41.683862   L 323.26928 40.915496   L 323.80703 40.14713   L 324.26797 39.378764   L 324.72891 38.610398   L 325.07461 37.88045   L 325.3819 37.150502   L 325.61236 36.420554   L 323.65339 36.574227   L 321.73283 36.727901   L 319.81226 36.919992   L 317.93011 37.073665   L 316.08637 37.18892   L 314.28104 37.304175   L 312.4373 37.41943   L 310.63197 37.457848   L 308.82664 37.496267   L 307.05972 37.496267   L 305.25439 37.41943   L 303.44906 37.342594   L 301.64373 37.18892   L 299.8384 36.996829   L 298.03307 36.727901   L 296.18933 36.420554   L 296.22774 35.882698   L 296.30456 35.306423   L 296.49662 34.806985   L 296.68868 34.269129   L 296.95755 33.731273   L 297.26484 33.193417   L 297.61055 32.693979   L 297.95625 32.156122   L 298.68606 31.118828   L 299.41588 30.081534   L 299.72317 29.543677   L 300.03046 29.044239   L 300.33775 28.506383   L 300.56821 27.968527   L 299.60793 28.006945   L 298.64765 28.045363   L 297.68737 28.1222   L 296.7655 28.237455   L 294.92176 28.506383   L 293.11643 28.852148   L 291.34951 29.236331   L 289.621 29.582096   L 287.93091 29.92786   L 286.27922 30.235207   L 284.55071 29.889442   L 283.01426 29.582096   L 281.70828 29.236331   L 280.59435 28.890566   L 280.09501 28.698475   L 279.63407 28.506383   L 279.21155 28.314292   L 278.82743 28.1222   L 278.48173 27.89169   L 278.13603 27.66118   L 277.82874 27.392252   L 277.52145 27.123324   L 277.25257 26.854396   L 276.98369 26.54705   L 276.71481 26.239703   L 276.48435 25.893938   L 276.02341 25.125572   L 275.52406 24.280369   L 274.48696 22.244199   L 273.14257 19.670173   L 272.33593 19.593336   L 271.52929 19.554918   L 270.76107 19.554918   L 269.99284 19.554918   L 269.30144 20.745885   L 268.57162 21.898435   L 267.8034 23.050984   L 267.03517 24.165115   L 266.22854 25.279245   L 265.4219 26.354958   L 264.61526 27.430671   L 263.77021 28.506383   L 262.04171 30.580972   L 260.27479 32.65556   L 258.46946 34.69173   L 256.62572 36.727901   L 256.08796 37.726777   L 255.5502 38.687234   L 254.97403 39.68611   L 254.43628 40.684986   L 253.89852 41.683862   L 253.39917 42.721156   L 252.86141 43.720032   L 252.36207 44.718908   L 252.1316 44.757327   L 251.90113 44.795745   L 251.74749 44.872582   L 251.55543 44.949418   L 251.55543 44.142634   L 251.55543 43.335849   L 251.59384 42.567483   L 251.59384 41.760699   L 251.59384 40.992333   L 251.63225 40.185548   L 251.63225 39.417182   L 251.67066 38.648816   L 252.05478 37.688358   L 252.40048 36.727901   L 252.78459 35.767443   L 253.13029 34.806985   L 253.43758 33.884946   L 253.70646 33.039743   L 253.78328 32.617142   L 253.86011 32.232959   L 253.89852 31.848776   L 253.93693 31.464593   L 253.24553 31.157246   L 252.55412 30.926736   L 251.86272 30.696227   L 251.13291 30.580972   L 250.4415 30.465717   L 249.71169 30.427298   L 248.98187 30.427298   L 248.25206 30.504135   L 247.52225 30.580972   L 246.79243 30.696227   L 246.06262 30.8499   L 245.3328 31.041991   L 244.60299 31.272501   L 243.87317 31.541429   L 243.14336 31.848776   L 242.41355 32.156122   L 241.72214 32.463469   L 241.03074 32.809233   L 240.33934 33.193417   L 239.64793 33.5776   L 238.30354 34.384384   L 237.03597 35.229587   L 235.84522 36.074789   L 234.69288 36.919992   L 233.65578 37.765195   L 232.69549 38.533561   L 232.69549 39.532437   L 232.73391 40.60815   L 232.84914 41.760699   L 233.00278 42.951666   L 233.11802 44.21947   L 233.23325 45.487274   L 233.34849 46.831915   L 233.34849 48.214974   L 232.88755 48.675994   L 232.3882 49.098595   L 231.85045 49.482778   L 231.3511 49.828543   L 230.81334 50.174308   L 230.27558 50.443236   L 229.69941 50.712164   L 229.12325 50.942674   L 228.58549 51.173184   L 228.00932 51.365275   L 227.39474 51.518949   L 226.81857 51.672622   L 225.62782 51.903132   L 224.43707 52.095223   L 221.97875 52.364151   L 219.52043 52.594661   L 218.29127 52.709916   L 217.06211 52.902008   L 215.87136 53.094099   L 214.71902 53.363027   L 213.72033 54.092975   L 212.76004 54.861341   L 211.83817 55.629707   L 210.9163 56.436492   L 209.14938 58.050061   L 207.42088 59.740466   L 205.69237 61.392453   L 203.92545 63.006022   L 203.00358 63.812806   L 202.08171 64.581173   L 201.12143 65.349539   L 200.12273 66.079487   L 197.81806 67.270454   L 195.55179 68.423003   L 193.28553 69.613971   L 191.01926 70.804938   L 188.71459 71.957487   L 186.44832 73.148455   L 184.18206 74.339422   L 181.91579 75.53039   L 179.15018 75.914573   L 176.38457 76.260338   L 173.61896 76.606102   L 170.89176 77.028704   L 169.54736 77.297632   L 168.24138 77.56656   L 166.93539 77.912325   L 165.66782 78.296508   L 164.43866 78.719109   L 163.2095 79.180129   L 162.63333 79.449057   L 162.01875 79.717985   L 161.44258 80.025332   L 160.90482 80.332678   L 160.67436 80.678443   L 160.4823 81.101044   L 160.29024 81.562064   L 160.1366 82.061502   L 159.94454 82.637777   L 159.7909 83.252469   L 159.63725 83.867162   L 159.52202 84.558692   L 159.25314 86.018587   L 159.06108 87.55532   L 158.94585 89.168889   L 158.83062 90.859294   L 158.7922 92.511281   L 158.83062 94.163268   L 158.90744 95.738419   L 159.06108 97.275151   L 159.17632 98.005099   L 159.29155 98.696628   L 159.40678 99.311321   L 159.56043 99.926014   L 159.71407 100.50229   L 159.90613 101.04015   L 160.09819 101.50116   L 160.32866 101.92377   L 161.32735 102.76897   L 162.32604 103.65259   L 163.32473 104.53621   L 164.32343 105.49667   L 165.32212 106.49554   L 166.35923 107.53284   L 167.39633 108.68539   L 168.43343 109.91477   L 169.62418 109.79952   L 170.85334 109.64585   L 172.04409 109.45375   L 173.19643 109.26166   L 175.53952 108.76222   L 177.88261 108.18595   L 180.22569 107.64809   L 182.60719 107.14866   L 183.83635 106.91815   L 185.0271 106.72605   L 186.25626 106.53396   L 187.52384 106.41871   L 187.48543 106.68764   L 187.4086 106.99498   L 187.25496 107.26391   L 187.02449 107.57126   L 186.75561 107.8786   L 186.44832 108.14753   L 186.10262 108.45488   L 185.71851 108.72381   L 184.83505 109.30008   L 183.83635 109.87636   L 182.76084 110.41421   L 181.6085 110.91365   L 179.30382 111.87411   L 177.15279 112.68089   L 175.38587 113.29558   L 174.27195 113.71819   L 172.88914 114.67864   L 171.7368 115.52385   L 171.23746 115.90803   L 170.77652 116.29221   L 170.39241 116.63798   L 170.04671 116.98374   L 169.73942 117.32951   L 169.47054 117.63685   L 169.27848 117.9442   L 169.12484 118.21313   L 169.0096 118.52047   L 168.97119 118.7894   L 168.97119 119.05833   L 169.0096 119.32726   L 169.12484 119.59619   L 169.24007 119.86512   L 169.43213 120.13404   L 169.66259 120.40297   L 169.96988 120.63348   L 170.27718 120.94083   L 170.66129 121.20976   L 171.08381 121.47868   L 172.04409 122.09338   L 173.19643 122.70807   L 174.54083 123.3996   L 176.07728 124.16797   L 176.76868 125.01317   L 177.53691 125.74312   L 178.26672 126.39623   L 178.99653 126.93408   L 179.76476 127.3951   L 180.53299 127.77929   L 181.30121 128.04821   L 182.06944 128.27872   L 182.83766 128.39398   L 183.6443 128.4324   L 184.41252 128.4324   L 185.18075 128.31714   L 185.94897 128.16347   L 186.7172 127.97138   L 187.44701 127.70245   L 188.21524 127.35668   L 188.94505 126.9725   L 189.67487 126.5499   L 190.40468 126.08888   L 191.09609 125.58944   L 191.78749 125.05159   L 192.47889 124.47531   L 193.13188 123.86062   L 193.78487 123.24593   L 194.39945 122.59281   L 195.01404 121.90129   L 195.5902 121.20976   L 196.12796 120.51823   L 196.66572 119.8267   L 197.16507 119.09675   L 197.626 118.3668   L 198.08694 117.67527   L 199.00881 117.17583   L 199.96909 116.6764   L 200.96778 116.21538   L 202.00489 115.75436   L 204.11751 114.90915   L 206.30695 114.10237   L 208.5348 113.29558   L 210.76266 112.52722   L 212.99051 111.79727   L 215.17995 111.0289   L 217.56145 111.91253   L 219.40519 112.60406   L 220.90323 113.14191   L 222.17081 113.56451   L 223.36155 113.9487   L 224.62913 114.29446   L 226.08876 114.67864   L 227.97091 115.17808   L 229.3153 115.29334   L 230.69811 115.40859   L 232.11933 115.44701   L 233.54054 115.44701   L 235.03858 115.40859   L 236.49821 115.37017   L 238.03466 115.29334   L 239.5327 115.17808   L 242.6056 114.87074   L 245.64009 114.52497   L 248.713 114.14079   L 251.67066 113.71819   L 251.86272 114.14079   L 252.1316 114.64023   L 251.13291 115.13966   L 250.13421 115.60068   L 249.13552 116.02328   L 248.13683 116.36905   L 247.13813 116.71481   L 246.13944 116.98374   L 245.14075 117.25267   L 244.10364 117.44476   L 243.10495 117.63685   L 242.10626 117.79053   L 241.10756 117.90578   L 240.10887 118.02104   L 238.11148 118.17471   L 236.1141 118.32838   L 234.15512 118.44364   L 232.23456 118.55889   L 230.314 118.75098   L 228.47025 118.98149   L 227.54838 119.17359   L 226.62651 119.36568   L 225.74305 119.55777   L 224.85959 119.8267   L 223.97614 120.09562   L 223.13109 120.44139   L 222.28604 120.82557   L 221.44099 121.24817   L 219.94295 122.90016   L 218.44491 124.62899   L 216.94687 126.39623   L 215.48724 128.20189   L 214.06603 130.08438   L 212.64481 131.96688   L 211.22359 133.8878   L 209.84079 135.84713   L 208.45798 137.80646   L 207.07517 139.7658   L 205.73078 141.72513   L 204.38639 143.64605   L 203.04199 145.60538   L 201.6976 147.5263   L 200.31479 149.40879   L 198.9704 151.25287   L 198.01011 153.48113   L 197.04983 155.70939   L 196.08955 157.97607   L 195.12927 160.20434   L 194.16899 162.4326   L 193.20871 164.66086   L 192.28683 166.88912   L 191.36496 169.11738   L 189.25234 171.42248   L 187.21655 173.65074   L 185.21916 175.84059   L 183.33701 178.06885   L 182.37673 179.2214   L 181.45486 180.37395   L 180.53299 181.56491   L 179.64953 182.75588   L 178.72766 183.98527   L 177.8442 185.25307   L 176.96074 186.55929   L 176.07728 187.90394   L 175.88522 189.0949   L 175.76999 190.28587   L 175.69316 191.55367   L 175.61634 192.78306   L 175.57793 195.35709   L 175.53952 198.00795   L 175.53952 199.31417   L 175.50111 200.65881   L 175.42429 202.00345   L 175.34746 203.34809   L 175.23223 204.69274   L 175.07858 205.99896   L 174.88653 207.3436   L 174.61765 208.68824   L 174.04148 209.68711   L 173.50372 210.72441   L 173.00438 211.72329   L 172.54344 212.72216   L 172.15933 213.72104   L 171.77521 214.71991   L 171.46792 215.71879   L 171.16063 216.71766   L 170.89176 217.75496   L 170.66129 218.75384   L 170.46923 219.75271   L 170.31559 220.75159   L 170.20035 221.75046   L 170.08512 222.78776   L 170.0083 223.78663   L 169.96988 224.82393   L 169.93147 225.86122   L 169.93147 226.89852   L 169.96988 227.93581   L 170.0083 229.01152   L 170.12353 231.16295   L 170.354 233.35279   L 170.58447 235.58105   L 170.89176 237.92457   L 171.23746 240.26809   L 171.58316 242.72686   L 171.96727 242.95737   L 172.3898 243.11104   L 172.92755 243.26471   L 173.50372 243.34155   L 174.15671 243.41839   L 174.84812 243.49522   L 175.53952 243.49522   L 176.26933 243.49522   L 177.76737 243.45681   L 179.26541 243.37997   L 180.64822 243.26471   L 181.91579 243.18788   L 181.80056 243.95624   L 181.57009 244.60936   L 181.10915 245.18563   L 180.53299 245.64665   L 179.84158 246.03083   L 178.99653 246.33818   L 178.03625 246.56869   L 176.96074 246.72236   L 175.8084 246.7992   L 174.57924 246.83762   L 173.27325 246.7992   L 171.92886 246.72236   L 170.50764 246.56869   L 169.04801 246.41502   L 167.58839 246.18451   L 166.12876 245.954   L 164.63072 245.68507   L 163.17109 245.41614   L 161.74987 245.10879   L 160.32866 244.80145   L 157.63987 244.18675   L 155.25837 243.57206   L 153.26098 242.99579   L 151.68612 242.57318   L 150.68743 242.26584   L 150.34172 242.15058   L 147.61452 241.80482   L 145.04097 241.45905   L 143.81181 241.30538   L 142.58265 241.22854   L 141.3919 241.11329   L 140.23956 241.07487   L 139.04881 241.07487   L 137.89647 241.11329   L 136.74413 241.19013   L 135.5918 241.30538   L 134.40105 241.49747   L 133.2103 241.7664   L 132.01955 242.11217   L 130.79039 242.49635   L 128.67777 244.26359   L 126.52673 246.10767   L 125.45122 247.10655   L 124.41411 248.14384   L 123.45383 249.18113   L 122.49355 250.29526   L 122.07103 250.83312   L 121.6485 251.4094   L 121.22598 252.02409   L 120.84187 252.60036   L 120.49616 253.21506   L 120.15046 253.82975   L 119.88158 254.44444   L 119.61271 255.09755   L 119.34383 255.75066   L 119.15177 256.40378   L 118.99813 257.05689   L 118.88289 257.74842   L 118.76766 258.43995   L 118.72925 259.13147   L 118.72925 259.86142   L 118.76766 260.59137   L 119.22859 262.5507   L 119.68953 264.51004   L 120.15046 266.46937   L 120.6114 268.42871   L 121.07233 270.38804   L 121.53327 272.34737   L 122.03262 274.30671   L 122.49355 276.30446   L 122.95449 278.26379   L 123.41542 280.22312   L 123.91477 282.18246   L 124.3757 284.14179   L 124.83664 286.13954   L 125.33599 288.09888   L 125.79692 290.09663   L 126.29627 292.05596   L 126.29627 294.09213   L 126.33468 296.1283   L 126.33468 298.12606   L 126.37309 300.16223   L 126.4115 302.1984   L 126.4115 304.23457   L 126.44991 306.27074   L 126.44991 308.30691   L 126.48832 310.34308   L 126.48832 312.37925   L 126.52673 314.45384   L 126.52673 316.49001   L 126.56515 318.52618   L 126.60356 320.56235   L 126.60356 322.59852   L 126.64197 324.63469   L 126.79561 325.24938   L 126.98767 325.82565   L 127.21814 326.40193   L 127.44861 326.9782   L 127.67907 327.51606   L 127.94795 328.05392   L 128.21683 328.55335   L 128.52412 329.05279   L 129.17711 330.05167   L 129.86852 330.97371   L 130.63674 331.89575   L 131.44338 332.74095   L 132.32684 333.58615   L 133.24871 334.39294   L 134.2474 335.19972   L 135.2845 336.00651   L 136.36002 336.77487   L 137.47395 337.58166   L 138.6647 338.35002   L 139.89386 339.15681   L 141.58395 340.88563   L 143.31246 342.57604   L 145.04097 344.26644   L 146.80789 345.95685   L 148.69004 347.64725   L 150.6106 349.33766   L 151.64771 350.14444   L 152.72322 350.98964   L 153.79874 351.79643   L 154.95108 352.64163   L 155.75771 352.60321   L 156.56435 352.48796   L 157.37099 352.29587   L 158.13921 352.06536   L 158.90744 351.75801   L 159.67566 351.41225   L 160.40548 350.98964   L 161.13529 350.52863   L 161.82669 350.02919   L 162.55651 349.49133   L 163.24791 348.87664   L 163.9009 348.26195   L 164.5539 347.60883   L 165.20689 346.9173   L 165.82147 346.18736   L 166.43605 345.45741   L 167.05063 344.68904   L 167.6268 343.92068   L 168.16455 343.15231   L 168.74072 342.34553   L 169.77783 340.73196   L 170.73811 339.11839   L 171.62157 337.54324   L 172.42821 336.04492   L 173.15802 334.62345   L 173.81101 333.31722   L 173.92625 332.16467   L 174.00307 331.24264   L 174.07989 330.35901   L 174.1183 329.39856   L 174.1183 328.20759   L 174.15671 326.70928   L 174.15671 324.74994   L 174.15671 322.17592   L 173.92625 321.17704   L 173.65737 320.21658   L 173.4269 319.29454   L 173.15802 318.44934   L 172.88914 317.64256   L 172.58185 316.87419   L 172.31297 316.18266   L 172.00568 315.52955   L 171.65998 314.87644   L 171.31428 314.30016   L 170.96858 313.76231   L 170.58447 313.26287   L 170.20035 312.76343   L 169.81624 312.30241   L 169.39372 311.87981   L 168.97119 311.49563   L 168.51026 311.14986   L 168.01091 310.8041   L 167.51156 310.45833   L 167.01222 310.15099   L 166.47446 309.88206   L 165.89829 309.61313   L 165.32212 309.3442   L 164.70754 309.11369   L 163.40156 308.61425   L 162.01875 308.15323   L 160.4823 307.69221   L 158.86903 307.23119   L 158.90744 306.23232   L 158.98426 305.27186   L 159.13791 304.34982   L 159.32996 303.4662   L 159.7909 301.73738   L 160.29024 300.04697   L 160.55912 299.20177   L 160.78959 298.39498   L 161.02006 297.51136   L 161.21211 296.66616   L 161.32735 295.78254   L 161.44258 294.8605   L 161.48099 293.93846   L 161.44258 292.978   L 159.36837 290.90341   L 157.14052 288.5599   L 156.02659 287.29209   L 154.98949 286.02429   L 154.49014 285.37118   L 154.02921 284.71807   L 153.60668 284.06496   L 153.18416 283.41184   L 152.83846 282.75873   L 152.53117 282.10562   L 152.26229 281.45251   L 152.03182 280.7994   L 151.87818 280.14629   L 151.80135 279.49318   L 151.76294 278.87848   L 151.80135 278.26379   L 151.87818 277.6491   L 152.07023 277.07282   L 152.33911 276.49655   L 152.68481 275.92027   L 153.14575 275.38242   L 153.6835 274.84456   L 154.29809 274.34512   L 155.06631 273.84569   L 156.67958 273.8841   L 158.25445 273.96094   L 159.86772 274.11461   L 161.48099 274.30671   L 163.09427 274.53722   L 164.66913 274.80614   L 166.2824 275.11349   L 167.89568 275.45926   L 169.47054 275.84344   L 171.08381 276.26604   L 172.69709 276.68864   L 174.31036 277.14966   L 177.49849 278.14854   L 180.72504 279.18583   L 183.95159 280.22312   L 187.17814 281.29884   L 190.40468 282.33613   L 193.66964 283.33501   L 195.32133 283.79603   L 196.97301 284.25705   L 198.62469 284.67965   L 200.27638 285.10225   L 201.92806 285.44801   L 203.61816 285.79378   L 205.26985 286.06271   L 206.95994 286.33164   L 211.06995 286.37005   L 214.41173 286.33164   L 215.14154 286.29322   L 215.87136 286.2548   L 216.56276 286.17796   L 217.17734 286.10113   L 217.83033 285.98587   L 218.4065 285.87062   L 218.98267 285.71694   L 219.55884 285.52485   L 220.0966 285.29434   L 220.59594 285.02541   L 221.1337 284.75649   L 221.63305 284.41072   L 222.13239 284.02654   L 222.59333 283.60394   L 223.09268 283.14292   L 223.59202 282.64348   L 224.09137 282.0672   L 224.5523 281.45251   L 225.05165 280.76098   L 225.58941 280.03103   L 226.08876 279.22425   L 226.62651 278.37905   L 227.16427 277.45701   L 227.74044 276.45813   L 228.2782 275.19033   L 228.85437 273.92252   L 229.39212 272.65472   L 229.92988 271.38691   L 230.50605 270.15753   L 231.04381 268.88972   L 231.58157 267.66034   L 232.11933 266.43095   L 231.96568 268.65921   L 231.85045 270.7338   L 231.73521 272.65472   L 231.73521 274.46038   L 231.73521 275.30558   L 231.77362 276.15078   L 231.81204 276.95757   L 231.88886 277.72594   L 232.00409 278.4943   L 232.15774 279.22425   L 232.31138 279.9542   L 232.50344 280.68414   L 232.73391 281.37567   L 233.00278 282.10562   L 233.31007 282.79715   L 233.65578 283.45026   L 234.03989 284.14179   L 234.46241 284.83332   L 234.96176 285.52485   L 235.46111 286.17796   L 236.03728 286.86949   L 236.65186 287.59944   L 237.34326 288.29097   L 238.07307 289.02092   L 238.8413 289.75086   L 239.68635 290.51923   L 240.60822 291.2876   L 241.5685 292.05596   L 242.87448 292.90117   L 244.18047 293.78479   L 245.48645 294.62999   L 246.79243 295.51361   L 248.13683 296.39723   L 249.44281 297.28085   L 250.7872 298.16447   L 252.1316 299.04809   L 254.35945 300.08539   L 256.62572 301.08427   L 258.85357 302.04472   L 261.08143 303.00518   L 263.30928 303.8888   L 265.57554 304.77242   L 267.84181 305.61763   L 270.10807 306.46283   L 272.41275 307.23119   L 274.75584 307.99956   L 277.13734 308.69109   L 279.55725 309.38262   L 282.01557 310.07415   L 284.55071 310.68884   L 287.12427 311.26512   L 289.77465 311.84139   L 292.84755 311.91823   L 295.92045 311.99506   L 298.99335 312.11032   L 302.10467 312.18716   L 305.17757 312.30241   L 308.28888 312.37925   L 311.36178 312.4945   L 314.4731 312.60976   L 316.62413 313.03236   L 318.77516 313.45496   L 320.92619 313.83914   L 323.07722 314.22333   L 325.26666 314.64593   L 327.45611 315.03011   L 329.64555 315.45271   L 331.83499 315.87531   L 334.02443 316.33633   L 336.21388 316.83577   L 338.40332 317.33521   L 340.59276 317.87307   L 342.7822 318.44934   L 344.97165 319.10245   L 347.16109 319.75556   L 349.31212 320.48551   L 350.23399 320.44709   L 351.15586 320.40867   L 352.11614 320.37025   L 353.03801 320.37025   L 354.07512 318.25725   L 355.15063 316.0674   L 355.7268 314.91486   L 356.34138 313.80072   L 356.99438 312.72501   L 357.64737 311.6493   L 358.33877 310.61201   L 359.06858 309.61313   L 359.41429 309.15211   L 359.7984 308.69109   L 360.22092 308.23007   L 360.60503 307.80747   L 361.02756 307.42329   L 361.45008 307.0391   L 361.91102 306.69334   L 362.33354 306.34757   L 362.79448 306.07865   L 363.29382 305.7713   L 363.75476 305.54079   L 364.25411 305.31028   L 364.02364 307.15436   L 363.75476 308.96002   L 363.52429 310.76568   L 363.25541 312.57134   L 362.98653 314.41542   L 362.75607 316.2595   L 362.48719 318.06516   L 362.25672 319.94765   L 362.37195 321.86857   L 362.44878 323.44372   L 362.56401 324.8652   L 362.71765 326.20984   L 362.90971 327.78499   L 363.17859 329.66748   L 363.5627 332.08784   L 364.02364 335.19972   L 365.09915 337.15905   L 366.17467 339.04155   L 367.32701 340.88563   L 368.47935 342.69129   L 369.70851 344.42011   L 370.97608 346.14894   L 372.28206 347.80093   L 373.62646 349.41449   L 375.00926 350.98964   L 376.43048 352.52638   L 377.89011 354.02469   L 379.38815 355.48459   L 380.88619 356.90606   L 382.46105 358.32754   L 384.03591 359.67218   L 385.6876 361.01682   L 387.33928 362.32305   L 388.99097 363.62927   L 390.71947 364.89707   L 392.44798 366.12646   L 394.2149 367.35584   L 396.02023 368.54681   L 397.82556 369.69936   L 399.6693 370.89033   L 401.51304 372.04288   L 403.39519 373.15701   L 405.27735 374.30956   L 407.19791 375.42369   L 411.11586 377.65195   L 415.03381 379.84179   L 415.45633 380.72541   L 415.80203 381.64745   L 416.0325 382.53107   L 416.18615 383.4147   L 416.30138 384.29832   L 416.30138 385.14352   L 416.26297 386.02714   L 416.14774 386.87234   L 415.99409 387.71755   L 415.76362 388.52433   L 415.49474 389.33111   L 415.14904 390.17632   L 414.76493 390.94468   L 414.34241 391.75147   L 413.88147 392.51983   L 413.38212 393.2882   L 412.84437 394.05657   L 412.2682 394.82493   L 411.69203 395.55488   L 411.07745 396.28483   L 409.77146 397.74472   L 408.42707 399.12778   L 405.66146 401.81706   L 403.01108 404.31425   L 400.09182 406.35042   L 397.13416 408.38659   L 394.17649 410.38435   L 391.25723 412.42052   L 388.29956 414.45669   L 385.38031 416.45444   L 382.46105 418.49061   L 379.54179 420.52678   L 375.96954 421.71775   L 372.81982 422.83188   L 371.36019 423.36973   L 369.97739 423.94601   L 368.63299 424.52228   L 367.32701 425.13698   L 366.09785 425.79009   L 364.86869 426.52003   L 363.63953 427.2884   L 362.44878 428.1336   L 361.21962 429.09406   L 359.99045 430.13136   L 358.72288 431.2839   L 357.4169 432.51329   L 356.26456 434.54946   L 355.07381 436.58563   L 353.88306 438.58338   L 352.73072 440.58113   L 351.53997 442.61731   L 350.38764 444.65348   L 349.2353 446.68965   L 348.12137 448.72582   L 347.00744 450.8004   L 345.93193 452.87499   L 344.89482 454.988   L 343.89613 457.13942   L 342.93585 459.29085   L 342.01398 461.51911   L 341.13052 463.74737   L 340.32388 466.01405   L 322.57787 466.01405   L 304.83187 466.01405   L 287.04745 466.01405   L 269.30144 466.01405   L 251.55543 466.01405   L 233.80942 466.01405   L 216.06341 466.01405   L 198.3174 466.01405   L 180.5714 466.01405   L 162.82539 466.01405   L 145.11779 466.01405   L 127.37178 466.01405   L 109.62577 466.01405   L 91.879766 466.01405   L 74.133758 466.01405   L 56.387749 466.01405  z "
     id="path2569" />
  <path
     style="fill:#131516;fill-rule:evenodd;fill-opacity:1;stroke:none;"
     d="  M 272.25911 443.00149   L 270.26172 442.50205   L 269.30144 442.23312   L 268.37957 441.96419   L 267.4577 441.69527   L 266.61265 441.3495   L 265.72919 441.04215   L 264.92255 440.65797   L 264.15433 440.27379   L 263.3861 439.81277   L 262.65629 439.35175   L 261.96488 438.81389   L 261.31189 438.23762   L 260.6589 437.58451   L 260.69731 436.50879   L 260.77414 435.43308   L 260.88937 434.35737   L 261.04301 433.32007   L 261.23507 432.28278   L 261.46554 431.24549   L 261.73442 430.24661   L 262.0033 429.24773   L 262.349 428.24886   L 262.6947 427.24998   L 263.07881 426.28952   L 263.46292 425.29065   L 264.34638 423.36973   L 265.26825 421.48724   L 266.22854 419.60474   L 267.22723 417.76066   L 268.26433 415.87816   L 269.26303 414.03409   L 270.22331 412.19001   L 271.14518 410.34593   L 271.60611 409.38547   L 272.02864 408.46343   L 272.41275 407.50297   L 272.79686 406.58093   L 273.79556 405.35155   L 274.75584 404.27584   L 275.67771 403.3538   L 276.63799 402.50859   L 277.55986 401.74023   L 278.48173 401.08712   L 279.44201 400.51084   L 280.4023 400.0114   L 281.4394 399.51197   L 282.51492 399.08936   L 283.62884 398.66676   L 284.858 398.24416   L 287.50838 397.43738   L 290.54287 396.47692   L 293.38531 395.97748   L 296.34297 395.43963   L 299.37746 394.86335   L 302.48878 394.21024   L 304.06364 393.86447   L 305.6385 393.48029   L 307.21336 393.09611   L 308.78823 392.71193   L 310.36309 392.25091   L 311.93795 391.78989   L 313.4744 391.29045   L 315.01085 390.75259   L 316.5473 390.21474   L 318.04534 389.63846   L 319.54338 388.98535   L 321.00301 388.33224   L 322.46264 387.64071   L 323.88386 386.91076   L 325.22825 386.10398   L 326.57265 385.29719   L 327.87863 384.41357   L 329.1462 383.49153   L 330.33695 382.53107   L 331.5277 381.5322   L 332.60322 380.45649   L 333.67873 379.30394   L 334.67743 378.15139   L 335.5993 376.922   L 335.5993 373.73328   L 335.52247 370.69824   L 335.44565 369.19992   L 335.36883 367.74003   L 335.25359 366.31855   L 335.09995 364.89707   L 334.9463 363.51401   L 334.71584 362.13095   L 334.48537 360.74789   L 334.17808 359.36484   L 333.87079 358.02019   L 333.48668 356.67555   L 333.06415 355.33091   L 332.56481 353.98627   L 331.25882 351.91168   L 329.95284 349.87551   L 328.68527 347.83934   L 327.37928 345.80317   L 326.0733 343.767   L 324.80573 341.73083   L 323.49974 339.69466   L 322.23217 337.69691   L 321.73283 336.39069   L 321.3103 335.12288   L 320.9646 333.93192   L 320.65731 332.77937   L 320.42684 331.66524   L 320.19638 330.55111   L 320.08114 329.51381   L 319.96591 328.47652   L 319.88908 327.43922   L 319.85067 326.40193   L 319.85067 325.40305   L 319.85067 324.36576   L 319.96591 322.21433   L 320.11955 319.94765   L 321.07983 319.79398   L 322.07853 319.71714   L 323.07722 319.64031   L 324.07591 319.60189   L 325.07461 319.60189   L 326.0733 319.60189   L 327.07199 319.64031   L 328.1091 319.67873   L 330.10648 319.8324   L 332.14228 320.06291   L 334.17808 320.37025   L 336.21388 320.71602   L 338.28808 321.1002   L 340.36229 321.5228   L 342.4365 321.98382   L 344.54912 322.48326   L 346.62333 322.9827   L 348.77436 323.48214   L 350.88698 323.94316   L 353.03801 324.4426   L 353.46054 326.36351   L 353.88306 328.36126   L 354.38241 330.39743   L 354.92017 332.47202   L 355.53475 334.58503   L 356.18774 336.69804   L 356.91755 338.84946   L 357.68578 340.96247   L 358.1083 341.99976   L 358.56924 343.07547   L 358.99176 344.11277   L 359.49111 345.11164   L 359.99045 346.14894   L 360.52821 347.14781   L 361.06597 348.14669   L 361.64214 349.14557   L 362.21831 350.10602   L 362.83289 351.02806   L 363.48588 351.9501   L 364.13887 352.87214   L 364.83027 353.75576   L 365.56009 354.60097   L 366.2899 355.40775   L 367.05813 356.21453   L 369.43963 357.8281   L 371.24496 359.09591   L 372.743 360.05637   L 374.04898 360.90157   L 375.31655 361.66993   L 376.69936 362.4383   L 378.35104 363.39876   L 380.42525 364.55131   L 380.65572 367.16375   L 380.84778 369.81461   L 380.88619 371.15926   L 380.9246 372.5039   L 380.9246 373.81012   L 380.9246 375.19318   L 380.9246 376.53782   L 380.84778 377.88246   L 380.77095 379.26552   L 380.69413 380.64858   L 380.54049 382.03164   L 380.38684 383.4147   L 380.19478 384.83617   L 380.00273 386.21923   L 376.66095 386.75709   L 373.47281 387.29494   L 370.43832 387.87122   L 367.55748 388.48591   L 366.13626 388.83168   L 364.75345 389.17744   L 363.37065 389.52321   L 362.02625 389.90739   L 360.72027 390.32999   L 359.41429 390.75259   L 358.1083 391.21361   L 356.84073 391.67463   L 355.57316 392.21249   L 354.344 392.75034   L 353.07643 393.32662   L 351.84726 393.90289   L 350.6181 394.556   L 349.38894 395.24753   L 348.15978 395.97748   L 346.89221 396.74585   L 345.66305 397.55263   L 344.43389 398.39783   L 343.16632 399.28146   L 341.89874 400.24191   L 340.63117 401.24079   L 339.3636 402.27808   L 338.05762 403.39221   L 336.75163 404.54476   L 334.67743 406.96512   L 332.52639 409.57756   L 331.37406 410.88378   L 330.22172 412.22842   L 329.03097 413.57307   L 327.80181 414.87929   L 326.53424 416.14709   L 325.26666 417.4149   L 323.96068 418.60586   L 322.61629 419.71999   L 321.96329 420.29627   L 321.27189 420.79571   L 320.58049 421.29515   L 319.88908 421.75616   L 319.19768 422.21718   L 318.50628 422.63979   L 317.77646 423.06239   L 317.08506 423.44657   L 312.28365 423.21606   L 308.74982 422.98555   L 308.05841 422.98555   L 307.40542 422.94713   L 306.79084 422.98555   L 306.25308 423.02397   L 305.75374 423.06239   L 305.33121 423.17764   L 304.90869 423.2929   L 304.56299 423.48499   L 304.21729 423.67708   L 303.91 423.94601   L 303.60271 424.25335   L 303.37224 424.63754   L 303.10336 425.06014   L 302.87289 425.52116   L 302.64242 426.09743   L 302.45037 426.71213   L 302.02784 428.17202   L 301.56691 429.93926   L 301.02915 432.05227   L 300.45298 434.54946   L 299.87681 435.50992   L 299.30064 436.39354   L 298.72447 437.20032   L 298.07148 437.96869   L 297.41849 438.66022   L 296.7655 439.27491   L 296.0741 439.85119   L 295.34428 440.35062   L 294.61447 440.81164   L 293.84624 441.23425   L 293.07802 441.61843   L 292.27138 441.92578   L 291.46474 442.1947   L 290.65811 442.46363   L 289.81306 442.65572   L 288.96801 442.84781   L 288.12296 443.00149   L 287.2395 443.11674   L 286.35604 443.19358   L 285.47258 443.27042   L 283.66725 443.38567   L 281.82351 443.42409   L 278.09762 443.46251   L 274.37173 443.53934  z "
     id="path2571" />
  <path
     style="fill:#131516;fill-rule:evenodd;fill-opacity:1;stroke:none;"
     d="  M 74.709927 256.55745   L 73.980113 255.78908   L 73.327121 254.9823   L 72.789363 254.17551   L 72.328428 253.36873   L 71.944315 252.52353   L 71.598614 251.71674   L 71.368146 250.87154   L 71.17609 250.02634   L 71.022445 249.14272   L 70.984033 248.29751   L 70.945622 247.41389   L 70.984033 246.56869   L 71.060856 245.68507   L 71.214501 244.80145   L 71.368146 243.91783   L 71.598614 243.0342   L 71.829081 242.15058   L 72.09796 241.26696   L 72.40525 240.38334   L 73.058242 238.6161   L 73.788056 236.84886   L 74.556282 235.08162   L 75.362918 233.35279   L 76.131144 231.62397   L 76.860958 229.93356   L 76.899369 225.89964   L 76.937781 222.36516   L 76.976192 220.75159   L 77.053014 219.21485   L 77.20666 217.75496   L 77.360305 216.33348   L 77.590772 214.95042   L 77.898062 213.56736   L 78.090119 212.87583   L 78.282175 212.1843   L 78.512643 211.49278   L 78.781522 210.80125   L 79.050401 210.0713   L 79.357691 209.34135   L 79.703392 208.6114   L 80.087505 207.84304   L 80.510029 207.07467   L 80.932553 206.3063   L 81.393488 205.4611   L 81.892835 204.6159   L 82.814705 204.07804   L 83.736576 203.50177   L 84.658447 202.88707   L 85.580317 202.23396   L 87.46247 200.8509   L 89.306211 199.39101   L 91.188363 197.81586   L 93.070515 196.20229   L 94.952668 194.51188   L 96.796409 192.78306   L 98.64015 191.05424   L 100.44548 189.24858   L 102.25081 187.48133   L 103.97932 185.71409   L 105.66941 183.98527   L 107.3211 182.25644   L 108.93437 180.60446   L 110.43241 179.02931   L 111.93045 176.68579   L 113.31326 174.41911   L 114.65765 172.19085   L 115.96363 170.07784   L 117.23121 168.00325   L 118.53719 166.04392   L 119.19018 165.12188   L 119.84317 164.19984   L 120.53458 163.31622   L 121.22598 162.47102   L 121.95579 161.66423   L 122.68561 160.85745   L 123.45383 160.1275   L 124.26047 159.43597   L 125.06711 158.74444   L 125.95057 158.12975   L 126.87244 157.55347   L 127.79431 157.01562   L 128.793 156.51618   L 129.86852 156.09358   L 130.94403 155.70939   L 132.09637 155.36363   L 133.28712 155.05628   L 134.55469 154.82577   L 135.89909 154.63368   L 137.3203 154.51843   L 139.50975 154.82577   L 141.92966 155.13312   L 143.15882 155.36363   L 144.4648 155.59414   L 145.73237 155.90149   L 146.99994 156.24725   L 147.65293 156.43934   L 148.26752 156.66985   L 148.8821 156.90036   L 149.49668 157.16929   L 150.11126 157.43822   L 150.68743 157.74557   L 151.26359 158.05291   L 151.83976 158.43709   L 152.37752 158.78286   L 152.87687 159.20546   L 153.41463 159.62806   L 153.87556 160.08908   L 154.37491 160.58852   L 154.79743 161.12638   L 155.21996 161.66423   L 155.60407 162.27893   L 155.98818 163.77724   L 156.41071 165.35239   L 156.87164 166.96596   L 157.4094 168.61795   L 157.98557 170.30835   L 158.60015 172.03717   L 158.94585 172.88238   L 159.32996 173.72758   L 159.71407 174.57278   L 160.09819 175.41799   L 162.5181 178.64512   L 164.36184 181.14231   L 165.78306 182.98639   L 166.89698 184.40787   L 167.78044 185.522   L 168.58708 186.52088   L 169.43213 187.51975   L 170.43082 188.6723   L 170.96858 190.59322   L 171.3911 192.47571   L 171.58316 193.39775   L 171.7368 194.28137   L 171.89045 195.20341   L 172.00568 196.08703   L 172.0825 196.93224   L 172.15933 197.81586   L 172.15933 198.66106   L 172.15933 199.50626   L 172.15933 200.31305   L 172.0825 201.15825   L 172.00568 201.96504   L 171.89045 202.81024   L 171.77521 203.61702   L 171.58316 204.42381   L 171.3911 205.23059   L 171.16063 206.03738   L 170.89176 206.80574   L 170.58447 207.61253   L 170.23876 208.41931   L 169.89306 209.18768   L 169.47054 209.99446   L 169.04801 210.80125   L 168.54867 211.60803   L 168.04932 212.41481   L 167.51156 213.2216   L 166.89698 214.02838   L 166.2824 214.83517   L 165.62941 215.64195   L 165.39894 216.71766   L 165.2453 217.79338   L 165.09165 218.83067   L 165.01483 219.90638   L 164.93801 220.9821   L 164.93801 222.05781   L 164.93801 223.13352   L 164.97642 224.20923   L 165.05324 225.32337   L 165.16848 226.4375   L 165.28371 227.59005   L 165.43735 228.74259   L 165.82147 231.12453   L 166.2824 233.62172   L 166.2824 235.12003   L 166.2824 236.38784   L 166.24399 237.46355   L 166.20558 238.42401   L 166.12876 239.19237   L 165.97511 239.80707   L 165.89829 240.076   L 165.78306 240.3065   L 165.66782 240.4986   L 165.51418 240.65227   L 165.32212 240.80594   L 165.13006 240.9212   L 164.93801 241.03645   L 164.66913 241.11329   L 164.43866 241.19013   L 164.13137 241.22854   L 163.78567 241.26696   L 163.43997 241.26696   L 161.67305 241.19013   L 159.32996 241.03645   L 156.91005 240.38334   L 155.64248 239.99916   L 155.25837 239.84549   L 155.0279 239.69181   L 154.87425 239.53814   L 154.72061 239.34605   L 154.56696 237.19462   L 154.37491 235.08162   L 154.22126 233.00703   L 153.9908 230.97086   L 153.76033 228.93469   L 153.52986 226.93693   L 153.29939 224.9776   L 153.03051 223.01827   L 152.72322 221.09735   L 152.41593 219.17644   L 152.10864 217.29394   L 151.76294 215.41144   L 151.41724 213.52895   L 151.03313 211.64645   L 150.64901 209.76395   L 150.22649 207.88145   L 149.68873 206.65207   L 149.11256 205.38426   L 148.57481 204.15488   L 148.03705 202.92549   L 147.49929 201.69611   L 146.99994 200.46672   L 146.46219 199.23734   L 145.96284 198.00795   L 144.77209 197.54693   L 143.58134 197.16275   L 142.39059 196.8554   L 141.19984 196.58647   L 140.00909 196.39438   L 138.81834 196.27913   L 137.62759 196.20229   L 136.43684 196.16387   L 135.2845 196.24071   L 134.09376 196.35596   L 132.97983 196.50964   L 131.82749 196.74015   L 130.71356 197.00907   L 129.63805 197.31642   L 128.56253 197.73902   L 127.52543 198.16162   L 126.48832 198.66106   L 125.48963 199.19892   L 124.52935 199.77519   L 123.60748 200.4283   L 122.72402 201.11983   L 121.84056 201.84978   L 121.03392 202.65656   L 120.22729 203.50177   L 119.49747 204.38539   L 118.80607 205.30743   L 118.15308 206.26789   L 117.57691 207.26676   L 117.03915 208.30406   L 116.5398 209.41819   L 116.11728 210.53232   L 115.73317 211.72329   L 115.61793 212.76058   L 115.5027 213.79787   L 115.38747 214.75833   L 115.23382 215.75721   L 115.04176 216.75608   L 114.77288 217.8318   L 114.46559 218.94593   L 114.04307 220.13689   L 112.50662 221.48153   L 111.16223 222.59567   L 109.93306 223.59454   L 108.89596 224.43974   L 107.97409 225.20811   L 107.24428 225.89964   L 106.93699 226.2454   L 106.66811 226.59117   L 106.43764 226.93693   L 106.24558 227.2827   L 106.09194 227.62846   L 105.9767 227.97423   L 105.89988 228.35841   L 105.89988 228.74259   L 105.89988 229.20361   L 105.93829 229.62622   L 106.01511 230.12565   L 106.16876 230.66351   L 106.3224 231.20137   L 106.55287 231.81606   L 106.78334 232.50759   L 107.09063 233.19912   L 107.78203 234.81269   L 108.66549 236.65677   L 108.78073 237.46355   L 108.89596 238.30875   L 109.01119 239.23079   L 109.12643 240.19125   L 109.16484 241.22854   L 109.16484 242.26584   L 109.12643 243.34155   L 108.97278 244.41726   L 107.82044 245.53139   L 106.59128 246.60711   L 105.32371 247.60598   L 104.05614 248.52802   L 102.75016 249.41164   L 101.40576 250.25685   L 100.02296 251.02521   L 98.64015 251.79358   L 97.218933 252.48511   L 95.797716 253.13822   L 94.376499 253.75291   L 92.955282 254.32919   L 91.495653 254.90546   L 90.074436 255.44332   L 88.614808 255.94276   L 87.193591 256.44219   L 85.733962 256.51903   L 84.235923 256.63429   L 82.776294 256.74954   L 81.316666 256.86479   L 79.857037 256.98005   L 78.397409 257.0953   L 76.937781 257.21056   L 75.516564 257.32581  z "
     id="path2573" />
  <path
     style="fill:#ffffff;fill-rule:evenodd;fill-opacity:1;stroke:none;"
     d="  M 171.54475 105.99611   L 171.3911 105.57351   L 171.27587 105.18932   L 171.23746 104.80514   L 171.23746 104.42096   L 171.31428 104.03677   L 171.42951 103.65259   L 171.62157 103.30683   L 171.85204 102.96106   L 172.12092 102.65371   L 172.42821 102.34637   L 172.77391 102.03902   L 173.15802 101.77009   L 173.54213 101.53958   L 173.96466 101.27065   L 174.42559 101.07856   L 174.88653 100.88647   L 175.34746 100.69438   L 175.8084 100.54071   L 176.30774 100.42545   L 176.80709 100.3102   L 177.30644 100.23336   L 177.76737 100.15652   L 178.22831 100.15652   L 178.68924 100.15652   L 179.15018 100.19494   L 179.5727 100.23336   L 179.95682 100.34862   L 180.34093 100.46387   L 180.68663 100.61754   L 180.95551 100.80964   L 181.22439 101.04015   L 181.22439 101.42433   L 181.14757 101.77009   L 181.07074 102.15428   L 180.95551 102.46162   L 180.80186 102.80739   L 180.60981 103.07632   L 180.41775 103.38366   L 180.18728 103.65259   L 179.9184 103.8831   L 179.64953 104.11361   L 179.34224 104.34412   L 179.03495 104.53621   L 178.38195 104.92039   L 177.65214 105.22774   L 176.88391 105.49667   L 176.11569 105.72718   L 175.30905 105.91927   L 174.54083 106.07294   L 173.0812 106.30345   L 171.81363 106.41871  z "
     id="path2575" />
  <path
     style="fill:#ffffff;fill-rule:evenodd;fill-opacity:1;stroke:none;"
     d="  M 174.23354 92.434445   L 173.73419 91.896588   L 173.35008 91.39715   L 173.04279 90.897712   L 172.77391 90.398274   L 172.62026 89.898836   L 172.54344 89.437817   L 172.54344 88.976797   L 172.58185 88.554196   L 172.65867 88.131594   L 172.81232 87.78583   L 173.04279 87.401646   L 173.27325 87.0943   L 173.54213 86.825372   L 173.84942 86.556444   L 174.15671 86.364352   L 174.50242 86.210679   L 174.88653 86.095424   L 175.27064 86.018587   L 175.61634 86.018587   L 176.00045 86.057006   L 176.38457 86.133842   L 176.73027 86.287516   L 177.07597 86.518025   L 177.42167 86.825372   L 177.69055 87.171137   L 177.95943 87.593738   L 178.1899 88.093176   L 178.38195 88.669451   L 178.5356 89.322562   L 178.61242 90.090928   L 178.65083 90.897712   L 178.07466 91.435569   L 177.57532 91.85817   L 177.11438 92.165516   L 176.65345 92.434445   L 176.23092 92.626536   L 175.76999 92.741791   L 175.30905 92.857046   L 174.84812 92.933883  z "
     id="path2577" />
  <path
     style="fill:#ffffff;fill-rule:evenodd;fill-opacity:1;stroke:none;"
     d="  M 228.58549 74.569932   L 229.20007 74.108913   L 229.77624 73.647893   L 230.35241 73.110037   L 230.85175 72.57218   L 231.3511 72.034324   L 231.77362 71.419631   L 232.11933 70.843357   L 232.27297 70.53601   L 232.3882 70.190245   L 232.50344 69.882899   L 232.58026 69.575552   L 232.65708 69.268206   L 232.69549 68.96086   L 232.69549 68.615095   L 232.69549 68.307748   L 232.65708 68.000402   L 232.58026 67.693055   L 232.46503 67.385709   L 232.34979 67.078363   L 232.15774 66.771016   L 231.96568 66.46367   L 231.73521 66.156323   L 231.46633 65.848977   L 231.85045 65.887395   L 232.3882 66.00265   L 232.96437 66.23316   L 233.57895 66.502088   L 234.23195 66.847853   L 234.88494 67.232036   L 235.53793 67.693055   L 236.1141 68.230912   L 236.38298 68.49984   L 236.65186 68.768768   L 236.88232 69.076114   L 237.11279 69.383461   L 237.26644 69.690807   L 237.45849 69.998154   L 237.57373 70.343919   L 237.65055 70.689683   L 237.68896 71.035448   L 237.68896 71.381213   L 237.68896 71.765396   L 237.57373 72.111161   L 237.45849 72.495344   L 237.26644 72.841108   L 237.03597 73.225292   L 236.72868 73.609475   L 235.46111 73.993658   L 234.30877 74.262586   L 233.15643 74.493096   L 232.11933 74.646769   L 231.04381 74.762024   L 230.04512 74.83886   L 229.00801 74.915697   L 227.97091 74.954115  z "
     id="path2579" />
  <path
     style="fill:#ffffff;fill-rule:evenodd;fill-opacity:1;stroke:none;"
     d="  M 221.97875 73.0332   L 221.28735 72.57218   L 220.67277 72.111161   L 220.0966 71.688559   L 219.59725 71.22754   L 219.13631 70.804938   L 218.71379 70.382337   L 218.32968 69.959735   L 218.02239 69.575552   L 217.75351 69.152951   L 217.56145 68.768768   L 217.40781 68.423003   L 217.29257 68.03882   L 217.21575 67.693055   L 217.21575 67.347291   L 217.25416 67.039944   L 217.33098 66.732598   L 217.48463 66.425251   L 217.67669 66.156323   L 217.90715 65.887395   L 218.17603 65.656885   L 218.52173 65.426375   L 218.90585 65.195866   L 219.32837 65.042192   L 219.82772 64.850101   L 220.36548 64.696428   L 220.94164 64.581173   L 221.59464 64.465918   L 222.24763 64.389081   L 222.97744 64.312244   L 223.78408 64.273826   L 224.59072 64.273826   L 223.5152 65.042192   L 222.74697 65.618467   L 222.43968 65.887395   L 222.17081 66.117905   L 221.97875 66.386833   L 221.8251 66.655761   L 221.67146 66.963108   L 221.59464 67.270454   L 221.51781 67.654637   L 221.4794 68.115657   L 221.44099 69.268206   L 221.44099 70.804938   L 222.28604 72.303252   L 222.70856 73.071618   L 222.78539 73.26371   L 222.78539 73.378965   L 222.74697 73.455801   L 222.70856 73.49422  z "
     id="path2581" />
  <path
     style="fill:#ffffff;fill-rule:evenodd;fill-opacity:1;stroke:none;"
     d="  M 238.80289 66.886271   L 236.57503 65.695304   L 234.38559 64.619591   L 232.27297 63.659133   L 230.16035 62.737094   L 228.08614 61.891891   L 226.01193 61.123525   L 223.93772 60.355159   L 223.70726 59.970976   L 223.55361 59.663629   L 223.43838 59.43312   L 223.32314 59.20261   L 223.28473 58.933682   L 223.24632 58.664753   L 223.24632 58.318989   L 223.24632 57.857969   L 223.97614 57.627459   L 224.66754 57.435368   L 225.32053 57.281694   L 226.01193 57.16644   L 226.66492 57.051185   L 227.31792 57.012766   L 227.9325 57.012766   L 228.58549 57.012766   L 229.20007 57.089603   L 229.81465 57.16644   L 230.42923 57.281694   L 231.04381 57.396949   L 231.61998 57.550623   L 232.23456 57.742714   L 232.81073 57.973224   L 233.42531 58.203734   L 234.57765 58.74159   L 235.7684 59.356283   L 236.99756 60.009394   L 238.22672 60.739342   L 240.76186 62.314493   L 243.48906 63.928061   L 243.64271 64.19699   L 243.79635 64.504336   L 243.95 64.811682   L 244.06523 65.195866   L 244.14205 65.656885   L 244.21888 66.156323   L 244.21888 66.809434   L 244.14205 67.539382   L 243.41224 67.693055   L 242.64401 67.885147   L 241.87579 68.03882   L 241.10756 68.230912  z "
     id="path2583" />
<!-- EMR_SELECTPALETTE --><!-- EMR_EXTSELECTCLIPRGN --></svg>
